{"glyphs":{"0":{"ha":772,"x_min":90,"x_max":793,"o":"m 90 323 q 140 627 90 473 q 300 907 203 815 q 517 998 398 998 q 716 911 638 998 q 793 656 793 823 q 737 334 793 504 q 584 74 680 164 q 367 -17 488 -17 q 168 71 246 -17 q 90 323 90 158 m 281 284 q 307 172 281 204 q 373 139 332 139 q 469 189 427 139 q 569 454 526 256 q 604 702 604 610 q 577 809 604 777 q 511 842 551 842 q 419 793 459 842 q 317 540 360 721 q 281 284 281 383 z "},"1":{"ha":772,"x_min":165,"x_max":709,"o":"m 165 571 l 201 745 q 591 1000 453 854 l 709 1000 l 500 0 l 304 0 l 448 689 q 308 617 387 650 q 165 571 228 585 z "},"2":{"ha":772,"x_min":84,"x_max":793,"o":"m 367 684 l 176 713 q 284 925 199 851 q 495 998 368 998 q 713 923 634 998 q 793 732 793 848 q 768 613 793 673 q 688 489 744 554 q 557 358 648 443 q 437 243 467 274 q 380 178 408 212 l 725 178 l 688 0 l 84 0 q 127 139 94 73 q 211 262 161 205 q 395 446 261 319 q 522 572 495 543 q 587 663 569 625 q 604 733 604 702 q 575 814 604 783 q 500 846 545 846 q 419 811 454 846 q 367 684 385 776 z "},"3":{"ha":772,"x_min":71,"x_max":778,"o":"m 71 260 l 257 282 q 299 172 269 203 q 379 142 329 142 q 489 186 446 142 q 533 301 533 231 q 498 398 533 362 q 403 433 463 433 q 372 431 388 433 l 406 593 q 425 591 416 591 q 544 631 503 591 q 585 739 585 671 q 557 814 585 787 q 485 842 530 842 q 410 811 443 842 q 357 706 376 781 l 179 741 q 273 910 213 851 q 498 998 365 998 q 707 922 635 998 q 778 739 778 846 q 732 600 778 662 q 608 508 687 537 q 701 422 671 475 q 730 311 730 369 q 652 109 730 201 q 378 -17 546 -17 q 170 55 252 -17 q 71 260 88 127 z "},"4":{"ha":772,"x_min":38,"x_max":778,"o":"m 429 203 l 38 203 l 72 366 l 610 994 l 778 994 l 647 368 l 768 368 l 733 203 l 612 203 l 570 0 l 387 0 l 429 203 m 464 368 l 528 678 l 266 368 l 464 368 z "},"5":{"ha":772,"x_min":88,"x_max":802,"o":"m 88 285 l 277 302 q 277 281 277 288 q 308 178 277 212 q 388 143 338 143 q 514 209 457 143 q 570 392 570 275 q 538 496 570 461 q 454 532 507 532 q 380 514 416 532 q 311 460 345 496 l 151 473 l 302 981 l 802 981 l 766 803 l 435 803 l 390 650 q 447 669 418 663 q 503 675 475 675 q 690 599 617 675 q 764 393 764 522 q 712 190 764 290 q 570 37 661 90 q 380 -17 479 -17 q 171 65 253 -17 q 88 285 90 147 z "},"6":{"ha":772,"x_min":113,"x_max":800,"o":"m 800 751 l 617 736 q 589 819 612 795 q 528 843 566 843 q 439 804 478 843 q 351 622 385 747 q 485 663 414 663 q 675 585 600 663 q 749 370 749 506 q 697 166 749 262 q 567 26 645 71 q 402 -18 489 -18 q 252 24 319 -18 q 149 146 185 66 q 113 360 113 226 q 231 812 113 627 q 542 998 349 998 q 719 937 653 998 q 800 751 785 876 m 300 292 q 331 176 300 214 q 408 139 362 139 q 506 192 465 139 q 561 383 561 263 q 530 497 561 460 q 456 534 500 534 q 380 506 418 534 q 321 417 342 478 q 300 292 300 355 z "},"7":{"ha":772,"x_min":144,"x_max":837,"o":"m 144 801 l 181 981 l 837 981 l 808 842 q 670 691 745 792 q 531 466 595 591 q 426 230 467 342 q 356 0 370 75 l 171 0 q 229 205 183 75 q 368 514 284 365 q 569 801 451 663 l 144 801 z "},"8":{"ha":772,"x_min":92,"x_max":787,"o":"m 298 547 q 220 627 246 582 q 194 727 194 672 q 231 857 194 791 q 340 960 267 922 q 505 998 413 998 q 713 929 638 998 q 787 754 787 860 q 745 624 787 680 q 619 532 703 569 q 710 442 680 495 q 741 320 741 389 q 669 115 741 208 q 383 -18 564 -18 q 172 60 252 -18 q 92 258 92 138 q 147 436 92 357 q 298 547 203 515 m 372 714 q 401 638 372 667 q 475 610 429 610 q 567 649 527 610 q 606 742 606 689 q 577 820 606 790 q 503 850 548 850 q 411 810 449 850 q 372 714 372 771 m 286 254 q 316 167 286 199 q 395 135 347 135 q 512 201 471 135 q 553 346 553 268 q 521 428 553 396 q 441 460 490 460 q 333 404 380 460 q 286 254 286 348 z "},"9":{"ha":772,"x_min":88,"x_max":775,"o":"m 88 229 l 271 244 q 299 162 276 186 q 360 138 321 138 q 448 177 410 138 q 536 359 503 233 q 403 318 473 318 q 213 396 288 318 q 138 610 138 475 q 234 880 138 762 q 488 998 330 998 q 701 897 627 998 q 775 621 775 795 q 657 168 775 353 q 345 -17 538 -17 q 164 48 232 -17 q 88 229 96 113 m 588 689 q 557 805 588 768 q 479 842 526 842 q 382 789 422 842 q 327 597 327 718 q 357 483 327 520 q 432 446 388 446 q 507 475 469 446 q 567 565 545 503 q 588 689 588 626 z "}," ":{"ha":386,"x_min":0,"x_max":0,"o":""},"!":{"ha":463,"x_min":85,"x_max":490,"o":"m 283 253 l 176 253 l 237 760 l 286 994 l 490 994 l 438 743 l 283 253 m 125 188 l 317 188 l 278 0 l 85 0 l 125 188 z "},"\"":{"ha":659,"x_min":210,"x_max":704,"o":"m 210 641 l 214 826 l 250 994 l 457 994 l 421 826 l 351 641 l 210 641 m 457 641 l 460 826 l 496 994 l 704 994 l 668 826 l 597 641 l 457 641 z "},"#":{"ha":772,"x_min":66,"x_max":810,"o":"m 159 248 l 66 248 l 66 397 l 189 397 l 229 597 l 66 597 l 66 747 l 260 747 l 313 1011 l 465 1011 l 412 747 l 562 747 l 614 1011 l 771 1011 l 717 747 l 810 747 l 810 597 l 686 597 l 646 397 l 810 397 l 810 248 l 615 248 l 562 -17 l 410 -17 l 463 248 l 312 248 l 258 -17 l 105 -17 l 159 248 m 382 597 l 342 397 l 492 397 l 532 597 l 382 597 z "},"$":{"ha":772,"x_min":61,"x_max":800,"o":"m 291 -7 q 132 95 194 17 q 61 289 69 172 l 233 298 q 323 146 245 181 l 385 446 q 228 568 277 493 q 178 724 178 643 q 217 866 178 798 q 330 974 257 935 q 468 1012 403 1012 l 504 1011 l 516 1069 l 613 1069 l 598 1000 q 739 916 686 978 q 800 756 791 853 l 633 747 q 568 852 621 823 l 511 583 q 685 461 632 534 q 737 294 737 388 q 640 73 737 164 q 386 -18 543 -18 l 361 -138 l 264 -138 l 291 -7 m 422 623 l 474 869 q 378 832 416 869 q 340 745 340 795 q 422 623 340 669 m 474 404 l 417 132 q 535 180 494 138 q 577 278 577 221 q 558 342 577 315 q 474 404 539 370 z "},"%":{"ha":1235,"x_min":126,"x_max":1200,"o":"m 126 686 q 196 913 126 815 q 391 1011 266 1011 q 528 957 477 1011 q 579 806 579 903 q 544 645 579 726 q 449 527 509 564 q 314 489 389 489 q 178 542 230 489 q 126 686 126 595 m 269 670 q 284 620 269 635 q 325 604 299 604 q 407 677 374 604 q 439 833 439 751 q 424 879 439 863 q 383 896 408 896 q 332 872 355 896 q 289 781 309 849 q 269 670 269 713 m 329 -43 l 172 -43 l 1001 1011 l 1157 1011 l 329 -43 m 747 155 q 817 383 747 285 q 1013 481 887 481 q 1149 427 1098 481 q 1200 276 1200 373 q 1165 115 1200 196 q 1070 -3 1131 34 q 935 -41 1010 -41 q 799 12 851 -41 q 747 155 747 65 m 890 140 q 905 90 890 106 q 946 74 920 74 q 1028 147 995 74 q 1061 302 1061 220 q 1045 350 1061 333 q 1004 366 1029 366 q 953 343 976 366 q 910 251 930 319 q 890 140 890 183 z "},"&":{"ha":1003,"x_min":115,"x_max":981,"o":"m 840 433 l 981 349 q 929 266 961 311 q 871 197 898 222 q 970 104 909 155 l 847 -23 q 788 18 824 -11 q 728 73 753 47 q 606 9 680 35 q 446 -17 532 -17 q 203 65 292 -17 q 115 265 115 146 q 150 405 115 340 q 241 516 185 470 q 371 597 281 549 q 327 764 327 693 q 403 940 327 869 q 604 1011 479 1011 q 774 955 711 1011 q 837 822 837 898 q 783 683 837 758 q 606 545 729 608 q 702 396 644 480 q 758 322 736 345 q 840 433 792 357 m 535 678 q 648 760 615 719 q 671 821 671 790 q 652 866 671 848 q 601 884 633 884 q 533 856 560 884 q 506 783 506 828 q 535 678 506 739 m 441 460 q 307 283 307 393 q 347 181 307 221 q 454 141 387 141 q 620 197 534 141 q 441 460 517 322 z "},"'":{"ha":330,"x_min":210,"x_max":457,"o":"m 210 641 l 214 826 l 250 994 l 457 994 l 421 826 l 351 641 l 210 641 z "},"(":{"ha":463,"x_min":92,"x_max":605,"o":"m 333 -292 l 201 -292 q 118 -30 145 -163 q 92 213 92 102 q 136 491 92 351 q 272 774 180 630 q 457 1011 330 867 l 605 1011 q 405 726 475 859 q 300 435 335 592 q 266 127 266 277 q 281 -71 266 25 q 333 -292 296 -168 z "},")":{"ha":463,"x_min":-109,"x_max":405,"o":"m 163 1011 l 296 1011 q 378 749 351 882 q 405 507 405 616 q 360 229 405 368 q 224 -56 316 90 q 39 -292 166 -148 l -109 -292 q 91 -7 20 -140 q 195 283 161 125 q 230 592 230 441 q 215 790 230 694 q 163 1011 200 886 z "},"*":{"ha":541,"x_min":136,"x_max":628,"o":"m 283 537 l 181 616 q 283 722 230 671 q 309 747 304 742 q 212 770 292 750 q 136 791 155 784 l 176 910 q 335 831 265 874 q 319 1011 319 941 l 439 1011 q 421 829 439 962 q 479 856 435 835 q 592 903 541 884 l 628 781 q 454 747 553 764 l 535 656 q 574 610 559 628 l 470 542 l 378 693 q 283 537 337 620 z "},"+":{"ha":811,"x_min":112,"x_max":807,"o":"m 372 143 l 372 401 l 112 401 l 112 580 l 372 580 l 372 838 l 546 838 l 546 580 l 807 580 l 807 401 l 546 401 l 546 143 l 372 143 z "},",":{"ha":386,"x_min":14,"x_max":295,"o":"m 99 188 l 295 188 l 262 33 q 173 -158 235 -102 q 14 -216 112 -214 l 33 -125 q 109 -86 82 -115 q 149 0 136 -58 l 59 0 l 99 188 z "},"-":{"ha":463,"x_min":54,"x_max":471,"o":"m 93 452 l 471 452 l 431 264 l 54 264 l 93 452 z "},".":{"ha":386,"x_min":61,"x_max":293,"o":"m 100 188 l 293 188 l 254 0 l 61 0 l 100 188 z "},"/":{"ha":386,"x_min":-60,"x_max":568,"o":"m -60 -17 l 432 1011 l 568 1011 l 76 -17 l -60 -17 z "},":":{"ha":463,"x_min":98,"x_max":440,"o":"m 248 720 l 440 720 l 401 532 l 209 532 l 248 720 m 137 188 l 330 188 l 290 0 l 98 0 l 137 188 z "},";":{"ha":463,"x_min":56,"x_max":444,"o":"m 252 720 l 444 720 l 405 532 l 212 532 l 252 720 m 141 188 l 337 188 l 304 33 q 215 -158 277 -102 q 56 -216 154 -214 l 75 -125 q 151 -86 124 -115 q 191 0 178 -58 l 101 0 l 141 188 z "},"<":{"ha":811,"x_min":119,"x_max":800,"o":"m 800 113 l 119 410 l 119 574 l 800 869 l 800 675 l 325 494 l 800 305 l 800 113 z "},"=":{"ha":811,"x_min":112,"x_max":807,"o":"m 112 553 l 112 728 l 807 728 l 807 553 l 112 553 m 112 252 l 112 428 l 807 428 l 807 252 l 112 252 z "},">":{"ha":811,"x_min":119,"x_max":801,"o":"m 119 113 l 119 304 l 595 492 l 119 677 l 119 867 l 801 572 l 801 410 l 119 113 z "},"?":{"ha":848,"x_min":171,"x_max":859,"o":"m 475 248 l 300 248 q 356 406 313 339 q 529 585 399 473 q 657 711 638 680 q 677 770 677 741 q 644 840 677 812 q 542 868 610 868 q 418 827 466 868 q 349 694 370 785 l 171 726 q 304 935 205 858 q 545 1011 404 1011 q 776 938 693 1011 q 859 762 859 864 q 823 643 859 702 q 630 452 788 583 q 508 337 531 370 q 475 248 485 304 m 279 188 l 472 188 l 433 0 l 240 0 l 279 188 z "},"@":{"ha":1354,"x_min":90,"x_max":1398,"o":"m 1254 13 l 1398 13 q 1190 -203 1331 -125 q 798 -292 1029 -292 q 412 -217 574 -292 q 170 6 249 -141 q 90 328 90 154 q 180 683 90 518 q 427 929 271 847 q 785 1012 584 1012 q 1089 945 956 1012 q 1292 756 1222 879 q 1362 489 1362 634 q 1256 176 1362 316 q 913 0 1122 0 q 829 20 857 0 q 791 77 800 39 q 606 0 711 0 q 419 78 494 0 q 345 284 345 155 q 435 575 345 444 q 713 735 543 735 q 891 643 833 735 l 908 718 l 1087 718 l 985 232 q 975 172 975 186 q 983 147 975 155 q 1002 138 991 138 q 1086 178 1034 138 q 1198 316 1155 229 q 1240 496 1240 403 q 1120 775 1240 663 q 783 887 999 887 q 471 812 599 887 q 278 601 343 737 q 214 318 214 465 q 286 58 214 175 q 489 -114 358 -60 q 787 -168 619 -168 q 1066 -122 949 -168 q 1254 13 1183 -77 m 521 292 q 556 165 521 205 q 642 124 591 124 q 715 143 681 124 q 766 186 741 157 q 828 307 802 227 q 854 454 854 386 q 818 572 854 531 q 728 613 783 613 q 621 568 670 613 q 546 439 571 523 q 521 292 521 356 z "},"A":{"ha":1003,"x_min":-16,"x_max":935,"o":"m 708 220 l 314 220 l 195 0 l -16 0 l 547 994 l 774 994 l 935 0 l 741 0 l 708 220 m 683 385 l 625 785 l 385 385 l 683 385 z "},"B":{"ha":1003,"x_min":56,"x_max":986,"o":"m 56 0 l 264 994 l 604 994 q 758 987 714 994 q 882 947 831 977 q 960 865 933 916 q 986 753 986 814 q 940 609 986 670 q 798 517 894 549 q 917 443 874 496 q 960 321 960 389 q 909 151 960 231 q 769 35 859 71 q 524 0 680 0 l 56 0 m 384 593 l 540 593 q 691 608 645 593 q 760 656 737 623 q 783 729 783 690 q 762 791 783 767 q 700 824 740 816 q 592 828 677 828 l 433 828 l 384 593 m 294 160 l 491 160 q 657 176 615 160 q 725 229 700 192 q 751 306 751 265 q 714 388 751 355 q 592 420 677 420 l 348 420 l 294 160 z "},"C":{"ha":1003,"x_min":132,"x_max":1036,"o":"m 777 358 l 983 327 q 802 71 923 159 q 519 -18 682 -18 q 234 92 337 -18 q 132 411 132 202 q 200 721 132 581 q 391 937 269 862 q 657 1011 513 1011 q 918 925 819 1011 q 1036 689 1018 838 l 840 670 q 777 796 823 757 q 653 835 730 835 q 495 783 568 835 q 377 622 421 732 q 333 404 333 513 q 390 219 333 284 q 533 154 448 154 q 679 205 612 154 q 777 358 745 257 z "},"D":{"ha":1003,"x_min":60,"x_max":1006,"o":"m 60 0 l 269 994 l 536 994 q 680 991 648 994 q 790 966 741 985 q 878 912 838 947 q 946 830 918 878 q 991 719 975 782 q 1006 582 1006 656 q 945 297 1006 421 q 791 99 884 172 q 607 15 720 42 q 411 0 543 0 l 60 0 m 298 160 l 402 160 q 565 174 515 160 q 658 226 616 188 q 760 372 718 281 q 801 588 801 464 q 767 747 801 694 q 682 818 732 800 q 557 830 647 830 l 438 830 l 298 160 z "},"E":{"ha":926,"x_min":57,"x_max":1002,"o":"m 57 0 l 264 994 l 1002 994 l 967 828 l 435 828 l 387 602 l 902 602 l 867 436 l 353 436 l 290 166 l 869 166 l 833 0 l 57 0 z "},"F":{"ha":848,"x_min":54,"x_max":958,"o":"m 54 0 l 262 994 l 958 994 l 923 828 l 432 828 l 382 589 l 863 589 l 829 423 l 347 423 l 259 0 l 54 0 z "},"G":{"ha":1080,"x_min":123,"x_max":1091,"o":"m 610 531 l 1055 531 l 966 104 q 773 18 887 54 q 540 -17 659 -17 q 257 66 355 -17 q 123 397 123 180 q 180 675 123 542 q 377 923 250 835 q 677 1011 505 1011 q 953 931 849 1011 q 1091 698 1057 851 l 901 676 q 820 803 876 760 q 679 846 764 846 q 497 794 580 846 q 368 635 414 743 q 321 399 321 527 q 378 214 321 274 q 545 154 435 154 q 680 173 610 154 q 799 217 749 191 l 829 365 l 576 365 l 610 531 z "},"H":{"ha":1003,"x_min":60,"x_max":1062,"o":"m 743 444 l 358 444 l 265 0 l 60 0 l 269 994 l 473 994 l 393 610 l 777 610 l 858 994 l 1062 994 l 854 0 l 650 0 l 743 444 z "},"I":{"ha":386,"x_min":48,"x_max":460,"o":"m 48 0 l 256 994 l 460 994 l 253 0 l 48 0 z "},"J":{"ha":772,"x_min":40,"x_max":833,"o":"m 632 994 l 833 994 l 707 392 q 576 68 657 153 q 326 -17 494 -17 q 111 49 182 -17 q 40 228 40 115 q 43 281 40 252 l 233 301 q 229 252 229 271 q 256 179 229 204 q 339 154 283 154 q 450 200 418 154 q 507 399 473 235 l 632 994 z "},"K":{"ha":1003,"x_min":55,"x_max":1113,"o":"m 55 0 l 262 994 l 467 994 l 379 572 l 839 994 l 1113 994 l 667 604 l 994 0 l 763 0 l 517 473 l 324 304 l 260 0 l 55 0 z "},"L":{"ha":848,"x_min":62,"x_max":808,"o":"m 62 0 l 271 994 l 475 994 l 302 166 l 808 166 l 773 0 l 62 0 z "},"M":{"ha":1157,"x_min":56,"x_max":1220,"o":"m 629 0 l 435 0 l 399 831 l 241 0 l 56 0 l 264 994 l 555 994 l 586 298 l 925 994 l 1220 994 l 1012 0 l 825 0 l 1021 825 l 629 0 z "},"N":{"ha":1003,"x_min":62,"x_max":1059,"o":"m 852 0 l 661 0 l 393 668 l 253 0 l 62 0 l 270 994 l 461 994 l 730 329 l 869 994 l 1059 994 l 852 0 z "},"O":{"ha":1080,"x_min":121,"x_max":1089,"o":"m 121 390 q 148 576 121 478 q 253 803 182 707 q 432 955 324 899 q 677 1011 540 1011 q 976 897 862 1011 q 1089 593 1089 782 q 1015 288 1089 435 q 814 62 941 141 q 528 -18 688 -18 q 294 45 389 -18 q 161 202 200 109 q 121 390 121 295 m 323 394 q 386 222 323 292 q 550 153 448 153 q 709 208 633 153 q 835 373 785 262 q 885 589 885 484 q 822 773 885 707 q 661 840 759 840 q 417 701 511 840 q 323 394 323 561 z "},"P":{"ha":926,"x_min":56,"x_max":975,"o":"m 261 0 l 56 0 l 264 994 l 669 994 q 839 969 777 994 q 939 885 902 943 q 975 745 975 826 q 946 598 975 669 q 874 484 917 527 q 783 419 832 441 q 652 386 734 397 q 471 379 604 379 l 340 379 l 261 0 m 374 544 l 437 544 q 654 564 600 544 q 739 629 708 585 q 770 728 770 674 q 754 787 770 764 q 710 820 739 810 q 581 831 681 831 l 435 831 l 374 544 z "},"Q":{"ha":1080,"x_min":121,"x_max":1088,"o":"m 731 20 q 633 -8 684 1 q 528 -18 582 -18 q 234 96 346 -18 q 121 393 121 210 q 191 696 121 543 q 388 930 261 849 q 677 1011 515 1011 q 975 897 862 1011 q 1088 593 1088 783 q 1028 315 1088 448 q 865 99 967 182 q 1002 -5 930 35 l 906 -132 q 731 20 811 -86 m 748 241 q 847 402 810 303 q 885 589 885 501 q 822 773 885 707 q 661 840 759 840 q 537 809 594 840 q 432 720 480 779 q 354 576 385 662 q 324 404 324 490 q 388 221 324 288 q 552 154 452 154 q 610 158 580 154 q 624 162 621 160 q 626 168 626 164 q 606 193 626 174 q 515 251 563 233 l 589 365 q 748 241 681 319 z "},"R":{"ha":1003,"x_min":61,"x_max":1029,"o":"m 266 0 l 61 0 l 269 994 l 711 994 q 888 971 825 994 q 990 885 951 947 q 1029 734 1029 823 q 954 525 1029 607 q 724 422 878 442 q 798 330 763 387 q 950 0 866 213 l 730 0 q 627 262 704 84 q 537 392 585 359 q 435 412 508 412 l 352 412 l 266 0 m 383 561 l 492 561 q 710 581 656 561 q 795 642 764 600 q 825 730 825 684 q 781 812 825 785 q 664 828 754 828 l 439 828 l 383 561 z "},"S":{"ha":926,"x_min":85,"x_max":939,"o":"m 88 322 l 283 332 q 315 207 287 239 q 480 154 359 154 q 625 190 581 154 q 670 277 670 226 q 633 351 670 321 q 492 424 608 374 q 323 508 376 474 q 239 595 270 541 q 209 720 209 648 q 300 928 209 846 q 563 1011 391 1011 q 834 929 738 1011 q 939 711 930 847 l 743 702 q 692 811 736 773 q 562 849 648 849 q 440 819 477 849 q 404 744 404 789 q 437 673 404 701 q 585 595 471 645 q 803 475 756 522 q 873 301 873 408 q 769 76 873 170 q 479 -17 665 -17 q 257 26 351 -17 q 124 146 163 69 q 88 322 85 222 z "},"T":{"ha":848,"x_min":167,"x_max":985,"o":"m 490 0 l 285 0 l 458 828 l 167 828 l 201 994 l 985 994 l 950 828 l 663 828 l 490 0 z "},"U":{"ha":1003,"x_min":127,"x_max":1063,"o":"m 265 994 l 469 994 l 357 454 l 329 321 q 326 290 326 304 q 369 192 326 231 q 494 154 412 154 q 616 182 568 154 q 691 264 665 210 q 745 451 718 319 l 859 994 l 1063 994 l 949 450 q 867 188 913 279 q 725 40 820 97 q 485 -17 630 -17 q 219 68 311 -17 q 127 287 127 153 q 132 347 127 315 q 155 471 134 369 l 265 994 z "},"V":{"ha":926,"x_min":157,"x_max":1102,"o":"m 554 0 l 336 0 l 157 994 l 361 994 l 488 242 l 899 994 l 1102 994 l 554 0 z "},"W":{"ha":1311,"x_min":163,"x_max":1483,"o":"m 1002 0 l 795 0 l 773 727 l 411 0 l 200 0 l 163 994 l 363 994 l 372 298 l 713 994 l 935 994 l 958 306 l 1285 994 l 1483 994 l 1002 0 z "},"X":{"ha":926,"x_min":-42,"x_max":1088,"o":"m 222 0 l -42 0 l 397 503 l 150 994 l 363 994 l 460 808 q 527 670 465 798 q 536 652 531 663 q 675 817 618 753 l 831 994 l 1088 994 l 633 471 l 878 0 l 648 0 l 573 150 q 496 320 515 269 q 359 155 469 280 l 222 0 z "},"Y":{"ha":926,"x_min":159,"x_max":1090,"o":"m 557 0 l 353 0 l 433 387 l 159 994 l 377 994 l 500 713 q 559 568 545 612 q 618 661 585 612 l 712 793 l 852 994 l 1090 994 l 634 368 l 557 0 z "},"Z":{"ha":848,"x_min":35,"x_max":928,"o":"m 35 0 l 67 157 l 640 828 l 176 828 l 211 994 l 928 994 l 898 838 l 319 163 q 426 165 412 165 q 606 166 491 165 l 840 166 l 806 0 l 35 0 z "},"[":{"ha":463,"x_min":14,"x_max":610,"o":"m 376 -129 l 345 -274 l 14 -274 l 279 994 l 610 994 l 578 843 l 430 843 l 227 -129 l 376 -129 z "},"\\":{"ha":386,"x_min":109,"x_max":399,"o":"m 262 -17 l 109 1011 l 245 1011 l 399 -17 l 262 -17 z "},"]":{"ha":463,"x_min":-77,"x_max":521,"o":"m 157 849 l 188 994 l 521 994 l 256 -274 l -77 -274 l -45 -122 l 104 -122 l 307 849 l 157 849 z "},"^":{"ha":811,"x_min":146,"x_max":800,"o":"m 146 469 l 401 1011 l 552 1011 l 800 469 l 608 469 l 473 801 l 340 469 l 146 469 z "},"_":{"ha":772,"x_min":-13,"x_max":779,"o":"m -13 -275 l -13 -151 l 779 -151 l 779 -275 l -13 -275 z "},"`":{"ha":463,"x_min":186,"x_max":460,"o":"m 186 1017 l 373 1017 l 460 814 l 328 814 l 186 1017 z "},"a":{"ha":772,"x_min":62,"x_max":741,"o":"m 330 516 l 140 532 q 254 683 173 629 q 469 737 335 737 q 674 681 608 737 q 741 545 741 625 q 735 475 741 512 q 694 283 729 439 q 666 102 666 154 q 682 0 666 56 l 493 0 q 479 81 481 39 q 380 8 436 34 q 269 -17 325 -17 q 121 42 179 -17 q 62 193 62 100 q 126 357 62 296 q 355 432 191 419 q 541 460 494 444 q 553 525 553 500 q 528 577 553 556 q 454 598 503 598 q 371 577 401 598 q 330 516 341 555 m 515 336 q 469 327 498 331 q 277 275 322 309 q 245 210 245 251 q 270 152 245 176 q 334 129 294 129 q 417 150 378 129 q 476 205 456 172 q 510 310 495 239 l 515 336 z "},"b":{"ha":848,"x_min":50,"x_max":836,"o":"m 50 0 l 258 994 l 453 994 l 383 662 q 483 720 437 703 q 585 737 530 737 q 767 661 699 737 q 836 439 836 585 q 803 248 836 340 q 717 97 771 155 q 604 11 663 39 q 479 -17 545 -17 q 252 119 325 -17 l 227 0 l 50 0 m 313 294 q 354 176 313 221 q 450 130 395 130 q 544 165 499 130 q 617 278 588 201 q 647 434 647 355 q 607 554 647 511 q 511 598 568 598 q 385 530 438 598 q 313 294 313 437 z "},"c":{"ha":772,"x_min":83,"x_max":784,"o":"m 544 271 l 733 241 q 595 49 686 115 q 382 -17 503 -17 q 164 65 245 -17 q 83 291 83 147 q 132 513 83 408 q 279 677 181 617 q 495 737 378 737 q 699 671 623 737 q 784 496 774 604 l 599 476 q 562 565 592 536 q 483 593 532 593 q 378 551 427 593 q 303 426 329 509 q 277 269 277 342 q 308 170 277 205 q 386 136 339 136 q 476 170 433 136 q 544 271 519 203 z "},"d":{"ha":848,"x_min":82,"x_max":928,"o":"m 721 0 l 536 0 l 553 78 q 449 5 500 27 q 333 -17 397 -17 q 152 59 221 -17 q 82 285 82 136 q 180 597 82 458 q 438 737 277 737 q 656 622 583 737 l 734 994 l 928 994 l 721 0 m 271 293 q 310 172 271 216 q 406 129 349 129 q 505 165 459 129 q 578 276 551 201 q 606 419 606 351 q 564 545 606 497 q 467 593 522 593 q 326 498 381 593 q 271 293 271 404 z "},"e":{"ha":772,"x_min":81,"x_max":770,"o":"m 757 300 l 269 300 q 268 282 268 288 q 309 166 268 210 q 409 122 350 122 q 560 222 506 122 l 734 193 q 598 36 684 88 q 408 -17 513 -17 q 172 75 262 -17 q 81 318 81 167 q 163 581 81 466 q 482 737 275 737 q 692 655 614 737 q 770 427 770 574 q 757 300 770 356 m 593 418 q 593 438 593 431 q 557 558 593 518 q 461 598 522 598 q 353 553 401 598 q 288 418 305 507 l 593 418 z "},"f":{"ha":463,"x_min":75,"x_max":654,"o":"m 557 720 l 528 578 l 390 578 l 269 0 l 75 0 l 195 578 l 87 578 l 117 720 l 225 720 l 241 794 q 277 917 260 885 q 346 986 300 960 q 465 1011 391 1011 q 654 979 555 1011 l 616 840 q 503 863 546 863 q 453 842 469 863 q 431 771 442 829 l 420 720 l 557 720 z "},"g":{"ha":848,"x_min":43,"x_max":865,"o":"m 45 -38 l 251 -68 q 261 -115 251 -99 q 294 -142 271 -131 q 356 -153 317 -153 q 455 -129 418 -153 q 500 -68 483 -110 q 528 47 511 -41 l 535 81 q 326 -3 434 -3 q 153 72 220 -3 q 85 290 85 146 q 131 523 85 417 q 260 683 177 629 q 431 737 344 737 q 562 699 503 737 q 655 593 622 661 l 682 720 l 865 720 l 740 120 q 688 -86 709 -24 q 640 -184 667 -148 q 572 -246 613 -221 q 474 -281 530 -271 q 352 -292 418 -292 q 121 -240 199 -292 q 43 -66 43 -188 q 45 -38 43 -54 m 275 310 q 312 185 275 228 q 404 142 349 142 q 503 180 455 142 q 576 290 551 219 q 602 428 602 361 q 560 551 602 505 q 465 598 519 598 q 369 557 412 598 q 296 429 325 515 q 275 310 275 363 z "},"h":{"ha":848,"x_min":58,"x_max":821,"o":"m 253 0 l 58 0 l 267 994 l 461 994 l 387 640 q 509 714 452 692 q 631 737 566 737 q 770 687 719 737 q 821 555 821 637 q 802 421 821 512 l 713 0 l 519 0 l 609 429 q 623 519 623 499 q 601 576 623 555 q 540 598 578 598 q 446 564 491 598 q 357 454 388 519 q 313 286 340 418 l 253 0 z "},"i":{"ha":386,"x_min":56,"x_max":458,"o":"m 263 994 l 458 994 l 421 818 l 227 818 l 263 994 m 206 720 l 401 720 l 250 0 l 56 0 l 206 720 z "},"j":{"ha":386,"x_min":-152,"x_max":460,"o":"m 264 994 l 460 994 l 423 818 l 228 818 l 264 994 m 208 720 l 403 720 l 275 111 q 182 -206 220 -151 q -5 -292 123 -292 q -152 -271 -85 -292 l -121 -110 q -43 -121 -75 -121 q 20 -91 -3 -121 q 83 123 44 -60 l 208 720 z "},"k":{"ha":772,"x_min":52,"x_max":853,"o":"m 52 0 l 260 994 l 455 994 l 347 477 l 600 720 l 853 720 l 564 458 l 718 0 l 523 0 l 424 333 l 292 216 l 247 0 l 52 0 z "},"l":{"ha":386,"x_min":54,"x_max":456,"o":"m 54 0 l 262 994 l 456 994 l 249 0 l 54 0 z "},"m":{"ha":1235,"x_min":50,"x_max":1206,"o":"m 200 720 l 383 720 l 365 633 q 590 737 472 737 q 715 703 671 737 q 772 610 760 669 q 879 701 809 664 q 1024 737 949 737 q 1158 691 1110 737 q 1206 569 1206 645 q 1187 440 1206 532 l 1095 0 l 901 0 l 993 440 q 1010 534 1010 523 q 992 581 1010 564 q 938 598 974 598 q 808 522 865 598 q 738 327 767 467 l 669 0 l 475 0 l 566 435 q 581 533 581 511 q 562 580 581 562 q 509 598 543 598 q 443 579 477 598 q 384 527 409 560 q 340 441 358 494 q 313 331 332 417 l 244 0 l 50 0 l 200 720 z "},"n":{"ha":848,"x_min":58,"x_max":821,"o":"m 209 720 l 393 720 l 374 627 q 504 712 444 686 q 630 737 564 737 q 770 686 719 737 q 821 551 821 635 q 799 408 821 513 l 714 0 l 519 0 l 605 409 q 624 518 624 500 q 602 577 624 555 q 541 598 580 598 q 446 562 498 598 q 363 467 393 526 q 315 296 342 425 l 253 0 l 58 0 l 209 720 z "},"o":{"ha":848,"x_min":84,"x_max":832,"o":"m 84 299 q 197 618 84 499 q 494 737 310 737 q 743 649 653 737 q 832 413 832 562 q 720 111 832 238 q 420 -17 608 -17 q 240 24 319 -17 q 123 139 161 64 q 84 299 84 214 m 639 438 q 598 549 639 507 q 494 591 558 591 q 382 552 431 591 q 307 438 334 513 q 279 302 279 364 q 321 179 279 224 q 427 134 363 134 q 562 202 507 134 q 639 438 639 299 z "},"p":{"ha":848,"x_min":-7,"x_max":841,"o":"m 200 720 l 385 720 l 369 646 q 479 716 428 695 q 590 737 531 737 q 772 659 703 737 q 841 427 841 581 q 722 98 841 232 q 481 -17 621 -17 q 265 99 338 -17 l 187 -275 l -7 -275 l 200 720 m 317 307 q 358 177 317 223 q 455 130 399 130 q 548 165 503 130 q 622 281 593 200 q 652 431 652 362 q 613 555 652 512 q 515 598 574 598 q 413 558 459 598 q 342 442 368 519 q 317 307 317 365 z "},"q":{"ha":848,"x_min":83,"x_max":868,"o":"m 689 720 l 868 720 l 661 -275 l 466 -275 l 536 61 q 439 1 484 19 q 336 -17 393 -17 q 152 60 221 -17 q 83 283 83 136 q 130 509 83 399 q 259 678 176 618 q 439 737 342 737 q 665 607 595 737 l 689 720 m 271 286 q 310 171 271 214 q 405 128 349 128 q 500 162 454 128 q 575 273 547 195 q 604 421 604 350 q 563 548 604 502 q 467 593 522 593 q 376 558 422 593 q 300 442 330 523 q 271 286 271 361 z "},"r":{"ha":541,"x_min":45,"x_max":659,"o":"m 195 720 l 377 720 l 348 581 q 568 737 450 737 q 659 716 610 737 l 584 557 q 528 566 557 566 q 426 528 477 566 q 345 427 374 490 q 287 226 315 363 l 239 0 l 45 0 l 195 720 z "},"s":{"ha":772,"x_min":31,"x_max":766,"o":"m 31 201 l 219 231 q 281 147 244 172 q 383 122 319 122 q 490 152 450 122 q 517 201 517 172 q 503 237 517 221 q 422 273 488 252 q 204 366 246 332 q 138 504 138 418 q 202 651 138 589 q 466 737 291 737 q 676 686 605 737 q 766 549 747 635 l 587 517 q 541 576 572 557 q 436 603 497 603 q 348 583 375 603 q 321 536 321 562 q 349 491 321 509 q 458 453 366 480 q 648 372 600 412 q 716 236 716 315 q 630 58 716 134 q 387 -17 544 -17 q 146 40 231 -17 q 31 201 61 98 z "},"t":{"ha":463,"x_min":104,"x_max":543,"o":"m 104 576 l 134 720 l 229 720 l 253 836 l 476 970 l 424 720 l 543 720 l 513 576 l 393 576 l 330 274 q 313 180 313 192 q 328 145 313 158 q 379 133 342 133 q 444 138 392 133 l 413 -7 q 310 -17 363 -17 q 160 23 207 -17 q 113 133 113 62 q 138 286 113 166 l 199 576 l 104 576 z "},"u":{"ha":848,"x_min":98,"x_max":860,"o":"m 205 720 l 399 720 l 311 294 q 294 198 294 217 q 317 144 294 167 q 376 122 340 122 q 427 132 402 122 q 479 162 452 142 q 526 208 505 182 q 566 275 547 233 q 593 377 578 307 l 665 720 l 860 720 l 709 0 l 528 0 l 548 98 q 288 -17 429 -17 q 149 34 199 -17 q 98 170 98 85 q 121 319 98 208 l 205 720 z "},"v":{"ha":772,"x_min":104,"x_max":859,"o":"m 416 0 l 248 0 l 104 720 l 295 720 l 346 406 q 371 237 367 279 q 418 325 376 248 q 469 416 460 401 l 648 720 l 859 720 l 416 0 z "},"w":{"ha":1080,"x_min":100,"x_max":1167,"o":"m 808 0 l 625 0 l 590 458 l 370 0 l 190 0 l 100 720 l 273 720 l 323 237 l 547 720 l 724 720 l 749 237 l 972 720 l 1167 720 l 808 0 z "},"x":{"ha":772,"x_min":-31,"x_max":850,"o":"m 387 202 l 208 0 l -31 0 l 302 369 l 119 720 l 326 720 l 431 515 l 614 720 l 850 720 l 516 347 l 698 0 l 491 0 l 387 202 z "},"y":{"ha":772,"x_min":9,"x_max":862,"o":"m 116 720 l 310 720 l 359 361 q 379 168 377 223 q 484 401 417 278 l 656 720 l 862 720 l 417 -71 q 331 -208 362 -169 q 255 -270 299 -248 q 148 -292 210 -292 q 9 -271 86 -292 l 26 -125 q 94 -136 61 -136 q 241 0 184 -136 l 116 720 z "},"z":{"ha":694,"x_min":23,"x_max":720,"o":"m 23 0 l 51 132 l 446 568 l 123 568 l 155 720 l 720 720 l 696 604 l 298 157 l 645 157 l 612 0 l 23 0 z "},"{":{"ha":541,"x_min":58,"x_max":681,"o":"m 58 278 l 94 441 q 172 456 143 444 q 225 499 201 469 q 264 569 250 529 q 298 696 279 609 q 350 872 323 820 q 413 953 376 924 q 515 1000 450 982 q 646 1011 557 1011 l 681 1011 l 646 849 q 544 839 569 849 q 507 809 519 829 q 476 709 497 795 q 425 526 438 559 q 368 430 401 467 q 274 359 334 393 q 333 295 314 333 q 352 197 352 258 q 344 124 352 173 q 316 -33 321 -8 q 310 -73 310 -57 q 320 -104 310 -92 q 349 -123 330 -117 q 433 -130 368 -130 l 398 -292 l 362 -292 q 222 -277 269 -292 q 151 -227 176 -262 q 126 -136 126 -191 q 150 18 126 -90 q 174 162 174 126 q 148 248 174 221 q 58 278 123 275 z "},"|":{"ha":389,"x_min":119,"x_max":271,"o":"m 119 -292 l 119 1011 l 271 1011 l 271 -292 l 119 -292 z "},"}":{"ha":541,"x_min":-118,"x_max":505,"o":"m 469 278 q 374 254 409 275 q 314 183 339 232 q 264 17 289 135 q 214 -153 240 -100 q 150 -234 187 -205 q 50 -280 113 -262 q -82 -292 6 -292 l -118 -292 l -83 -130 q 17 -119 -9 -130 q 57 -88 43 -109 q 87 9 66 -74 q 136 189 125 159 q 197 289 160 248 q 289 359 233 331 q 227 427 244 393 q 210 522 210 462 q 218 594 210 547 q 246 751 240 724 q 252 796 252 778 q 244 826 252 814 q 216 843 235 838 q 129 849 197 849 l 164 1011 l 200 1011 q 340 996 294 1011 q 411 946 386 981 q 436 856 436 911 q 412 702 436 810 q 389 557 389 593 q 414 471 389 498 q 505 441 439 444 l 469 278 z "},"~":{"ha":811,"x_min":93,"x_max":813,"o":"m 93 352 l 93 528 q 198 604 141 580 q 296 621 239 621 q 378 611 339 621 q 520 559 418 601 q 627 531 588 531 q 813 627 724 531 l 813 444 q 724 381 781 410 q 615 353 667 353 q 546 361 581 353 q 442 401 511 370 q 278 446 338 446 q 93 352 183 446 z "},"Ä":{"ha":1003,"x_min":-16,"x_max":945,"o":"m 708 220 l 314 220 l 195 0 l -16 0 l 547 994 l 774 994 l 935 0 l 741 0 l 708 220 m 683 385 l 625 785 l 385 385 l 683 385 m 493 1217 l 660 1217 l 625 1050 l 458 1050 l 493 1217 m 779 1217 l 945 1217 l 911 1050 l 744 1050 l 779 1217 z "},"Å":{"ha":1003,"x_min":-16,"x_max":935,"o":"m 708 207 l 314 207 l 195 -13 l -16 -13 l 547 981 l 774 981 l 935 -13 l 741 -13 l 708 207 m 683 372 l 625 772 l 385 372 l 683 372 m 530 1055 q 568 1148 530 1109 q 661 1186 606 1186 q 753 1148 715 1186 q 791 1055 791 1109 q 753 963 791 1001 q 661 924 715 924 q 568 963 606 924 q 530 1055 530 1001 m 604 1055 q 620 1015 604 1031 q 661 998 637 998 q 701 1015 684 998 q 718 1055 718 1031 q 701 1096 718 1079 q 661 1113 684 1113 q 620 1096 637 1113 q 604 1055 604 1079 z "},"Ç":{"ha":1003,"x_min":132,"x_max":1036,"o":"m 777 358 l 983 327 q 802 71 923 159 q 519 -18 682 -18 q 234 92 337 -18 q 132 411 132 202 q 200 721 132 581 q 391 937 269 862 q 657 1011 513 1011 q 918 925 819 1011 q 1036 689 1018 838 l 840 670 q 777 796 823 757 q 653 835 730 835 q 495 783 568 835 q 377 622 421 732 q 333 404 333 513 q 390 219 333 284 q 533 154 448 154 q 679 205 612 154 q 777 358 745 257 m 275 -281 l 308 -203 l 347 -203 q 457 -187 404 -203 q 502 -163 490 -177 q 513 -134 513 -149 q 495 -101 513 -115 q 435 -87 477 -87 q 374 -93 413 -87 l 397 -26 q 486 -14 446 -14 q 598 -46 560 -14 q 637 -125 637 -79 q 577 -224 637 -182 q 341 -284 494 -284 q 275 -281 298 -284 z "},"É":{"ha":926,"x_min":57,"x_max":1002,"o":"m 57 0 l 264 994 l 1002 994 l 967 828 l 435 828 l 387 602 l 902 602 l 867 436 l 353 436 l 290 166 l 869 166 l 833 0 l 57 0 m 729 1255 l 937 1255 l 717 1052 l 587 1052 l 729 1255 z "},"Ñ":{"ha":1003,"x_min":62,"x_max":1059,"o":"m 852 0 l 661 0 l 393 668 l 253 0 l 62 0 l 270 994 l 461 994 l 730 329 l 869 994 l 1059 994 l 852 0 m 530 1050 l 445 1050 q 488 1166 463 1133 q 579 1213 525 1213 q 705 1180 614 1213 q 778 1161 758 1161 q 804 1171 793 1161 q 825 1214 815 1181 l 911 1214 q 860 1091 899 1131 q 774 1051 822 1051 q 677 1078 744 1051 q 591 1105 610 1105 q 556 1094 571 1105 q 530 1050 541 1082 z "},"Ö":{"ha":1080,"x_min":121,"x_max":1089,"o":"m 121 390 q 148 576 121 478 q 253 803 182 707 q 432 955 324 899 q 677 1011 540 1011 q 976 897 862 1011 q 1089 593 1089 782 q 1015 288 1089 435 q 814 62 941 141 q 528 -18 688 -18 q 294 45 389 -18 q 161 202 200 109 q 121 390 121 295 m 323 394 q 386 222 323 292 q 550 153 448 153 q 709 208 633 153 q 835 373 785 262 q 885 589 885 484 q 822 773 885 707 q 661 840 759 840 q 417 701 511 840 q 323 394 323 561 m 481 1217 l 648 1217 l 613 1050 l 446 1050 l 481 1217 m 766 1217 l 933 1217 l 899 1050 l 732 1050 l 766 1217 z "},"Ü":{"ha":1003,"x_min":127,"x_max":1063,"o":"m 265 994 l 469 994 l 357 454 l 329 321 q 326 290 326 304 q 369 192 326 231 q 494 154 412 154 q 616 182 568 154 q 691 264 665 210 q 745 451 718 319 l 859 994 l 1063 994 l 949 450 q 867 188 913 279 q 725 40 820 97 q 485 -17 630 -17 q 219 68 311 -17 q 127 287 127 153 q 132 347 127 315 q 155 471 134 369 l 265 994 m 471 1217 l 637 1217 l 603 1050 l 436 1050 l 471 1217 m 756 1217 l 923 1217 l 888 1050 l 722 1050 l 756 1217 z "},"á":{"ha":772,"x_min":62,"x_max":788,"o":"m 330 516 l 140 532 q 254 683 173 629 q 469 737 335 737 q 674 681 608 737 q 741 545 741 625 q 735 475 741 512 q 694 283 729 439 q 666 102 666 154 q 682 0 666 56 l 493 0 q 479 81 481 39 q 380 8 436 34 q 269 -17 325 -17 q 121 42 179 -17 q 62 193 62 100 q 126 357 62 296 q 355 432 191 419 q 541 460 494 444 q 553 525 553 500 q 528 577 553 556 q 454 598 503 598 q 371 577 401 598 q 330 516 341 555 m 515 336 q 469 327 498 331 q 277 275 322 309 q 245 210 245 251 q 270 152 245 176 q 334 129 294 129 q 417 150 378 129 q 476 205 456 172 q 510 310 495 239 l 515 336 m 581 1015 l 788 1015 l 568 811 l 439 811 l 581 1015 z "},"à":{"ha":772,"x_min":62,"x_max":741,"o":"m 330 516 l 140 532 q 254 683 173 629 q 469 737 335 737 q 674 681 608 737 q 741 545 741 625 q 735 475 741 512 q 694 283 729 439 q 666 102 666 154 q 682 0 666 56 l 493 0 q 479 81 481 39 q 380 8 436 34 q 269 -17 325 -17 q 121 42 179 -17 q 62 193 62 100 q 126 357 62 296 q 355 432 191 419 q 541 460 494 444 q 553 525 553 500 q 528 577 553 556 q 454 598 503 598 q 371 577 401 598 q 330 516 341 555 m 515 336 q 469 327 498 331 q 277 275 322 309 q 245 210 245 251 q 270 152 245 176 q 334 129 294 129 q 417 150 378 129 q 476 205 456 172 q 510 310 495 239 l 515 336 m 353 1017 l 540 1017 l 627 814 l 495 814 l 353 1017 z "},"â":{"ha":772,"x_min":62,"x_max":741,"o":"m 330 516 l 140 532 q 254 683 173 629 q 469 737 335 737 q 674 681 608 737 q 741 545 741 625 q 735 475 741 512 q 694 283 729 439 q 666 102 666 154 q 682 0 666 56 l 493 0 q 479 81 481 39 q 380 8 436 34 q 269 -17 325 -17 q 121 42 179 -17 q 62 193 62 100 q 126 357 62 296 q 355 432 191 419 q 541 460 494 444 q 553 525 553 500 q 528 577 553 556 q 454 598 503 598 q 371 577 401 598 q 330 516 341 555 m 515 336 q 469 327 498 331 q 277 275 322 309 q 245 210 245 251 q 270 152 245 176 q 334 129 294 129 q 417 150 378 129 q 476 205 456 172 q 510 310 495 239 l 515 336 m 535 932 l 416 812 l 256 812 l 457 1016 l 639 1016 l 722 812 l 587 812 l 535 932 z "},"ä":{"ha":772,"x_min":62,"x_max":769,"o":"m 330 516 l 140 532 q 254 683 173 629 q 469 737 335 737 q 674 681 608 737 q 741 545 741 625 q 735 475 741 512 q 694 283 729 439 q 666 102 666 154 q 682 0 666 56 l 493 0 q 479 81 481 39 q 380 8 436 34 q 269 -17 325 -17 q 121 42 179 -17 q 62 193 62 100 q 126 357 62 296 q 355 432 191 419 q 541 460 494 444 q 553 525 553 500 q 528 577 553 556 q 454 598 503 598 q 371 577 401 598 q 330 516 341 555 m 515 336 q 469 327 498 331 q 277 275 322 309 q 245 210 245 251 q 270 152 245 176 q 334 129 294 129 q 417 150 378 129 q 476 205 456 172 q 510 310 495 239 l 515 336 m 317 996 l 484 996 l 449 829 l 282 829 l 317 996 m 602 996 l 769 996 l 734 829 l 568 829 l 602 996 z "},"ã":{"ha":772,"x_min":62,"x_max":764,"o":"m 330 516 l 140 532 q 254 683 173 629 q 469 737 335 737 q 674 681 608 737 q 741 545 741 625 q 735 475 741 512 q 694 283 729 439 q 666 102 666 154 q 682 0 666 56 l 493 0 q 479 81 481 39 q 380 8 436 34 q 269 -17 325 -17 q 121 42 179 -17 q 62 193 62 100 q 126 357 62 296 q 355 432 191 419 q 541 460 494 444 q 553 525 553 500 q 528 577 553 556 q 454 598 503 598 q 371 577 401 598 q 330 516 341 555 m 515 336 q 469 327 498 331 q 277 275 322 309 q 245 210 245 251 q 270 152 245 176 q 334 129 294 129 q 417 150 378 129 q 476 205 456 172 q 510 310 495 239 l 515 336 m 382 823 l 297 823 q 340 939 315 905 q 431 986 377 986 q 557 953 467 986 q 630 934 610 934 q 656 944 646 934 q 677 987 667 954 l 764 987 q 712 864 751 903 q 627 824 674 824 q 529 851 596 824 q 444 878 462 878 q 408 866 423 878 q 382 823 393 854 z "},"å":{"ha":772,"x_min":62,"x_max":741,"o":"m 330 516 l 140 532 q 254 683 173 629 q 469 737 335 737 q 674 681 608 737 q 741 545 741 625 q 735 475 741 512 q 694 283 729 439 q 666 102 666 154 q 682 0 666 56 l 493 0 q 479 81 481 39 q 380 8 436 34 q 269 -17 325 -17 q 121 42 179 -17 q 62 193 62 100 q 126 357 62 296 q 355 432 191 419 q 541 460 494 444 q 553 525 553 500 q 528 577 553 556 q 454 598 503 598 q 371 577 401 598 q 330 516 341 555 m 515 336 q 469 327 498 331 q 277 275 322 309 q 245 210 245 251 q 270 152 245 176 q 334 129 294 129 q 417 150 378 129 q 476 205 456 172 q 510 310 495 239 l 515 336 m 365 916 q 403 1009 365 970 q 496 1047 441 1047 q 588 1009 550 1047 q 627 916 627 970 q 588 824 627 862 q 496 785 550 785 q 403 824 441 785 q 365 916 365 862 m 439 916 q 455 876 439 892 q 496 859 472 859 q 536 876 519 859 q 553 916 553 892 q 536 957 553 940 q 496 974 519 974 q 455 957 472 974 q 439 916 439 940 z "},"ç":{"ha":772,"x_min":83,"x_max":784,"o":"m 544 271 l 733 241 q 595 49 686 115 q 382 -17 503 -17 q 164 65 245 -17 q 83 291 83 147 q 132 513 83 408 q 279 677 181 617 q 495 737 378 737 q 699 671 623 737 q 784 496 774 604 l 599 476 q 562 565 592 536 q 483 593 532 593 q 378 551 427 593 q 303 426 329 509 q 277 269 277 342 q 308 170 277 205 q 386 136 339 136 q 476 170 433 136 q 544 271 519 203 m 186 -280 l 219 -201 l 258 -202 q 368 -186 315 -202 q 413 -162 401 -176 q 425 -133 425 -148 q 407 -99 425 -113 q 346 -85 389 -85 q 285 -92 324 -85 l 308 -24 q 397 -12 357 -12 q 510 -45 471 -12 q 548 -124 548 -77 q 488 -223 548 -181 q 252 -283 406 -283 q 186 -280 210 -283 z "},"é":{"ha":772,"x_min":81,"x_max":781,"o":"m 757 300 l 269 300 q 268 282 268 288 q 309 166 268 210 q 409 122 350 122 q 560 222 506 122 l 734 193 q 598 36 684 88 q 408 -17 513 -17 q 172 75 262 -17 q 81 318 81 167 q 163 581 81 466 q 482 737 275 737 q 692 655 614 737 q 770 427 770 574 q 757 300 770 356 m 593 418 q 593 438 593 431 q 557 558 593 518 q 461 598 522 598 q 353 553 401 598 q 288 418 305 507 l 593 418 m 573 1015 l 781 1015 l 561 811 l 431 811 l 573 1015 z "},"è":{"ha":772,"x_min":81,"x_max":770,"o":"m 757 300 l 269 300 q 268 282 268 288 q 309 166 268 210 q 409 122 350 122 q 560 222 506 122 l 734 193 q 598 36 684 88 q 408 -17 513 -17 q 172 75 262 -17 q 81 318 81 167 q 163 581 81 466 q 482 737 275 737 q 692 655 614 737 q 770 427 770 574 q 757 300 770 356 m 593 418 q 593 438 593 431 q 557 558 593 518 q 461 598 522 598 q 353 553 401 598 q 288 418 305 507 l 593 418 m 345 1017 l 532 1017 l 618 814 l 487 814 l 345 1017 z "},"ê":{"ha":772,"x_min":81,"x_max":770,"o":"m 757 300 l 269 300 q 268 282 268 288 q 309 166 268 210 q 409 122 350 122 q 560 222 506 122 l 734 193 q 598 36 684 88 q 408 -17 513 -17 q 172 75 262 -17 q 81 318 81 167 q 163 581 81 466 q 482 737 275 737 q 692 655 614 737 q 770 427 770 574 q 757 300 770 356 m 593 418 q 593 438 593 431 q 557 558 593 518 q 461 598 522 598 q 353 553 401 598 q 288 418 305 507 l 593 418 m 536 932 l 416 812 l 256 812 l 458 1016 l 640 1016 l 722 812 l 588 812 l 536 932 z "},"ë":{"ha":772,"x_min":81,"x_max":770,"o":"m 757 300 l 269 300 q 268 282 268 288 q 309 166 268 210 q 409 122 350 122 q 560 222 506 122 l 734 193 q 598 36 684 88 q 408 -17 513 -17 q 172 75 262 -17 q 81 318 81 167 q 163 581 81 466 q 482 737 275 737 q 692 655 614 737 q 770 427 770 574 q 757 300 770 356 m 593 418 q 593 438 593 431 q 557 558 593 518 q 461 598 522 598 q 353 553 401 598 q 288 418 305 507 l 593 418 m 292 996 l 459 996 l 425 829 l 258 829 l 292 996 m 578 996 l 745 996 l 710 829 l 543 829 l 578 996 z "},"í":{"ha":386,"x_min":56,"x_max":574,"o":"m 206 720 l 401 720 l 250 0 l 56 0 l 206 720 m 366 1015 l 574 1015 l 354 811 l 224 811 l 366 1015 z "},"ì":{"ha":386,"x_min":56,"x_max":482,"o":"m 206 720 l 401 720 l 250 0 l 56 0 l 206 720 m 208 1017 l 395 1017 l 482 814 l 351 814 l 208 1017 z "},"î":{"ha":386,"x_min":56,"x_max":541,"o":"m 206 720 l 401 720 l 250 0 l 56 0 l 206 720 m 355 932 l 235 812 l 75 812 l 277 1016 l 458 1016 l 541 812 l 407 812 l 355 932 z "},"ï":{"ha":386,"x_min":56,"x_max":580,"o":"m 206 720 l 401 720 l 250 0 l 56 0 l 206 720 m 127 996 l 294 996 l 260 829 l 93 829 l 127 996 m 413 996 l 580 996 l 545 829 l 378 829 l 413 996 z "},"ñ":{"ha":848,"x_min":58,"x_max":821,"o":"m 209 720 l 393 720 l 374 627 q 504 712 444 686 q 630 737 564 737 q 770 686 719 737 q 821 551 821 635 q 799 408 821 513 l 714 0 l 519 0 l 605 409 q 624 518 624 500 q 602 577 624 555 q 541 598 580 598 q 446 562 498 598 q 363 467 393 526 q 315 296 342 425 l 253 0 l 58 0 l 209 720 m 412 823 l 326 823 q 370 939 345 905 q 460 986 406 986 q 587 953 496 986 q 659 934 640 934 q 686 944 675 934 q 706 987 696 954 l 793 987 q 742 864 780 903 q 656 824 703 824 q 558 851 625 824 q 473 878 491 878 q 437 866 452 878 q 412 823 422 854 z "},"ó":{"ha":848,"x_min":84,"x_max":832,"o":"m 84 299 q 197 618 84 499 q 494 737 310 737 q 743 649 653 737 q 832 413 832 562 q 720 111 832 238 q 420 -17 608 -17 q 240 24 319 -17 q 123 139 161 64 q 84 299 84 214 m 639 438 q 598 549 639 507 q 494 591 558 591 q 382 552 431 591 q 307 438 334 513 q 279 302 279 364 q 321 179 279 224 q 427 134 363 134 q 562 202 507 134 q 639 438 639 299 m 537 1015 l 745 1015 l 525 811 l 395 811 l 537 1015 z "},"ò":{"ha":848,"x_min":84,"x_max":832,"o":"m 84 299 q 197 618 84 499 q 494 737 310 737 q 743 649 653 737 q 832 413 832 562 q 720 111 832 238 q 420 -17 608 -17 q 240 24 319 -17 q 123 139 161 64 q 84 299 84 214 m 639 438 q 598 549 639 507 q 494 591 558 591 q 382 552 431 591 q 307 438 334 513 q 279 302 279 364 q 321 179 279 224 q 427 134 363 134 q 562 202 507 134 q 639 438 639 299 m 376 1017 l 564 1017 l 650 814 l 519 814 l 376 1017 z "},"ô":{"ha":848,"x_min":84,"x_max":832,"o":"m 84 299 q 197 618 84 499 q 494 737 310 737 q 743 649 653 737 q 832 413 832 562 q 720 111 832 238 q 420 -17 608 -17 q 240 24 319 -17 q 123 139 161 64 q 84 299 84 214 m 639 438 q 598 549 639 507 q 494 591 558 591 q 382 552 431 591 q 307 438 334 513 q 279 302 279 364 q 321 179 279 224 q 427 134 363 134 q 562 202 507 134 q 639 438 639 299 m 568 932 l 448 812 l 288 812 l 490 1016 l 671 1016 l 754 812 l 620 812 l 568 932 z "},"ö":{"ha":848,"x_min":84,"x_max":832,"o":"m 84 299 q 197 618 84 499 q 494 737 310 737 q 743 649 653 737 q 832 413 832 562 q 720 111 832 238 q 420 -17 608 -17 q 240 24 319 -17 q 123 139 161 64 q 84 299 84 214 m 639 438 q 598 549 639 507 q 494 591 558 591 q 382 552 431 591 q 307 438 334 513 q 279 302 279 364 q 321 179 279 224 q 427 134 363 134 q 562 202 507 134 q 639 438 639 299 m 324 996 l 491 996 l 456 829 l 290 829 l 324 996 m 610 996 l 777 996 l 742 829 l 575 829 l 610 996 z "},"õ":{"ha":848,"x_min":84,"x_max":832,"o":"m 84 299 q 197 618 84 499 q 494 737 310 737 q 743 649 653 737 q 832 413 832 562 q 720 111 832 238 q 420 -17 608 -17 q 240 24 319 -17 q 123 139 161 64 q 84 299 84 214 m 639 438 q 598 549 639 507 q 494 591 558 591 q 382 552 431 591 q 307 438 334 513 q 279 302 279 364 q 321 179 279 224 q 427 134 363 134 q 562 202 507 134 q 639 438 639 299 m 384 823 l 298 823 q 342 939 317 905 q 433 986 378 986 q 559 953 468 986 q 631 934 612 934 q 658 944 647 934 q 678 987 669 954 l 765 987 q 714 864 752 903 q 628 824 675 824 q 530 851 597 824 q 445 878 463 878 q 410 866 425 878 q 384 823 395 854 z "},"ú":{"ha":848,"x_min":98,"x_max":860,"o":"m 205 720 l 399 720 l 311 294 q 294 198 294 217 q 317 144 294 167 q 376 122 340 122 q 427 132 402 122 q 479 162 452 142 q 526 208 505 182 q 566 275 547 233 q 593 377 578 307 l 665 720 l 860 720 l 709 0 l 528 0 l 548 98 q 288 -17 429 -17 q 149 34 199 -17 q 98 170 98 85 q 121 319 98 208 l 205 720 m 569 1015 l 777 1015 l 557 811 l 427 811 l 569 1015 z "},"ù":{"ha":848,"x_min":98,"x_max":860,"o":"m 205 720 l 399 720 l 311 294 q 294 198 294 217 q 317 144 294 167 q 376 122 340 122 q 427 132 402 122 q 479 162 452 142 q 526 208 505 182 q 566 275 547 233 q 593 377 578 307 l 665 720 l 860 720 l 709 0 l 528 0 l 548 98 q 288 -17 429 -17 q 149 34 199 -17 q 98 170 98 85 q 121 319 98 208 l 205 720 m 400 1017 l 587 1017 l 674 814 l 543 814 l 400 1017 z "},"û":{"ha":848,"x_min":98,"x_max":860,"o":"m 205 720 l 399 720 l 311 294 q 294 198 294 217 q 317 144 294 167 q 376 122 340 122 q 427 132 402 122 q 479 162 452 142 q 526 208 505 182 q 566 275 547 233 q 593 377 578 307 l 665 720 l 860 720 l 709 0 l 528 0 l 548 98 q 288 -17 429 -17 q 149 34 199 -17 q 98 170 98 85 q 121 319 98 208 l 205 720 m 575 932 l 456 812 l 296 812 l 497 1016 l 679 1016 l 762 812 l 627 812 l 575 932 z "},"ü":{"ha":848,"x_min":98,"x_max":860,"o":"m 205 720 l 399 720 l 311 294 q 294 198 294 217 q 317 144 294 167 q 376 122 340 122 q 427 132 402 122 q 479 162 452 142 q 526 208 505 182 q 566 275 547 233 q 593 377 578 307 l 665 720 l 860 720 l 709 0 l 528 0 l 548 98 q 288 -17 429 -17 q 149 34 199 -17 q 98 170 98 85 q 121 319 98 208 l 205 720 m 364 996 l 531 996 l 496 829 l 330 829 l 364 996 m 650 996 l 817 996 l 782 829 l 615 829 l 650 996 z "},"†":{"ha":772,"x_min":117,"x_max":825,"o":"m 551 563 l 384 -237 l 201 -237 l 368 563 l 117 563 l 149 714 l 399 714 l 455 981 l 638 981 l 583 714 l 825 714 l 793 563 l 551 563 z "},"°":{"ha":555,"x_min":153,"x_max":585,"o":"m 153 795 q 216 948 153 885 q 369 1011 279 1011 q 522 948 458 1011 q 585 795 585 884 q 522 642 585 705 q 369 578 458 578 q 216 642 279 578 q 153 795 153 705 m 265 795 q 296 722 265 752 q 369 691 326 691 q 442 722 412 691 q 473 795 473 752 q 442 868 473 838 q 369 899 412 899 q 296 868 326 899 q 265 795 265 838 z "},"¢":{"ha":772,"x_min":81,"x_max":781,"o":"m 235 12 q 124 117 166 44 q 81 292 81 191 q 133 519 81 414 q 282 681 184 624 q 489 737 380 737 q 532 735 509 737 l 637 991 l 720 958 l 620 715 q 733 630 690 687 q 781 496 777 573 l 610 478 q 564 578 604 543 l 380 130 q 391 130 387 130 q 479 162 437 130 q 551 271 521 195 l 730 243 q 596 51 687 118 q 387 -17 505 -17 q 321 -12 357 -17 l 216 -268 l 134 -235 l 235 12 m 298 165 l 479 606 q 364 555 414 602 q 289 427 314 509 q 264 274 264 345 q 298 165 264 201 z "},"£":{"ha":772,"x_min":28,"x_max":848,"o":"m 226 570 q 214 682 214 629 q 310 917 214 823 q 553 1011 406 1011 q 761 939 682 1011 q 848 743 839 866 l 673 726 q 629 829 662 798 q 546 861 596 861 q 438 809 484 861 q 393 667 393 758 q 404 570 393 633 l 575 570 l 543 418 l 411 418 q 376 282 407 342 q 267 152 345 222 q 368 172 317 172 q 434 165 393 172 q 526 154 492 154 q 681 190 602 154 l 739 24 q 647 -7 680 0 q 557 -17 603 -17 q 398 8 490 -17 q 248 33 307 33 q 49 -25 155 33 l 28 151 q 147 232 96 180 q 219 331 197 284 q 241 418 235 365 l 85 418 l 117 570 l 226 570 z "},"§":{"ha":772,"x_min":30,"x_max":778,"o":"m 30 -59 l 207 -19 q 260 -124 225 -94 q 348 -155 296 -155 q 418 -134 394 -155 q 441 -80 441 -112 q 423 -27 441 -57 q 246 154 404 2 q 128 289 162 234 q 94 406 94 343 q 140 545 94 486 q 276 653 185 604 q 235 783 235 719 q 304 944 235 876 q 508 1011 372 1011 q 697 954 631 1011 q 778 780 764 896 l 602 763 q 571 850 598 823 q 500 877 545 877 q 435 853 459 877 q 411 791 411 829 q 427 736 411 764 q 528 632 444 708 q 707 441 673 502 q 741 320 741 381 q 696 186 741 250 q 564 80 651 123 q 621 -71 621 1 q 548 -229 621 -163 q 344 -294 474 -294 q 133 -229 216 -294 q 30 -59 50 -164 m 353 555 q 281 493 300 522 q 262 431 262 465 q 286 367 262 399 q 402 249 300 347 q 479 175 473 180 q 557 231 527 193 q 577 285 577 254 q 561 339 577 311 q 488 423 545 368 q 353 555 362 545 z "},"•":{"ha":486,"x_min":113,"x_max":513,"o":"m 513 491 q 455 349 513 408 q 313 290 396 290 q 171 349 230 290 q 113 491 113 408 q 171 632 113 574 q 313 691 230 691 q 455 633 396 691 q 513 491 513 574 z "},"¶":{"ha":772,"x_min":61,"x_max":828,"o":"m 493 -273 l 328 -273 l 328 437 q 130 519 199 446 q 61 713 61 593 q 89 844 61 785 q 164 938 117 903 q 275 986 211 972 q 423 994 313 994 l 828 994 l 828 817 l 751 817 l 751 -273 l 591 -273 l 591 817 l 493 817 l 493 -273 z "},"ß":{"ha":848,"x_min":49,"x_max":808,"o":"m 243 0 l 49 0 l 185 652 q 246 850 214 786 q 357 963 278 915 q 557 1011 436 1011 q 745 957 683 1011 q 808 822 808 903 q 791 747 808 783 q 726 653 775 711 q 666 575 677 595 q 655 538 655 554 q 663 504 655 521 q 727 411 677 478 q 792 307 777 344 q 807 227 807 270 q 775 107 807 166 q 686 15 744 47 q 557 -17 629 -17 q 416 20 482 -17 q 309 115 350 57 l 448 193 q 486 154 467 165 q 530 142 505 142 q 589 165 566 142 q 612 223 612 189 q 603 266 612 245 q 558 331 593 286 q 479 447 497 407 q 460 521 460 488 q 476 589 460 552 q 554 708 492 625 q 594 768 586 751 q 602 804 602 786 q 584 849 602 831 q 534 866 566 866 q 431 805 472 866 q 373 621 404 764 l 243 0 z "},"®":{"ha":1023,"x_min":60,"x_max":1099,"o":"m 580 1015 q 836 948 713 1015 q 1029 756 959 881 q 1099 495 1099 631 q 1030 236 1099 359 q 839 44 962 113 q 580 -24 715 -24 q 321 44 444 -24 q 129 236 198 113 q 60 495 60 359 q 131 756 60 631 q 323 948 201 881 q 580 1015 446 1015 m 581 913 q 375 859 473 913 q 220 705 277 806 q 163 495 163 605 q 219 287 163 386 q 373 132 274 188 q 581 77 472 77 q 788 132 690 77 q 943 287 887 188 q 998 495 998 386 q 942 705 998 605 q 786 859 885 806 q 581 913 688 913 m 345 217 l 345 768 l 457 768 q 633 767 614 768 q 720 745 689 762 q 771 692 751 728 q 792 613 792 656 q 753 511 792 553 q 644 458 714 469 q 682 438 669 449 q 720 395 696 427 q 760 328 726 387 l 825 217 l 687 217 l 641 307 q 564 420 594 397 q 486 444 533 444 l 457 444 l 457 217 l 345 217 m 457 530 l 503 530 q 623 538 600 530 q 660 564 646 545 q 673 606 673 583 q 660 647 673 629 q 623 673 647 665 q 503 681 598 681 l 457 681 l 457 530 z "},"©":{"ha":1023,"x_min":60,"x_max":1099,"o":"m 580 1015 q 836 947 713 1015 q 1029 756 959 880 q 1099 495 1099 631 q 1030 236 1099 359 q 839 44 962 113 q 580 -24 715 -24 q 321 44 444 -24 q 129 236 198 113 q 60 495 60 359 q 131 756 60 631 q 323 947 201 880 q 580 1015 446 1015 m 580 912 q 374 859 473 912 q 219 705 275 805 q 163 495 163 605 q 218 288 163 387 q 372 133 273 189 q 580 78 471 78 q 787 133 688 78 q 942 288 886 189 q 997 495 997 387 q 941 705 997 604 q 786 859 884 805 q 580 912 687 912 m 706 418 l 815 381 q 730 250 789 296 q 587 205 670 205 q 398 281 471 205 q 325 490 325 357 q 357 646 325 578 q 451 749 390 715 q 589 783 513 783 q 728 743 672 783 q 815 618 784 703 l 705 592 q 656 664 686 642 q 585 686 626 686 q 484 640 523 686 q 444 494 444 593 q 483 349 444 395 q 576 302 522 302 q 654 329 621 302 q 706 418 688 355 z "},"™":{"ha":1389,"x_min":201,"x_max":1273,"o":"m 372 439 l 372 898 l 201 898 l 201 994 l 652 994 l 652 898 l 485 898 l 485 439 l 372 439 m 719 439 l 719 994 l 895 994 l 996 612 l 1097 994 l 1273 994 l 1273 439 l 1166 439 l 1166 882 l 1046 439 l 944 439 l 825 882 l 825 439 l 719 439 z "},"´":{"ha":463,"x_min":255,"x_max":604,"o":"m 397 1015 l 604 1015 l 385 811 l 255 811 l 397 1015 z "},"¨":{"ha":463,"x_min":117,"x_max":604,"o":"m 152 996 l 319 996 l 284 829 l 117 829 l 152 996 m 437 996 l 604 996 l 570 829 l 403 829 l 437 996 z "},"≠":{"ha":762,"x_min":112,"x_max":807,"o":"m 365 428 l 411 553 l 112 553 l 112 728 l 476 728 l 576 998 l 720 998 l 619 728 l 807 728 l 807 553 l 553 553 l 507 428 l 807 428 l 807 252 l 441 252 l 340 -17 l 199 -17 l 300 252 l 112 252 l 112 428 l 365 428 z "},"Æ":{"ha":1389,"x_min":-45,"x_max":1471,"o":"m 638 249 l 307 249 l 165 0 l -45 0 l 533 994 l 1471 994 l 1436 828 l 949 828 l 902 601 l 1370 601 l 1335 435 l 867 435 l 811 166 l 1337 166 l 1302 0 l 586 0 l 638 249 m 673 415 l 759 828 l 637 828 l 403 415 l 673 415 z "},"Ø":{"ha":1080,"x_min":108,"x_max":1093,"o":"m 210 117 q 116 387 116 230 q 187 699 116 545 q 385 931 258 852 q 671 1011 512 1011 q 904 951 810 1011 l 999 1065 l 1093 987 l 995 870 q 1084 592 1084 762 q 1007 283 1084 431 q 805 60 931 136 q 526 -17 680 -17 q 303 37 392 -17 l 203 -83 l 108 -5 l 210 117 m 343 277 l 781 803 q 655 840 728 840 q 492 784 570 840 q 366 618 413 728 q 319 401 319 508 q 343 277 319 336 m 858 705 l 425 184 q 548 147 482 147 q 704 201 628 147 q 832 367 781 256 q 884 592 884 478 q 858 705 884 647 z "},"∞":{"ha":990,"x_min":157,"x_max":943,"o":"m 516 572 q 618 690 566 654 q 735 726 671 726 q 884 663 825 726 q 943 490 943 600 q 884 316 943 380 q 735 253 825 253 q 619 289 671 253 q 516 408 567 325 q 422 321 475 351 q 321 291 370 291 q 205 344 253 291 q 157 490 157 397 q 205 635 157 582 q 321 688 253 688 q 422 658 370 688 q 516 572 475 628 m 579 491 q 659 384 636 404 q 737 353 695 353 q 817 393 789 353 q 844 492 844 433 q 814 591 844 556 q 739 627 783 627 q 670 602 705 627 q 579 491 635 578 m 458 492 q 329 588 390 588 q 275 563 298 588 q 252 493 252 538 q 275 421 252 447 q 329 395 297 395 q 376 410 355 395 q 458 492 413 434 z "},"±":{"ha":762,"x_min":88,"x_max":783,"o":"m 349 241 l 349 500 l 88 500 l 88 678 l 349 678 l 349 937 l 522 937 l 522 678 l 783 678 l 783 500 l 522 500 l 522 241 l 349 241 m 88 0 l 88 178 l 783 178 l 783 0 l 88 0 z "},"≤":{"ha":762,"x_min":88,"x_max":770,"o":"m 770 228 l 88 524 l 88 688 l 770 983 l 770 790 l 294 608 l 770 419 l 770 228 m 88 0 l 88 178 l 770 178 l 770 0 l 88 0 z "},"≥":{"ha":762,"x_min":88,"x_max":770,"o":"m 88 229 l 88 420 l 564 608 l 88 793 l 88 983 l 770 689 l 770 526 l 88 229 m 88 0 l 88 178 l 770 178 l 770 0 l 88 0 z "},"¥":{"ha":772,"x_min":33,"x_max":926,"o":"m 439 0 l 247 0 l 286 189 l 33 189 l 60 319 l 313 319 l 332 406 l 79 406 l 106 536 l 290 536 l 152 994 l 350 994 l 398 819 q 452 569 416 750 q 618 862 534 732 l 704 994 l 926 994 l 612 536 l 801 536 l 774 406 l 524 406 l 506 319 l 755 319 l 728 189 l 479 189 l 439 0 z "},"µ":{"ha":800,"x_min":-52,"x_max":812,"o":"m 159 720 l 354 720 l 285 387 l 267 305 q 263 252 263 277 q 295 162 263 196 q 374 128 328 128 q 470 171 428 128 q 540 343 512 213 l 619 720 l 812 720 l 660 0 l 486 0 l 500 67 q 418 -2 447 12 q 355 -17 389 -17 q 278 4 310 -17 q 218 77 247 25 l 143 -279 l -52 -279 l 159 720 z "},"∂":{"ha":686,"x_min":71,"x_max":703,"o":"m 298 762 l 205 819 q 307 963 240 915 q 456 1011 374 1011 q 614 943 554 1011 q 703 640 703 845 q 647 296 703 463 q 491 57 591 130 q 281 -17 391 -17 q 129 45 188 -17 q 71 223 71 108 q 130 429 71 330 q 310 585 189 527 q 601 639 431 642 q 551 840 600 774 q 452 888 514 888 q 371 861 406 888 q 298 762 336 834 m 593 514 q 563 515 573 515 q 390 477 470 515 q 268 370 309 439 q 226 229 226 300 q 254 144 226 176 q 321 112 283 112 q 469 190 402 112 q 593 514 564 302 z "},"∑":{"ha":990,"x_min":137,"x_max":994,"o":"m 149 1011 l 987 1011 l 987 900 l 317 900 l 729 374 l 289 -183 l 994 -183 l 994 -292 l 137 -292 l 137 -165 l 557 369 l 149 892 l 149 1011 z "},"∏":{"ha":1143,"x_min":109,"x_max":1033,"o":"m 109 1011 l 1033 1011 l 1033 -292 l 903 -292 l 903 893 l 240 893 l 240 -292 l 109 -292 l 109 1011 z "},"∫":{"ha":380,"x_min":0,"x_max":380,"o":"m 136 643 q 152 1048 149 1017 q 207 1219 168 1175 q 295 1263 245 1263 q 354 1241 329 1263 q 380 1191 380 1218 q 362 1140 380 1159 q 317 1120 344 1120 q 266 1145 294 1120 q 239 1158 250 1158 q 219 1148 227 1158 q 212 1115 212 1139 q 218 1017 212 1086 q 243 566 243 739 q 232 167 243 520 q 171 -104 227 -33 q 80 -149 134 -149 q 22 -126 45 -149 q 0 -67 0 -103 q 17 -18 0 -37 q 61 0 35 0 q 108 -22 88 0 q 141 -43 127 -43 q 160 -34 153 -43 q 168 -2 168 -24 q 161 79 168 26 q 136 643 136 293 z "},"ª":{"ha":514,"x_min":114,"x_max":572,"o":"m 290 850 l 159 867 q 245 974 188 937 q 388 1011 302 1011 q 528 973 483 1011 q 572 877 572 935 q 544 721 572 829 q 516 585 516 613 q 530 515 516 549 l 400 515 q 393 547 395 530 q 259 504 331 504 q 153 543 193 504 q 114 642 114 582 q 145 733 114 696 q 239 786 177 770 q 431 811 278 795 q 441 866 441 847 q 427 894 441 883 q 381 905 412 905 q 290 850 320 905 m 401 715 q 269 687 291 702 q 247 647 247 671 q 261 615 247 628 q 299 602 275 602 q 361 625 336 602 q 401 715 386 648 z "},"º":{"ha":507,"x_min":100,"x_max":576,"o":"m 100 712 q 172 920 100 828 q 361 1011 243 1011 q 516 952 457 1011 q 576 803 576 894 q 543 662 576 738 q 449 545 510 586 q 311 503 389 503 q 158 561 216 503 q 100 712 100 619 m 237 696 q 258 639 237 660 q 311 618 278 618 q 402 684 367 618 q 437 820 437 750 q 417 877 437 857 q 364 898 397 898 q 273 833 309 898 q 237 696 237 769 z "},"Ω":{"ha":1067,"x_min":92,"x_max":1092,"o":"m 368 140 q 242 216 289 173 q 140 362 174 277 q 106 550 106 448 q 236 890 106 760 q 581 1019 366 1019 q 845 966 739 1019 q 1015 800 951 912 q 1078 551 1078 688 q 1015 307 1078 414 q 819 141 951 199 l 1043 157 l 1092 157 l 1092 0 l 656 0 l 656 165 q 760 236 722 197 q 838 368 812 290 q 864 532 864 446 q 786 785 864 699 q 588 871 709 871 q 395 783 473 871 q 317 535 317 695 q 347 363 317 443 q 431 229 376 284 q 529 165 467 194 l 529 0 l 92 0 l 92 156 l 158 156 l 368 140 z "},"æ":{"ha":1235,"x_min":43,"x_max":1202,"o":"m 1190 298 l 693 298 q 739 174 696 220 q 843 129 782 129 q 993 222 941 129 l 1168 195 q 836 -17 1051 -17 q 567 151 644 -17 q 269 -17 442 -17 q 104 42 165 -17 q 43 194 43 100 q 82 328 43 275 q 180 402 121 382 q 350 433 239 423 q 534 462 494 446 q 540 500 540 484 q 513 573 540 549 q 431 598 487 598 q 352 578 380 598 q 309 514 323 559 l 122 533 q 230 680 148 623 q 446 737 313 737 q 603 709 544 737 q 671 647 645 688 q 910 737 764 737 q 1122 655 1042 737 q 1202 429 1202 573 q 1190 298 1202 363 m 1025 417 q 1026 439 1026 431 q 990 557 1026 517 q 895 598 954 598 q 780 552 831 598 q 709 417 728 506 l 1025 417 m 509 340 q 255 277 315 319 q 218 212 218 252 q 243 155 218 178 q 311 131 269 131 q 424 179 374 131 q 509 340 490 241 z "},"ø":{"ha":848,"x_min":73,"x_max":839,"o":"m 680 696 l 764 793 l 839 730 l 756 633 q 830 412 830 549 q 718 111 830 238 q 419 -17 606 -17 q 233 26 313 -17 l 146 -73 l 73 -7 l 156 88 q 82 308 82 176 q 168 583 82 463 q 492 737 277 737 q 680 696 604 737 m 574 573 q 489 596 537 596 q 413 579 447 596 q 347 524 379 562 q 294 433 315 486 q 264 288 264 358 q 274 225 264 256 l 574 573 m 635 494 l 336 146 q 420 125 373 125 q 535 165 484 125 q 617 283 587 205 q 647 428 647 361 q 635 494 647 459 z "},"¿":{"ha":848,"x_min":37,"x_max":725,"o":"m 616 532 l 424 532 l 463 720 l 656 720 l 616 532 m 421 472 l 596 472 q 539 314 583 381 q 367 135 496 248 q 238 9 258 40 q 219 -50 219 -22 q 252 -120 219 -92 q 354 -148 286 -148 q 478 -106 430 -148 q 547 25 526 -65 l 725 -6 q 592 -214 691 -138 q 351 -291 492 -291 q 120 -217 203 -291 q 37 -42 37 -144 q 73 77 37 18 q 266 268 108 136 q 388 383 365 351 q 421 472 411 416 z "},"¡":{"ha":463,"x_min":16,"x_max":423,"o":"m 384 532 l 191 532 l 231 720 l 423 720 l 384 532 m 225 467 l 332 467 l 270 -41 l 221 -274 l 16 -274 l 68 -23 l 225 467 z "},"¬":{"ha":811,"x_min":112,"x_max":807,"o":"m 633 255 l 633 554 l 112 554 l 112 728 l 807 728 l 807 255 l 633 255 z "},"√":{"ha":762,"x_min":57,"x_max":762,"o":"m 712 1267 l 762 1267 l 551 -53 l 214 640 l 80 578 l 57 621 l 261 724 l 536 165 l 712 1267 z "},"ƒ":{"ha":772,"x_min":-14,"x_max":774,"o":"m 187 577 l 212 720 l 349 720 l 359 781 q 392 913 378 884 q 452 981 414 958 q 593 1011 502 1011 q 774 983 685 1011 l 738 830 q 631 849 674 849 q 576 833 594 849 q 547 758 559 817 l 540 720 l 681 720 l 656 577 l 517 577 l 399 -86 q 364 -206 386 -167 q 298 -269 342 -245 q 176 -292 254 -292 q -14 -265 71 -292 l 25 -115 q 138 -131 99 -131 q 197 -105 180 -131 q 222 -15 211 -85 l 324 577 l 187 577 z "},"≈":{"ha":762,"x_min":75,"x_max":795,"o":"m 75 516 l 75 691 q 276 785 161 785 q 355 776 319 785 q 467 737 391 768 q 568 699 544 706 q 610 692 593 692 q 698 716 648 692 q 795 791 748 739 l 795 608 q 708 546 764 575 q 593 517 652 517 q 527 526 559 517 q 425 564 494 534 q 260 610 320 610 q 75 516 165 610 m 75 187 l 75 363 q 276 456 161 456 q 355 447 319 456 q 467 408 391 439 q 568 371 544 378 q 610 364 593 364 q 698 388 648 364 q 795 462 748 411 l 795 279 q 708 217 764 246 q 593 189 652 189 q 527 197 559 189 q 425 236 494 205 q 260 281 320 281 q 75 187 165 281 z "},"∆":{"ha":850,"x_min":58,"x_max":872,"o":"m 872 0 l 58 0 l 484 941 l 872 0 m 712 56 l 441 711 l 143 56 l 712 56 z "},"«":{"ha":772,"x_min":114,"x_max":821,"o":"m 391 375 l 655 663 l 821 663 l 581 360 l 667 48 l 527 48 l 391 375 m 114 374 l 393 663 l 557 663 l 312 361 l 401 48 l 265 48 l 114 374 z "},"»":{"ha":772,"x_min":31,"x_max":738,"o":"m 460 336 l 197 48 l 31 48 l 271 351 l 185 663 l 325 663 l 460 336 m 738 337 l 458 48 l 295 48 l 540 350 l 450 663 l 587 663 l 738 337 z "},"…":{"ha":1389,"x_min":129,"x_max":1260,"o":"m 168 188 l 361 188 l 321 0 l 129 0 l 168 188 m 618 188 l 810 188 l 771 0 l 578 0 l 618 188 m 1068 188 l 1260 188 l 1221 0 l 1029 0 l 1068 188 z "},"À":{"ha":1003,"x_min":-16,"x_max":935,"o":"m 708 220 l 314 220 l 195 0 l -16 0 l 547 994 l 774 994 l 935 0 l 741 0 l 708 220 m 683 385 l 625 785 l 385 385 l 683 385 m 514 1257 l 701 1257 l 788 1055 l 656 1055 l 514 1257 z "},"Ã":{"ha":1003,"x_min":-16,"x_max":935,"o":"m 708 220 l 314 220 l 195 0 l -16 0 l 547 994 l 774 994 l 935 0 l 741 0 l 708 220 m 683 385 l 625 785 l 385 385 l 683 385 m 518 1050 l 433 1050 q 476 1166 451 1133 q 567 1213 513 1213 q 693 1180 602 1213 q 766 1161 746 1161 q 792 1171 781 1161 q 812 1214 803 1181 l 899 1214 q 848 1091 886 1131 q 762 1051 810 1051 q 665 1078 732 1051 q 579 1105 597 1105 q 544 1094 559 1105 q 518 1050 529 1082 z "},"Õ":{"ha":1080,"x_min":121,"x_max":1089,"o":"m 121 390 q 148 576 121 478 q 253 803 182 707 q 432 955 324 899 q 677 1011 540 1011 q 976 897 862 1011 q 1089 593 1089 782 q 1015 288 1089 435 q 814 62 941 141 q 528 -18 688 -18 q 294 45 389 -18 q 161 202 200 109 q 121 390 121 295 m 323 394 q 386 222 323 292 q 550 153 448 153 q 709 208 633 153 q 835 373 785 262 q 885 589 885 484 q 822 773 885 707 q 661 840 759 840 q 417 701 511 840 q 323 394 323 561 m 543 1050 l 457 1050 q 500 1166 475 1133 q 591 1213 537 1213 q 718 1180 627 1213 q 790 1161 770 1161 q 817 1171 806 1161 q 837 1214 827 1181 l 924 1214 q 872 1091 911 1131 q 787 1051 834 1051 q 689 1078 756 1051 q 604 1105 622 1105 q 568 1094 583 1105 q 543 1050 553 1082 z "},"Œ":{"ha":1389,"x_min":96,"x_max":1498,"o":"m 852 994 l 1498 994 l 1463 828 l 1011 828 l 965 606 l 1404 606 l 1369 440 l 930 440 l 873 166 l 1371 166 l 1336 0 l 644 0 l 661 80 q 567 6 617 30 q 445 -17 516 -17 q 196 91 296 -17 q 96 389 96 199 q 163 714 96 564 q 351 938 231 864 q 590 1011 471 1011 q 732 977 668 1011 q 828 883 795 943 l 852 994 m 279 367 q 335 206 279 264 q 480 148 391 148 q 593 178 545 148 q 674 263 642 208 q 731 422 706 317 q 766 654 766 566 q 716 795 766 743 q 586 847 666 847 q 430 785 500 847 q 314 587 359 724 q 279 367 279 477 z "},"œ":{"ha":1311,"x_min":81,"x_max":1311,"o":"m 1294 298 l 808 298 q 848 168 807 214 q 948 122 888 122 q 1101 223 1048 122 l 1274 193 q 947 -17 1158 -17 q 696 91 787 -17 q 573 10 642 37 q 418 -17 504 -17 q 240 22 317 -17 q 121 139 162 62 q 81 307 81 216 q 129 520 81 418 q 270 680 177 623 q 499 737 363 737 q 642 712 578 737 q 752 637 705 687 q 1017 737 868 737 q 1232 655 1154 737 q 1311 425 1311 574 q 1294 298 1311 354 m 1131 418 q 1132 441 1132 431 q 1096 559 1132 519 q 1002 598 1061 598 q 897 556 943 598 q 828 418 852 515 l 1131 418 m 275 281 q 316 174 275 216 q 420 132 357 132 q 574 221 517 132 q 631 421 631 311 q 590 547 631 503 q 486 591 549 591 q 351 525 404 591 q 275 281 275 428 z "},"–":{"ha":772,"x_min":-3,"x_max":770,"o":"m -3 289 l -3 431 l 770 431 l 770 289 l -3 289 z "},"—":{"ha":1389,"x_min":0,"x_max":1389,"o":"m 0 289 l 0 431 l 1389 431 l 1389 289 l 0 289 z "},"“":{"ha":694,"x_min":174,"x_max":782,"o":"m 697 602 l 501 602 l 533 757 q 623 948 562 892 q 782 1006 684 1004 l 763 916 q 688 876 714 904 q 647 789 661 848 l 736 789 l 697 602 m 370 602 l 174 602 l 206 757 q 296 948 235 892 q 454 1006 357 1004 l 435 916 q 360 876 387 904 q 320 789 334 848 l 410 789 l 370 602 z "},"”":{"ha":694,"x_min":178,"x_max":787,"o":"m 263 994 l 459 994 l 427 839 q 337 648 399 704 q 178 590 276 592 l 197 680 q 273 719 246 691 q 313 806 299 747 l 223 806 l 263 994 m 590 994 l 787 994 l 754 839 q 664 648 726 704 q 506 590 603 592 l 524 680 q 600 719 573 691 q 640 806 627 747 l 551 806 l 590 994 z "},"‘":{"ha":386,"x_min":151,"x_max":432,"o":"m 348 602 l 151 602 l 184 757 q 273 948 212 892 q 432 1006 334 1004 l 413 916 q 338 876 364 904 q 298 789 311 848 l 387 789 l 348 602 z "},"’":{"ha":386,"x_min":172,"x_max":452,"o":"m 256 994 l 452 994 l 420 839 q 331 648 392 704 q 172 590 269 592 l 191 680 q 266 719 239 691 q 306 806 292 747 l 216 806 l 256 994 z "},"÷":{"ha":762,"x_min":88,"x_max":783,"o":"m 340 665 l 340 856 l 531 856 l 531 665 l 340 665 m 88 401 l 88 580 l 783 580 l 783 401 l 88 401 m 340 125 l 340 316 l 531 316 l 531 125 l 340 125 z "},"◊":{"ha":686,"x_min":93,"x_max":717,"o":"m 433 964 l 717 481 l 433 0 l 358 0 l 93 481 l 358 964 l 433 964 m 397 899 l 166 481 l 397 64 l 640 481 l 397 899 z "},"ÿ":{"ha":772,"x_min":9,"x_max":862,"o":"m 116 720 l 310 720 l 359 361 q 379 168 377 223 q 484 401 417 278 l 656 720 l 862 720 l 417 -71 q 331 -208 362 -169 q 255 -270 299 -248 q 148 -292 210 -292 q 9 -271 86 -292 l 26 -125 q 94 -136 61 -136 q 241 0 184 -136 l 116 720 m 304 996 l 471 996 l 436 829 l 269 829 l 304 996 m 589 996 l 756 996 l 722 829 l 555 829 l 589 996 z "},"Ÿ":{"ha":926,"x_min":159,"x_max":1090,"o":"m 557 0 l 353 0 l 433 387 l 159 994 l 377 994 l 500 713 q 559 568 545 612 q 618 661 585 612 l 712 793 l 852 994 l 1090 994 l 634 368 l 557 0 m 431 1217 l 598 1217 l 564 1050 l 397 1050 l 431 1217 m 717 1217 l 884 1217 l 849 1050 l 682 1050 l 717 1217 z "},"⁄":{"ha":232,"x_min":-345,"x_max":683,"o":"m -227 -41 l -345 -41 l 565 1006 l 683 1006 l -227 -41 z "},"€":{"ha":772,"x_min":37,"x_max":888,"o":"m 888 948 l 813 764 q 653 835 762 835 q 385 648 471 835 l 722 648 l 702 543 l 352 543 q 338 454 347 522 l 685 454 l 665 349 l 334 349 q 396 211 338 269 q 533 154 453 154 q 743 222 653 154 l 698 16 q 519 -18 609 -18 q 239 87 339 -18 q 132 349 147 184 l 37 349 l 58 454 l 134 454 q 144 543 137 486 l 37 543 l 58 648 l 168 648 q 354 911 222 809 q 657 1011 482 1011 q 888 948 794 1011 z "},"‹":{"ha":463,"x_min":83,"x_max":526,"o":"m 83 374 l 362 663 l 526 663 l 281 361 l 370 48 l 234 48 l 83 374 z "},"›":{"ha":463,"x_min":14,"x_max":443,"o":"m 443 336 l 179 48 l 14 48 l 253 351 l 168 663 l 307 663 l 443 336 z "},"ﬁ":{"ha":848,"x_min":81,"x_max":920,"o":"m 564 720 l 534 578 l 396 578 l 275 0 l 81 0 l 201 578 l 93 578 l 123 720 l 231 720 l 247 794 q 283 917 266 885 q 352 986 306 960 q 471 1011 398 1011 q 660 979 561 1011 l 622 840 q 509 863 552 863 q 459 842 475 863 q 437 771 449 829 l 426 720 l 564 720 m 725 994 l 920 994 l 883 818 l 688 818 l 725 994 m 668 720 l 863 720 l 712 0 l 517 0 l 668 720 z "},"ﬂ":{"ha":848,"x_min":79,"x_max":918,"o":"m 562 720 l 532 578 l 394 578 l 273 0 l 79 0 l 199 578 l 91 578 l 121 720 l 229 720 l 245 794 q 281 917 264 885 q 350 986 304 960 q 469 1011 395 1011 q 658 979 559 1011 l 620 840 q 507 863 550 863 q 457 842 473 863 q 435 771 446 829 l 424 720 l 562 720 m 515 0 l 724 994 l 918 994 l 710 0 l 515 0 z "},"‡":{"ha":772,"x_min":-1,"x_max":833,"o":"m 559 597 l 465 146 l 707 146 l 675 -5 l 433 -5 l 385 -237 l 201 -237 l 250 -5 l -1 -5 l 31 146 l 281 146 l 376 597 l 125 597 l 156 748 l 408 748 l 456 981 l 640 981 l 591 748 l 833 748 l 802 597 l 559 597 z "},"∙":{"ha":386,"x_min":100,"x_max":290,"o":"m 100 389 l 100 579 l 290 579 l 290 389 l 100 389 z "},"‚":{"ha":386,"x_min":14,"x_max":295,"o":"m 99 188 l 295 188 l 262 33 q 173 -158 235 -102 q 14 -216 112 -214 l 33 -125 q 109 -86 82 -115 q 149 0 136 -58 l 59 0 l 99 188 z "},"„":{"ha":694,"x_min":5,"x_max":613,"o":"m 90 188 l 286 188 l 253 33 q 164 -158 225 -102 q 5 -216 102 -214 l 24 -125 q 99 -86 73 -115 q 139 0 126 -58 l 50 0 l 90 188 m 416 188 l 613 188 l 581 33 q 491 -158 552 -102 q 332 -216 429 -214 l 351 -125 q 426 -86 399 -115 q 467 0 453 -58 l 377 0 l 416 188 z "},"‰":{"ha":1389,"x_min":94,"x_max":1419,"o":"m 94 681 q 113 794 94 724 q 164 913 131 863 q 239 987 198 963 q 336 1011 281 1011 q 461 962 414 1011 q 507 824 507 912 q 474 665 507 753 q 381 533 440 576 q 256 490 323 490 q 140 538 185 490 q 94 681 94 587 m 220 672 q 233 620 220 634 q 266 605 245 605 q 309 625 290 605 q 354 722 334 651 q 375 838 375 793 q 361 881 375 865 q 328 896 347 896 q 286 874 305 896 q 239 774 258 844 q 220 672 220 705 m 264 -39 l 130 -39 l 772 1011 l 911 1011 l 264 -39 m 538 155 q 556 268 538 199 q 608 388 574 338 q 683 461 642 437 q 780 486 724 486 q 904 436 857 486 q 951 298 951 387 q 917 139 951 227 q 825 7 884 51 q 700 -36 766 -36 q 583 13 628 -36 q 538 155 538 62 m 663 146 q 675 94 663 109 q 709 79 688 79 q 752 99 734 79 q 798 197 777 125 q 818 312 818 268 q 804 355 818 340 q 771 370 791 370 q 729 349 749 370 q 683 249 702 318 q 663 146 663 179 m 1006 155 q 1024 268 1006 199 q 1076 388 1042 338 q 1151 461 1109 437 q 1248 486 1192 486 q 1372 436 1325 486 q 1419 298 1419 387 q 1385 139 1419 228 q 1293 7 1352 51 q 1168 -36 1234 -36 q 1051 13 1096 -36 q 1006 155 1006 62 m 1131 146 q 1144 94 1131 109 q 1177 79 1156 79 q 1220 99 1202 79 q 1266 197 1245 125 q 1286 312 1286 268 q 1273 355 1286 340 q 1239 370 1259 370 q 1197 349 1217 370 q 1151 249 1170 318 q 1131 146 1131 179 z "},"Â":{"ha":1003,"x_min":-16,"x_max":935,"o":"m 708 220 l 314 220 l 195 0 l -16 0 l 547 994 l 774 994 l 935 0 l 741 0 l 708 220 m 683 385 l 625 785 l 385 385 l 683 385 m 686 1174 l 566 1053 l 406 1053 l 608 1257 l 789 1257 l 872 1053 l 738 1053 l 686 1174 z "},"Ê":{"ha":926,"x_min":57,"x_max":1002,"o":"m 57 0 l 264 994 l 1002 994 l 967 828 l 435 828 l 387 602 l 902 602 l 867 436 l 353 436 l 290 166 l 869 166 l 833 0 l 57 0 m 663 1174 l 544 1053 l 384 1053 l 585 1257 l 767 1257 l 850 1053 l 715 1053 l 663 1174 z "},"Á":{"ha":1003,"x_min":-16,"x_max":953,"o":"m 708 220 l 314 220 l 195 0 l -16 0 l 547 994 l 774 994 l 935 0 l 741 0 l 708 220 m 683 385 l 625 785 l 385 385 l 683 385 m 745 1255 l 953 1255 l 733 1052 l 604 1052 l 745 1255 z "},"Ë":{"ha":926,"x_min":57,"x_max":1002,"o":"m 57 0 l 264 994 l 1002 994 l 967 828 l 435 828 l 387 602 l 902 602 l 867 436 l 353 436 l 290 166 l 869 166 l 833 0 l 57 0 m 460 1217 l 627 1217 l 593 1050 l 426 1050 l 460 1217 m 746 1217 l 913 1217 l 878 1050 l 711 1050 l 746 1217 z "},"È":{"ha":926,"x_min":57,"x_max":1002,"o":"m 57 0 l 264 994 l 1002 994 l 967 828 l 435 828 l 387 602 l 902 602 l 867 436 l 353 436 l 290 166 l 869 166 l 833 0 l 57 0 m 530 1257 l 717 1257 l 804 1055 l 672 1055 l 530 1257 z "},"Í":{"ha":386,"x_min":48,"x_max":627,"o":"m 48 0 l 256 994 l 460 994 l 253 0 l 48 0 m 419 1255 l 627 1255 l 407 1052 l 277 1052 l 419 1255 z "},"Î":{"ha":386,"x_min":48,"x_max":592,"o":"m 48 0 l 256 994 l 460 994 l 253 0 l 48 0 m 406 1174 l 286 1053 l 126 1053 l 328 1257 l 509 1257 l 592 1053 l 458 1053 l 406 1174 z "},"Ï":{"ha":386,"x_min":48,"x_max":629,"o":"m 48 0 l 256 994 l 460 994 l 253 0 l 48 0 m 176 1217 l 343 1217 l 309 1050 l 142 1050 l 176 1217 m 462 1217 l 629 1217 l 594 1050 l 427 1050 l 462 1217 z "},"Ì":{"ha":386,"x_min":48,"x_max":532,"o":"m 48 0 l 256 994 l 460 994 l 253 0 l 48 0 m 258 1257 l 445 1257 l 532 1055 l 400 1055 l 258 1257 z "},"Ó":{"ha":1080,"x_min":121,"x_max":1089,"o":"m 121 390 q 148 576 121 478 q 253 803 182 707 q 432 955 324 899 q 677 1011 540 1011 q 976 897 862 1011 q 1089 593 1089 782 q 1015 288 1089 435 q 814 62 941 141 q 528 -18 688 -18 q 294 45 389 -18 q 161 202 200 109 q 121 390 121 295 m 323 394 q 386 222 323 292 q 550 153 448 153 q 709 208 633 153 q 835 373 785 262 q 885 589 885 484 q 822 773 885 707 q 661 840 759 840 q 417 701 511 840 q 323 394 323 561 m 786 1255 l 994 1255 l 774 1052 l 644 1052 l 786 1255 z "},"Ô":{"ha":1080,"x_min":121,"x_max":1089,"o":"m 121 390 q 148 576 121 478 q 253 803 182 707 q 432 955 324 899 q 677 1011 540 1011 q 976 897 862 1011 q 1089 593 1089 782 q 1015 288 1089 435 q 814 62 941 141 q 528 -18 688 -18 q 294 45 389 -18 q 161 202 200 109 q 121 390 121 295 m 323 394 q 386 222 323 292 q 550 153 448 153 q 709 208 633 153 q 835 373 785 262 q 885 589 885 484 q 822 773 885 707 q 661 840 759 840 q 417 701 511 840 q 323 394 323 561 m 741 1174 l 622 1053 l 462 1053 l 663 1257 l 845 1257 l 928 1053 l 793 1053 l 741 1174 z "},"Ò":{"ha":1080,"x_min":121,"x_max":1089,"o":"m 121 390 q 148 576 121 478 q 253 803 182 707 q 432 955 324 899 q 677 1011 540 1011 q 976 897 862 1011 q 1089 593 1089 782 q 1015 288 1089 435 q 814 62 941 141 q 528 -18 688 -18 q 294 45 389 -18 q 161 202 200 109 q 121 390 121 295 m 323 394 q 386 222 323 292 q 550 153 448 153 q 709 208 633 153 q 835 373 785 262 q 885 589 885 484 q 822 773 885 707 q 661 840 759 840 q 417 701 511 840 q 323 394 323 561 m 523 1257 l 710 1257 l 797 1055 l 665 1055 l 523 1257 z "},"Ú":{"ha":1003,"x_min":127,"x_max":1063,"o":"m 265 994 l 469 994 l 357 454 l 329 321 q 326 290 326 304 q 369 192 326 231 q 494 154 412 154 q 616 182 568 154 q 691 264 665 210 q 745 451 718 319 l 859 994 l 1063 994 l 949 450 q 867 188 913 279 q 725 40 820 97 q 485 -17 630 -17 q 219 68 311 -17 q 127 287 127 153 q 132 347 127 315 q 155 471 134 369 l 265 994 m 680 1255 l 887 1255 l 667 1052 l 538 1052 l 680 1255 z "},"Û":{"ha":1003,"x_min":127,"x_max":1063,"o":"m 265 994 l 469 994 l 357 454 l 329 321 q 326 290 326 304 q 369 192 326 231 q 494 154 412 154 q 616 182 568 154 q 691 264 665 210 q 745 451 718 319 l 859 994 l 1063 994 l 949 450 q 867 188 913 279 q 725 40 820 97 q 485 -17 630 -17 q 219 68 311 -17 q 127 287 127 153 q 132 347 127 315 q 155 471 134 369 l 265 994 m 690 1174 l 570 1053 l 410 1053 l 612 1257 l 793 1257 l 876 1053 l 742 1053 l 690 1174 z "},"Ù":{"ha":1003,"x_min":127,"x_max":1063,"o":"m 265 994 l 469 994 l 357 454 l 329 321 q 326 290 326 304 q 369 192 326 231 q 494 154 412 154 q 616 182 568 154 q 691 264 665 210 q 745 451 718 319 l 859 994 l 1063 994 l 949 450 q 867 188 913 279 q 725 40 820 97 q 485 -17 630 -17 q 219 68 311 -17 q 127 287 127 153 q 132 347 127 315 q 155 471 134 369 l 265 994 m 500 1257 l 687 1257 l 774 1055 l 642 1055 l 500 1257 z "},"ı":{"ha":386,"x_min":56,"x_max":401,"o":"m 206 720 l 401 720 l 250 0 l 56 0 l 206 720 z "},"ˆ":{"ha":463,"x_min":78,"x_max":544,"o":"m 357 932 l 238 812 l 78 812 l 279 1016 l 461 1016 l 544 812 l 410 812 l 357 932 z "},"˜":{"ha":463,"x_min":129,"x_max":595,"o":"m 214 823 l 129 823 q 172 939 147 905 q 263 986 209 986 q 389 953 298 986 q 462 934 442 934 q 488 944 477 934 q 509 987 499 954 l 595 987 q 544 864 583 903 q 458 824 506 824 q 361 851 428 824 q 275 878 294 878 q 240 866 255 878 q 214 823 225 854 z "},"ˉ":{"ha":463,"x_min":118,"x_max":579,"o":"m 145 968 l 579 968 l 552 837 l 118 837 l 145 968 z "},"˘":{"ha":463,"x_min":117,"x_max":543,"o":"m 117 1009 l 212 1009 q 253 932 227 954 q 319 911 279 911 q 453 1009 400 911 l 543 1009 q 452 864 515 916 q 313 812 390 812 q 182 862 234 812 q 117 1009 131 911 z "},"˙":{"ha":463,"x_min":227,"x_max":458,"o":"m 264 1010 l 458 1010 l 421 832 l 227 832 l 264 1010 z "},"˚":{"ha":463,"x_min":209,"x_max":471,"o":"m 209 916 q 247 1009 209 970 q 340 1047 286 1047 q 432 1009 394 1047 q 471 916 471 970 q 432 824 471 862 q 340 785 394 785 q 247 824 286 785 q 209 916 209 862 m 283 916 q 299 876 283 892 q 340 859 316 859 q 380 876 363 859 q 397 916 397 892 q 380 957 397 940 q 340 974 363 974 q 299 957 316 974 q 283 916 283 940 z "},"¸":{"ha":463,"x_min":9,"x_max":371,"o":"m 9 -286 l 42 -207 l 81 -208 q 191 -191 138 -208 q 236 -167 224 -181 q 248 -138 248 -153 q 230 -105 248 -119 q 169 -91 212 -91 q 108 -97 147 -91 l 131 -30 q 220 -18 180 -18 q 333 -50 294 -18 q 371 -130 371 -83 q 311 -229 371 -186 q 75 -288 229 -288 q 9 -286 33 -288 z "},"˝":{"ha":463,"x_min":46,"x_max":648,"o":"m 451 1011 l 648 1011 l 425 810 l 313 810 l 451 1011 m 180 1011 l 382 1011 l 154 810 l 46 810 l 180 1011 z "},"˛":{"ha":463,"x_min":33,"x_max":290,"o":"m 290 -146 l 266 -259 q 157 -286 203 -286 q 54 -248 85 -286 q 33 -186 33 -223 q 77 -75 33 -133 q 157 0 109 -33 l 270 0 q 218 -49 241 -19 q 189 -121 189 -90 q 231 -159 189 -159 q 259 -154 242 -159 l 290 -146 z "},"ˇ":{"ha":463,"x_min":152,"x_max":618,"o":"m 338 895 l 458 1016 l 618 1016 l 416 812 l 235 812 l 152 1016 l 286 1016 l 338 895 z "},"Ł":{"ha":848,"x_min":20,"x_max":813,"o":"m 180 533 l 276 994 l 481 994 l 411 659 l 663 796 l 630 637 l 377 498 l 308 166 l 813 166 l 779 0 l 68 0 l 146 373 l 20 304 l 54 465 l 180 533 z "},"ł":{"ha":386,"x_min":41,"x_max":460,"o":"m 166 522 l 265 994 l 460 994 l 385 633 l 459 672 l 432 542 l 357 503 l 252 0 l 57 0 l 139 392 l 41 341 l 68 471 l 166 522 z "},"Š":{"ha":926,"x_min":85,"x_max":939,"o":"m 88 322 l 283 332 q 315 207 287 239 q 480 154 359 154 q 625 190 581 154 q 670 277 670 226 q 633 351 670 321 q 492 424 608 374 q 323 508 376 474 q 239 595 270 541 q 209 720 209 648 q 300 928 209 846 q 563 1011 391 1011 q 834 929 738 1011 q 939 711 930 847 l 743 702 q 692 811 736 773 q 562 849 648 849 q 440 819 477 849 q 404 744 404 789 q 437 673 404 701 q 585 595 471 645 q 803 475 756 522 q 873 301 873 408 q 769 76 873 170 q 479 -17 665 -17 q 257 26 351 -17 q 124 146 163 69 q 88 322 85 222 m 604 1137 l 724 1257 l 884 1257 l 682 1053 l 500 1053 l 418 1257 l 552 1257 l 604 1137 z "},"š":{"ha":772,"x_min":31,"x_max":766,"o":"m 31 201 l 219 231 q 281 147 244 172 q 383 122 319 122 q 490 152 450 122 q 517 201 517 172 q 503 237 517 221 q 422 273 488 252 q 204 366 246 332 q 138 504 138 418 q 202 651 138 589 q 466 737 291 737 q 676 686 605 737 q 766 549 747 635 l 587 517 q 541 576 572 557 q 436 603 497 603 q 348 583 375 603 q 321 536 321 562 q 349 491 321 509 q 458 453 366 480 q 648 372 600 412 q 716 236 716 315 q 630 58 716 134 q 387 -17 544 -17 q 146 40 231 -17 q 31 201 61 98 m 486 895 l 605 1016 l 765 1016 l 564 812 l 382 812 l 299 1016 l 433 1016 l 486 895 z "},"Ž":{"ha":848,"x_min":35,"x_max":928,"o":"m 35 0 l 67 157 l 640 828 l 176 828 l 211 994 l 928 994 l 898 838 l 319 163 q 426 165 412 165 q 606 166 491 165 l 840 166 l 806 0 l 35 0 m 583 1137 l 702 1257 l 862 1257 l 661 1053 l 479 1053 l 396 1257 l 530 1257 l 583 1137 z "},"ž":{"ha":694,"x_min":23,"x_max":733,"o":"m 23 0 l 51 132 l 446 568 l 123 568 l 155 720 l 720 720 l 696 604 l 298 157 l 645 157 l 612 0 l 23 0 m 454 895 l 573 1016 l 733 1016 l 532 812 l 350 812 l 267 1016 l 401 1016 l 454 895 z "},"¦":{"ha":389,"x_min":119,"x_max":271,"o":"m 119 475 l 119 1011 l 271 1011 l 271 475 l 119 475 m 119 -292 l 119 244 l 271 244 l 271 -292 l 119 -292 z "},"Ð":{"ha":1003,"x_min":51,"x_max":1007,"o":"m 60 0 l 153 435 l 51 435 l 77 555 l 178 555 l 272 994 l 536 994 q 680 991 649 994 q 790 966 742 985 q 878 912 839 947 q 947 830 918 878 q 991 719 976 782 q 1007 582 1007 656 q 946 298 1007 420 q 805 110 885 176 q 612 16 724 44 q 411 0 547 0 l 60 0 m 299 160 l 402 160 q 565 174 515 160 q 658 226 616 188 q 760 373 719 281 q 801 588 801 464 q 767 747 801 694 q 683 818 732 800 q 557 830 647 830 l 441 830 l 383 555 l 595 555 l 570 435 l 357 435 l 299 160 z "},"ð":{"ha":848,"x_min":84,"x_max":844,"o":"m 467 994 l 650 994 q 685 943 668 969 l 822 994 l 844 927 l 723 882 q 815 668 789 762 q 840 454 840 574 q 748 146 840 279 q 429 -18 635 -18 q 201 48 281 -18 q 84 303 84 142 q 178 582 84 464 q 458 720 287 720 q 572 698 523 720 q 650 636 609 681 q 581 829 627 745 l 416 770 l 393 838 l 545 892 q 467 994 516 937 m 640 412 q 598 526 640 484 q 494 568 557 568 q 333 474 391 568 q 276 286 276 380 q 316 173 276 214 q 422 132 357 132 q 535 174 484 132 q 613 290 587 217 q 640 412 640 363 z "},"Ý":{"ha":926,"x_min":159,"x_max":1090,"o":"m 557 0 l 353 0 l 433 387 l 159 994 l 377 994 l 500 713 q 559 568 545 612 q 618 661 585 612 l 712 793 l 852 994 l 1090 994 l 634 368 l 557 0 m 707 1255 l 914 1255 l 694 1052 l 565 1052 l 707 1255 z "},"ý":{"ha":772,"x_min":9,"x_max":862,"o":"m 116 720 l 310 720 l 359 361 q 379 168 377 223 q 484 401 417 278 l 656 720 l 862 720 l 417 -71 q 331 -208 362 -169 q 255 -270 299 -248 q 148 -292 210 -292 q 9 -271 86 -292 l 26 -125 q 94 -136 61 -136 q 241 0 184 -136 l 116 720 m 516 1015 l 724 1015 l 504 811 l 374 811 l 516 1015 z "},"Þ":{"ha":926,"x_min":56,"x_max":935,"o":"m 261 0 l 56 0 l 268 994 l 472 994 l 432 804 l 628 804 q 755 798 718 804 q 845 758 806 788 q 910 673 885 728 q 935 552 935 618 q 906 409 935 481 q 834 295 877 338 q 742 230 791 252 q 610 196 693 208 q 431 190 563 190 l 300 190 l 261 0 m 335 354 l 397 354 q 614 375 559 354 q 699 440 668 395 q 730 539 730 486 q 713 597 730 572 q 670 632 696 623 q 541 641 644 641 l 396 641 l 335 354 z "},"þ":{"ha":848,"x_min":-13,"x_max":837,"o":"m 257 994 l 452 994 l 382 661 q 586 737 481 737 q 768 659 699 737 q 837 427 837 581 q 718 98 837 232 q 477 -17 617 -17 q 261 99 334 -17 l 182 -275 l -13 -275 l 257 994 m 313 307 q 354 177 313 223 q 451 130 395 130 q 544 165 499 130 q 618 281 589 199 q 648 431 648 362 q 609 555 648 512 q 511 598 570 598 q 410 559 455 598 q 339 443 364 519 q 313 307 313 366 z "},"−":{"ha":811,"x_min":112,"x_max":807,"o":"m 112 401 l 112 580 l 807 580 l 807 401 l 112 401 z "},"×":{"ha":811,"x_min":128,"x_max":790,"o":"m 130 285 l 334 490 l 128 695 l 254 821 l 460 616 l 665 821 l 788 697 l 583 492 l 790 286 l 664 159 l 457 366 l 252 161 l 130 285 z "},"¹":{"ha":463,"x_min":159,"x_max":503,"o":"m 159 774 l 186 879 q 304 930 269 911 q 420 1008 374 966 l 503 1008 l 375 493 l 242 493 l 326 827 q 159 774 245 789 z "},"²":{"ha":463,"x_min":114,"x_max":550,"o":"m 296 831 l 168 847 q 234 966 183 925 q 366 1006 284 1006 q 503 965 456 1006 q 550 865 550 924 q 519 775 550 823 q 373 645 488 728 q 320 600 355 633 l 513 600 l 486 493 l 114 493 q 154 595 123 552 q 301 731 184 637 q 407 825 391 802 q 422 865 422 849 q 408 899 422 885 q 369 912 394 912 q 325 895 342 912 q 296 831 307 878 z "},"³":{"ha":463,"x_min":106,"x_max":541,"o":"m 106 640 l 232 652 q 254 597 239 611 q 298 583 269 583 q 358 603 336 583 q 380 652 380 623 q 362 692 380 677 q 313 708 345 708 q 281 705 301 708 l 307 806 q 328 805 319 805 q 390 823 370 805 q 410 868 410 841 q 399 897 410 887 q 359 910 384 910 q 318 895 336 910 q 290 842 301 880 l 168 862 q 222 954 191 925 q 368 1006 280 1006 q 496 966 451 1006 q 541 871 541 926 q 528 815 541 842 q 495 777 515 789 q 463 755 467 760 l 462 751 q 486 728 465 747 q 513 654 513 703 q 452 538 513 592 q 297 485 391 485 q 166 525 214 485 q 106 640 117 565 z "},"½":{"ha":1158,"x_min":118,"x_max":1160,"o":"m 159 772 l 186 878 q 196 882 190 880 q 420 1006 332 929 l 503 1006 l 375 492 l 242 492 l 326 825 l 312 819 q 159 772 245 787 m 236 -41 l 118 -41 l 1028 1006 l 1146 1006 l 236 -41 m 907 310 l 778 326 q 844 444 793 404 q 977 485 894 485 q 1113 444 1066 485 q 1160 343 1160 402 q 1129 254 1160 301 q 983 123 1097 206 q 930 79 966 111 l 1123 79 l 1097 -28 l 724 -28 q 764 73 732 30 q 911 209 795 116 q 1017 304 1000 280 q 1033 344 1033 328 q 1018 377 1033 363 q 979 390 1004 390 q 935 373 953 390 q 907 310 918 357 z "},"¼":{"ha":1158,"x_min":138,"x_max":1166,"o":"m 159 772 l 186 878 q 304 928 269 910 q 420 1006 374 966 l 503 1006 l 375 492 l 242 492 l 326 825 q 159 772 245 787 m 256 -41 l 138 -41 l 1048 1006 l 1166 1006 l 256 -41 m 934 72 l 695 72 l 719 168 l 1040 483 l 1154 483 l 1076 167 l 1147 167 l 1122 72 l 1051 72 l 1026 -28 l 909 -28 l 934 72 m 960 167 l 1000 321 l 846 167 l 960 167 z "},"¾":{"ha":1158,"x_min":105,"x_max":1183,"o":"m 105 640 l 231 652 q 253 597 238 611 q 297 583 269 583 q 357 603 335 583 q 379 652 379 623 q 362 692 379 677 q 312 708 345 708 q 281 705 300 708 l 307 806 q 327 805 319 805 q 389 823 369 805 q 410 868 410 841 q 398 897 410 887 q 359 910 383 910 q 318 895 335 910 q 289 842 300 880 l 167 862 q 222 954 190 925 q 368 1006 279 1006 q 495 966 450 1006 q 541 871 541 926 q 528 815 541 842 q 494 777 515 789 q 462 755 467 760 l 461 751 q 485 728 464 747 q 512 654 512 703 q 451 538 512 592 q 296 485 391 485 q 165 525 214 485 q 105 640 117 565 m 273 -41 l 155 -41 l 1065 1006 l 1183 1006 l 273 -41 m 934 72 l 695 72 l 719 168 l 1040 483 l 1153 483 l 1076 167 l 1147 167 l 1122 72 l 1050 72 l 1025 -28 l 909 -28 l 934 72 m 959 167 l 1000 321 l 846 167 l 959 167 z "},"₣":{"ha":772,"x_min":-11,"x_max":876,"o":"m 79 121 l -11 121 l 24 288 l 114 288 l 262 994 l 876 994 l 842 828 l 431 828 l 382 589 l 781 589 l 747 423 l 347 423 l 319 288 l 538 288 l 504 121 l 284 121 l 258 0 l 54 0 l 79 121 z "},"Ğ":{"ha":1080,"x_min":123,"x_max":1091,"o":"m 610 531 l 1055 531 l 966 104 q 773 18 887 54 q 540 -17 659 -17 q 257 66 355 -17 q 123 397 123 180 q 180 675 123 542 q 377 923 250 835 q 677 1011 505 1011 q 953 931 849 1011 q 1091 698 1057 851 l 901 676 q 820 803 876 760 q 679 846 764 846 q 497 794 580 846 q 368 635 414 743 q 321 399 321 527 q 378 214 321 274 q 545 154 435 154 q 680 173 610 154 q 799 217 749 191 l 829 365 l 576 365 l 610 531 m 516 1234 l 610 1234 q 652 1157 626 1179 q 718 1135 678 1135 q 852 1234 799 1135 l 941 1234 q 851 1088 913 1140 q 712 1037 789 1037 q 581 1086 633 1037 q 516 1234 530 1135 z "},"ğ":{"ha":848,"x_min":43,"x_max":865,"o":"m 45 -38 l 251 -68 q 261 -115 251 -99 q 294 -142 271 -131 q 356 -153 317 -153 q 455 -129 418 -153 q 500 -68 483 -110 q 528 47 511 -41 l 535 81 q 326 -3 434 -3 q 153 72 220 -3 q 85 290 85 146 q 131 523 85 417 q 260 683 177 629 q 431 737 344 737 q 562 699 503 737 q 655 593 622 661 l 682 720 l 865 720 l 740 120 q 688 -86 709 -24 q 640 -184 667 -148 q 572 -246 613 -221 q 474 -281 530 -271 q 352 -292 418 -292 q 121 -240 199 -292 q 43 -66 43 -188 q 45 -38 43 -54 m 275 310 q 312 185 275 228 q 404 142 349 142 q 503 180 455 142 q 576 290 551 219 q 602 428 602 361 q 560 551 602 505 q 465 598 519 598 q 369 557 412 598 q 296 429 325 515 q 275 310 275 363 m 340 1009 l 435 1009 q 476 932 450 954 q 543 911 503 911 q 676 1009 623 911 l 766 1009 q 675 864 738 916 q 536 812 613 812 q 406 862 457 812 q 340 1009 354 911 z "},"İ":{"ha":386,"x_min":48,"x_max":506,"o":"m 48 0 l 256 994 l 460 994 l 253 0 l 48 0 m 311 1228 l 506 1228 l 469 1050 l 274 1050 l 311 1228 z "},"Ş":{"ha":926,"x_min":85,"x_max":939,"o":"m 88 322 l 283 332 q 315 207 287 239 q 480 154 359 154 q 625 190 581 154 q 670 277 670 226 q 633 351 670 321 q 492 424 608 374 q 323 508 376 474 q 239 595 270 541 q 209 720 209 648 q 300 928 209 846 q 563 1011 391 1011 q 834 929 738 1011 q 939 711 930 847 l 743 702 q 692 811 736 773 q 562 849 648 849 q 440 819 477 849 q 404 744 404 789 q 437 673 404 701 q 585 595 471 645 q 803 475 756 522 q 873 301 873 408 q 769 76 873 170 q 479 -17 665 -17 q 257 26 351 -17 q 124 146 163 69 q 88 322 85 222 m 269 -286 l 301 -207 l 340 -208 q 450 -191 397 -208 q 495 -167 484 -181 q 507 -138 507 -153 q 489 -105 507 -119 q 428 -91 471 -91 q 367 -97 406 -91 l 390 -30 q 479 -18 439 -18 q 592 -50 553 -18 q 630 -130 630 -83 q 570 -229 630 -186 q 334 -288 488 -288 q 269 -286 292 -288 z "},"ş":{"ha":772,"x_min":31,"x_max":766,"o":"m 31 201 l 219 231 q 281 147 244 172 q 383 122 319 122 q 490 152 450 122 q 517 201 517 172 q 503 237 517 221 q 422 273 488 252 q 204 366 246 332 q 138 504 138 418 q 202 651 138 589 q 466 737 291 737 q 676 686 605 737 q 766 549 747 635 l 587 517 q 541 576 572 557 q 436 603 497 603 q 348 583 375 603 q 321 536 321 562 q 349 491 321 509 q 458 453 366 480 q 648 372 600 412 q 716 236 716 315 q 630 58 716 134 q 387 -17 544 -17 q 146 40 231 -17 q 31 201 61 98 m 119 -280 l 151 -201 l 190 -202 q 300 -186 248 -202 q 345 -162 334 -176 q 357 -133 357 -148 q 339 -99 357 -113 q 278 -85 321 -85 q 217 -92 256 -85 l 240 -24 q 329 -12 289 -12 q 442 -45 404 -12 q 480 -124 480 -77 q 420 -223 480 -181 q 184 -283 338 -283 q 119 -280 142 -283 z "},"Ć":{"ha":1003,"x_min":132,"x_max":1036,"o":"m 777 358 l 983 327 q 802 71 923 159 q 519 -18 682 -18 q 234 92 337 -18 q 132 411 132 202 q 200 721 132 581 q 391 937 269 862 q 657 1011 513 1011 q 918 925 819 1011 q 1036 689 1018 838 l 840 670 q 777 796 823 757 q 653 835 730 835 q 495 783 568 835 q 377 622 421 732 q 333 404 333 513 q 390 219 333 284 q 533 154 448 154 q 679 205 612 154 q 777 358 745 257 m 695 1255 l 903 1255 l 683 1052 l 553 1052 l 695 1255 z "},"ć":{"ha":772,"x_min":83,"x_max":784,"o":"m 544 271 l 733 241 q 595 49 686 115 q 382 -17 503 -17 q 164 65 245 -17 q 83 291 83 147 q 132 513 83 408 q 279 677 181 617 q 495 737 378 737 q 699 671 623 737 q 784 496 774 604 l 599 476 q 562 565 592 536 q 483 593 532 593 q 378 551 427 593 q 303 426 329 509 q 277 269 277 342 q 308 170 277 205 q 386 136 339 136 q 476 170 433 136 q 544 271 519 203 m 517 1015 l 725 1015 l 505 811 l 376 811 l 517 1015 z "},"Č":{"ha":1003,"x_min":132,"x_max":1036,"o":"m 777 358 l 983 327 q 802 71 923 159 q 519 -18 682 -18 q 234 92 337 -18 q 132 411 132 202 q 200 721 132 581 q 391 937 269 862 q 657 1011 513 1011 q 918 925 819 1011 q 1036 689 1018 838 l 840 670 q 777 796 823 757 q 653 835 730 835 q 495 783 568 835 q 377 622 421 732 q 333 404 333 513 q 390 219 333 284 q 533 154 448 154 q 679 205 612 154 q 777 358 745 257 m 672 1133 l 791 1253 l 951 1253 l 750 1049 l 568 1049 l 486 1253 l 620 1253 l 672 1133 z "},"č":{"ha":772,"x_min":83,"x_max":804,"o":"m 544 271 l 733 241 q 595 49 686 115 q 382 -17 503 -17 q 164 65 245 -17 q 83 291 83 147 q 132 513 83 408 q 279 677 181 617 q 495 737 378 737 q 699 671 623 737 q 784 496 774 604 l 599 476 q 562 565 592 536 q 483 593 532 593 q 378 551 427 593 q 303 426 329 509 q 277 269 277 342 q 308 170 277 205 q 386 136 339 136 q 476 170 433 136 q 544 271 519 203 m 525 895 l 644 1016 l 804 1016 l 603 812 l 421 812 l 338 1016 l 473 1016 l 525 895 z "},"đ":{"ha":848,"x_min":82,"x_max":1010,"o":"m 694 804 l 473 804 l 499 924 l 719 924 l 734 994 l 928 994 l 913 924 l 1010 924 l 985 804 l 888 804 l 721 0 l 536 0 l 553 78 q 449 5 500 27 q 333 -17 397 -17 q 152 59 221 -17 q 82 285 82 136 q 180 597 82 458 q 438 737 277 737 q 656 622 583 737 l 694 804 m 271 293 q 310 172 271 216 q 406 129 349 129 q 505 165 459 129 q 578 276 551 201 q 606 419 606 351 q 564 545 606 497 q 467 593 522 593 q 326 498 381 593 q 271 293 271 404 z "},"¯":{"ha":767,"x_min":95,"x_max":887,"o":"m 95 1053 l 95 1177 l 887 1177 l 887 1053 l 95 1053 z "},"·":{"ha":463,"x_min":190,"x_max":421,"o":"m 229 591 l 421 591 l 382 403 l 190 403 l 229 591 z "},"Ă":{"ha":1003,"x_min":-16,"x_max":935,"o":"m 708 220 l 314 220 l 195 0 l -16 0 l 547 994 l 774 994 l 935 0 l 741 0 l 708 220 m 683 385 l 625 785 l 385 385 l 683 385 m 451 1234 l 545 1234 q 587 1157 561 1179 q 653 1135 613 1135 q 787 1234 734 1135 l 876 1234 q 786 1088 848 1140 q 647 1037 724 1037 q 516 1086 568 1037 q 451 1234 465 1135 z "},"ă":{"ha":772,"x_min":62,"x_max":753,"o":"m 330 516 l 140 532 q 254 683 173 629 q 469 737 335 737 q 674 681 608 737 q 741 545 741 625 q 735 475 741 512 q 694 283 729 439 q 666 102 666 154 q 682 0 666 56 l 493 0 q 479 81 481 39 q 380 8 436 34 q 269 -17 325 -17 q 121 42 179 -17 q 62 193 62 100 q 126 357 62 296 q 355 432 191 419 q 541 460 494 444 q 553 525 553 500 q 528 577 553 556 q 454 598 503 598 q 371 577 401 598 q 330 516 341 555 m 515 336 q 469 327 498 331 q 277 275 322 309 q 245 210 245 251 q 270 152 245 176 q 334 129 294 129 q 417 150 378 129 q 476 205 456 172 q 510 310 495 239 l 515 336 m 328 1009 l 422 1009 q 464 932 438 954 q 530 911 490 911 q 664 1009 611 911 l 753 1009 q 663 864 726 916 q 524 812 601 812 q 393 862 445 812 q 328 1009 342 911 z "},"Ą":{"ha":1003,"x_min":-16,"x_max":935,"o":"m 708 220 l 314 220 l 195 0 l -16 0 l 547 994 l 774 994 l 935 0 l 741 0 l 708 220 m 683 385 l 625 785 l 385 385 l 683 385 m 906 -146 l 882 -259 q 774 -286 819 -286 q 670 -248 702 -286 q 649 -186 649 -223 q 693 -75 649 -133 q 773 0 726 -33 l 886 0 q 835 -49 857 -19 q 805 -121 805 -90 q 847 -159 805 -159 q 876 -154 859 -159 l 906 -146 z "},"ą":{"ha":772,"x_min":62,"x_max":741,"o":"m 330 516 l 140 532 q 254 683 173 629 q 469 737 335 737 q 674 681 608 737 q 741 545 741 625 q 735 475 741 512 q 694 283 729 439 q 666 102 666 154 q 682 0 666 56 l 493 0 q 479 81 481 39 q 380 8 436 34 q 269 -17 325 -17 q 121 42 179 -17 q 62 193 62 100 q 126 357 62 296 q 355 432 191 419 q 541 460 494 444 q 553 525 553 500 q 528 577 553 556 q 454 598 503 598 q 371 577 401 598 q 330 516 341 555 m 515 336 q 469 327 498 331 q 277 275 322 309 q 245 210 245 251 q 270 152 245 176 q 334 129 294 129 q 417 150 378 129 q 476 205 456 172 q 510 310 495 239 l 515 336 m 660 -146 l 636 -259 q 528 -286 573 -286 q 424 -248 456 -286 q 403 -186 403 -223 q 447 -75 403 -133 q 527 0 479 -33 l 640 0 q 589 -49 611 -19 q 559 -121 559 -90 q 601 -159 559 -159 q 629 -154 612 -159 l 660 -146 z "},"Ď":{"ha":1003,"x_min":60,"x_max":1006,"o":"m 60 0 l 269 994 l 536 994 q 680 991 648 994 q 790 966 741 985 q 878 912 838 947 q 946 830 918 878 q 991 719 975 782 q 1006 582 1006 656 q 945 297 1006 421 q 791 99 884 172 q 607 15 720 42 q 411 0 543 0 l 60 0 m 298 160 l 402 160 q 565 174 515 160 q 658 226 616 188 q 760 372 718 281 q 801 588 801 464 q 767 747 801 694 q 682 818 732 800 q 557 830 647 830 l 438 830 l 298 160 m 589 1137 l 709 1257 l 869 1257 l 667 1053 l 486 1053 l 403 1257 l 537 1257 l 589 1137 z "},"ď":{"ha":1027,"x_min":82,"x_max":1188,"o":"m 1011 994 l 1188 994 l 1159 854 q 1078 683 1133 733 q 935 631 1023 632 l 952 711 q 1020 747 996 722 q 1057 825 1044 772 l 976 825 l 1011 994 m 721 0 l 536 0 l 553 78 q 449 5 500 27 q 333 -17 397 -17 q 152 59 221 -17 q 82 285 82 136 q 180 597 82 458 q 438 737 277 737 q 656 622 583 737 l 734 994 l 928 994 l 721 0 m 271 293 q 310 172 271 216 q 406 129 349 129 q 505 165 459 129 q 578 276 551 201 q 606 419 606 351 q 564 545 606 497 q 467 593 522 593 q 326 498 381 593 q 271 293 271 404 z "},"Đ":{"ha":1003,"x_min":51,"x_max":1007,"o":"m 60 0 l 153 435 l 51 435 l 77 555 l 178 555 l 272 994 l 536 994 q 680 991 649 994 q 790 966 742 985 q 878 912 839 947 q 947 830 918 878 q 991 719 976 782 q 1007 582 1007 656 q 946 298 1007 420 q 805 110 885 176 q 612 16 724 44 q 411 0 547 0 l 60 0 m 299 160 l 402 160 q 565 174 515 160 q 658 226 616 188 q 760 373 719 281 q 801 588 801 464 q 767 747 801 694 q 683 818 732 800 q 557 830 647 830 l 441 830 l 383 555 l 595 555 l 570 435 l 357 435 l 299 160 z "},"Ę":{"ha":926,"x_min":57,"x_max":1002,"o":"m 57 0 l 264 994 l 1002 994 l 967 828 l 435 828 l 387 602 l 902 602 l 867 436 l 353 436 l 290 166 l 869 166 l 833 0 l 57 0 m 740 -146 l 716 -259 q 608 -286 653 -286 q 504 -248 536 -286 q 483 -186 483 -223 q 527 -75 483 -133 q 607 0 559 -33 l 720 0 q 669 -49 691 -19 q 639 -121 639 -90 q 681 -159 639 -159 q 709 -154 692 -159 l 740 -146 z "},"ę":{"ha":772,"x_min":81,"x_max":770,"o":"m 757 300 l 269 300 q 268 282 268 288 q 309 166 268 210 q 409 122 350 122 q 560 222 506 122 l 734 193 q 598 36 684 88 q 408 -17 513 -17 q 172 75 262 -17 q 81 318 81 167 q 163 581 81 466 q 482 737 275 737 q 692 655 614 737 q 770 427 770 574 q 757 300 770 356 m 593 418 q 593 438 593 431 q 557 558 593 518 q 461 598 522 598 q 353 553 401 598 q 288 418 305 507 l 593 418 m 534 -146 l 510 -259 q 401 -286 447 -286 q 298 -248 330 -286 q 277 -186 277 -223 q 321 -75 277 -133 q 401 0 353 -33 l 514 0 q 463 -49 485 -19 q 433 -121 433 -90 q 475 -159 433 -159 q 503 -154 486 -159 l 534 -146 z "},"Ě":{"ha":926,"x_min":57,"x_max":1002,"o":"m 57 0 l 264 994 l 1002 994 l 967 828 l 435 828 l 387 602 l 902 602 l 867 436 l 353 436 l 290 166 l 869 166 l 833 0 l 57 0 m 634 1137 l 753 1257 l 913 1257 l 712 1053 l 530 1053 l 448 1257 l 582 1257 l 634 1137 z "},"ě":{"ha":772,"x_min":81,"x_max":771,"o":"m 757 300 l 269 300 q 268 282 268 288 q 309 166 268 210 q 409 122 350 122 q 560 222 506 122 l 734 193 q 598 36 684 88 q 408 -17 513 -17 q 172 75 262 -17 q 81 318 81 167 q 163 581 81 466 q 482 737 275 737 q 692 655 614 737 q 770 427 770 574 q 757 300 770 356 m 593 418 q 593 438 593 431 q 557 558 593 518 q 461 598 522 598 q 353 553 401 598 q 288 418 305 507 l 593 418 m 492 895 l 611 1016 l 771 1016 l 570 812 l 388 812 l 305 1016 l 439 1016 l 492 895 z "},"Ĺ":{"ha":848,"x_min":62,"x_max":808,"o":"m 62 0 l 271 994 l 475 994 l 302 166 l 808 166 l 773 0 l 62 0 m 526 1255 l 734 1255 l 514 1052 l 385 1052 l 526 1255 z "},"ĺ":{"ha":386,"x_min":54,"x_max":587,"o":"m 54 0 l 262 994 l 456 994 l 249 0 l 54 0 m 380 1249 l 587 1249 l 368 1045 l 238 1045 l 380 1249 z "},"Ľ":{"ha":848,"x_min":62,"x_max":850,"o":"m 62 0 l 271 994 l 475 994 l 302 166 l 808 166 l 773 0 l 62 0 m 654 994 l 850 994 l 817 839 q 728 648 789 704 q 569 590 667 592 l 588 680 q 664 720 637 691 q 703 806 690 748 l 614 806 l 654 994 z "},"ľ":{"ha":550,"x_min":52,"x_max":713,"o":"m 536 994 l 713 994 l 684 854 q 603 683 658 733 q 460 631 547 632 l 477 711 q 545 747 521 722 q 581 825 569 772 l 500 825 l 536 994 m 52 0 l 260 994 l 454 994 l 247 0 l 52 0 z "},"Ŀ":{"ha":848,"x_min":62,"x_max":808,"o":"m 62 0 l 271 994 l 475 994 l 302 166 l 808 166 l 773 0 l 62 0 m 422 591 l 614 591 l 576 403 l 383 403 l 422 591 z "},"ŀ":{"ha":665,"x_min":54,"x_max":675,"o":"m 54 0 l 262 994 l 456 994 l 249 0 l 54 0 m 484 591 l 675 591 l 637 403 l 444 403 l 484 591 z "},"Ń":{"ha":1003,"x_min":62,"x_max":1059,"o":"m 852 0 l 661 0 l 393 668 l 253 0 l 62 0 l 270 994 l 461 994 l 730 329 l 869 994 l 1059 994 l 852 0 m 666 1255 l 873 1255 l 654 1052 l 524 1052 l 666 1255 z "},"ń":{"ha":848,"x_min":58,"x_max":821,"o":"m 209 720 l 393 720 l 374 627 q 504 712 444 686 q 630 737 564 737 q 770 686 719 737 q 821 551 821 635 q 799 408 821 513 l 714 0 l 519 0 l 605 409 q 624 518 624 500 q 602 577 624 555 q 541 598 580 598 q 446 562 498 598 q 363 467 393 526 q 315 296 342 425 l 253 0 l 58 0 l 209 720 m 564 1015 l 772 1015 l 552 811 l 422 811 l 564 1015 z "},"Ň":{"ha":1003,"x_min":62,"x_max":1059,"o":"m 852 0 l 661 0 l 393 668 l 253 0 l 62 0 l 270 994 l 461 994 l 730 329 l 869 994 l 1059 994 l 852 0 m 667 1137 l 787 1257 l 947 1257 l 745 1053 l 564 1053 l 481 1257 l 615 1257 l 667 1137 z "},"ň":{"ha":848,"x_min":58,"x_max":826,"o":"m 209 720 l 393 720 l 374 627 q 504 712 444 686 q 630 737 564 737 q 770 686 719 737 q 821 551 821 635 q 799 408 821 513 l 714 0 l 519 0 l 605 409 q 624 518 624 500 q 602 577 624 555 q 541 598 580 598 q 446 562 498 598 q 363 467 393 526 q 315 296 342 425 l 253 0 l 58 0 l 209 720 m 547 895 l 666 1016 l 826 1016 l 625 812 l 443 812 l 360 1016 l 494 1016 l 547 895 z "},"Ő":{"ha":1080,"x_min":121,"x_max":1089,"o":"m 121 390 q 148 576 121 478 q 253 803 182 707 q 432 955 324 899 q 677 1011 540 1011 q 976 897 862 1011 q 1089 593 1089 782 q 1015 288 1089 435 q 814 62 941 141 q 528 -18 688 -18 q 294 45 389 -18 q 161 202 200 109 q 121 390 121 295 m 323 394 q 386 222 323 292 q 550 153 448 153 q 709 208 633 153 q 835 373 785 262 q 885 589 885 484 q 822 773 885 707 q 661 840 759 840 q 417 701 511 840 q 323 394 323 561 m 846 1252 l 1042 1252 l 819 1050 l 708 1050 l 846 1252 m 575 1252 l 777 1252 l 549 1050 l 441 1050 l 575 1252 z "},"ő":{"ha":848,"x_min":84,"x_max":865,"o":"m 84 299 q 197 618 84 499 q 494 737 310 737 q 743 649 653 737 q 832 413 832 562 q 720 111 832 238 q 420 -17 608 -17 q 240 24 319 -17 q 123 139 161 64 q 84 299 84 214 m 639 438 q 598 549 639 507 q 494 591 558 591 q 382 552 431 591 q 307 438 334 513 q 279 302 279 364 q 321 179 279 224 q 427 134 363 134 q 562 202 507 134 q 639 438 639 299 m 669 1011 l 865 1011 l 642 810 l 531 810 l 669 1011 m 398 1011 l 600 1011 l 372 810 l 264 810 l 398 1011 z "},"Ŕ":{"ha":1003,"x_min":61,"x_max":1029,"o":"m 266 0 l 61 0 l 269 994 l 711 994 q 888 971 825 994 q 990 885 951 947 q 1029 734 1029 823 q 954 525 1029 607 q 724 422 878 442 q 798 330 763 387 q 950 0 866 213 l 730 0 q 627 262 704 84 q 537 392 585 359 q 435 412 508 412 l 352 412 l 266 0 m 383 561 l 492 561 q 710 581 656 561 q 795 642 764 600 q 825 730 825 684 q 781 812 825 785 q 664 828 754 828 l 439 828 l 383 561 m 636 1255 l 844 1255 l 624 1052 l 494 1052 l 636 1255 z "},"ŕ":{"ha":541,"x_min":45,"x_max":684,"o":"m 195 720 l 377 720 l 348 581 q 568 737 450 737 q 659 716 610 737 l 584 557 q 528 566 557 566 q 426 528 477 566 q 345 427 374 490 q 287 226 315 363 l 239 0 l 45 0 l 195 720 m 476 1015 l 684 1015 l 464 811 l 334 811 l 476 1015 z "},"Ř":{"ha":1003,"x_min":61,"x_max":1029,"o":"m 266 0 l 61 0 l 269 994 l 711 994 q 888 971 825 994 q 990 885 951 947 q 1029 734 1029 823 q 954 525 1029 607 q 724 422 878 442 q 798 330 763 387 q 950 0 866 213 l 730 0 q 627 262 704 84 q 537 392 585 359 q 435 412 508 412 l 352 412 l 266 0 m 383 561 l 492 561 q 710 581 656 561 q 795 642 764 600 q 825 730 825 684 q 781 812 825 785 q 664 828 754 828 l 439 828 l 383 561 m 617 1137 l 736 1257 l 897 1257 l 695 1053 l 513 1053 l 431 1257 l 565 1257 l 617 1137 z "},"ř":{"ha":541,"x_min":45,"x_max":722,"o":"m 195 720 l 377 720 l 348 581 q 568 737 450 737 q 659 716 610 737 l 584 557 q 528 566 557 566 q 426 528 477 566 q 345 427 374 490 q 287 226 315 363 l 239 0 l 45 0 l 195 720 m 442 895 l 562 1016 l 722 1016 l 520 812 l 338 812 l 256 1016 l 390 1016 l 442 895 z "},"Ś":{"ha":926,"x_min":85,"x_max":939,"o":"m 88 322 l 283 332 q 315 207 287 239 q 480 154 359 154 q 625 190 581 154 q 670 277 670 226 q 633 351 670 321 q 492 424 608 374 q 323 508 376 474 q 239 595 270 541 q 209 720 209 648 q 300 928 209 846 q 563 1011 391 1011 q 834 929 738 1011 q 939 711 930 847 l 743 702 q 692 811 736 773 q 562 849 648 849 q 440 819 477 849 q 404 744 404 789 q 437 673 404 701 q 585 595 471 645 q 803 475 756 522 q 873 301 873 408 q 769 76 873 170 q 479 -17 665 -17 q 257 26 351 -17 q 124 146 163 69 q 88 322 85 222 m 605 1255 l 812 1255 l 593 1052 l 463 1052 l 605 1255 z "},"ś":{"ha":772,"x_min":31,"x_max":766,"o":"m 31 201 l 219 231 q 281 147 244 172 q 383 122 319 122 q 490 152 450 122 q 517 201 517 172 q 503 237 517 221 q 422 273 488 252 q 204 366 246 332 q 138 504 138 418 q 202 651 138 589 q 466 737 291 737 q 676 686 605 737 q 766 549 747 635 l 587 517 q 541 576 572 557 q 436 603 497 603 q 348 583 375 603 q 321 536 321 562 q 349 491 321 509 q 458 453 366 480 q 648 372 600 412 q 716 236 716 315 q 630 58 716 134 q 387 -17 544 -17 q 146 40 231 -17 q 31 201 61 98 m 498 1015 l 706 1015 l 486 811 l 357 811 l 498 1015 z "},"Ţ":{"ha":848,"x_min":145,"x_max":985,"o":"m 490 0 l 285 0 l 458 828 l 167 828 l 201 994 l 985 994 l 950 828 l 663 828 l 490 0 m 145 -286 l 178 -207 l 216 -208 q 327 -191 274 -208 q 372 -167 360 -181 q 383 -138 383 -153 q 365 -105 383 -119 q 304 -91 347 -91 q 243 -97 283 -91 l 267 -30 q 355 -18 315 -18 q 468 -50 430 -18 q 507 -130 507 -83 q 447 -229 507 -186 q 211 -288 364 -288 q 145 -286 168 -288 z "},"ţ":{"ha":463,"x_min":23,"x_max":543,"o":"m 104 576 l 134 720 l 229 720 l 253 836 l 476 970 l 424 720 l 543 720 l 513 576 l 393 576 l 330 274 q 313 180 313 192 q 328 145 313 158 q 379 133 342 133 q 444 138 392 133 l 413 -7 q 310 -17 363 -17 q 160 23 207 -17 q 113 133 113 62 q 138 286 113 166 l 199 576 l 104 576 m 23 -286 l 56 -207 l 94 -208 q 205 -191 152 -208 q 250 -167 238 -181 q 261 -138 261 -153 q 243 -105 261 -119 q 182 -91 225 -91 q 121 -97 161 -91 l 144 -30 q 233 -18 193 -18 q 346 -50 308 -18 q 385 -130 385 -83 q 325 -229 385 -186 q 89 -288 242 -288 q 23 -286 46 -288 z "},"Ť":{"ha":848,"x_min":167,"x_max":985,"o":"m 490 0 l 285 0 l 458 828 l 167 828 l 201 994 l 985 994 l 950 828 l 663 828 l 490 0 m 607 1137 l 726 1257 l 886 1257 l 685 1053 l 503 1053 l 420 1257 l 555 1257 l 607 1137 z "},"ť":{"ha":665,"x_min":106,"x_max":827,"o":"m 650 994 l 827 994 l 798 854 q 717 683 772 733 q 574 631 662 632 l 591 711 q 659 747 635 722 q 695 825 684 772 l 614 825 l 650 994 m 106 576 l 136 720 l 231 720 l 255 836 l 478 970 l 426 720 l 545 720 l 515 576 l 395 576 l 332 274 q 315 180 315 192 q 330 145 315 158 q 381 133 344 133 q 446 138 394 133 l 415 -7 q 312 -17 365 -17 q 162 23 209 -17 q 115 133 115 62 q 140 286 115 166 l 201 576 l 106 576 z "},"Ů":{"ha":1003,"x_min":127,"x_max":1063,"o":"m 265 994 l 469 994 l 357 454 l 329 321 q 326 290 326 304 q 369 192 326 231 q 494 154 412 154 q 616 182 568 154 q 691 264 665 210 q 745 451 718 319 l 859 994 l 1063 994 l 949 450 q 867 188 913 279 q 725 40 820 97 q 485 -17 630 -17 q 219 68 311 -17 q 127 287 127 153 q 132 347 127 315 q 155 471 134 369 l 265 994 m 532 1126 q 571 1219 532 1181 q 663 1257 609 1257 q 756 1219 718 1257 q 794 1126 794 1181 q 756 1034 794 1072 q 663 996 718 996 q 571 1034 609 996 q 532 1126 532 1072 m 606 1126 q 623 1086 606 1103 q 663 1069 640 1069 q 704 1086 687 1069 q 720 1126 720 1103 q 704 1167 720 1150 q 663 1184 687 1184 q 623 1167 640 1184 q 606 1126 606 1150 z "},"ů":{"ha":848,"x_min":98,"x_max":860,"o":"m 205 720 l 399 720 l 311 294 q 294 198 294 217 q 317 144 294 167 q 376 122 340 122 q 427 132 402 122 q 479 162 452 142 q 526 208 505 182 q 566 275 547 233 q 593 377 578 307 l 665 720 l 860 720 l 709 0 l 528 0 l 548 98 q 288 -17 429 -17 q 149 34 199 -17 q 98 170 98 85 q 121 319 98 208 l 205 720 m 432 916 q 470 1009 432 970 q 563 1047 509 1047 q 655 1009 617 1047 q 694 916 694 970 q 655 824 694 862 q 563 785 617 785 q 470 824 509 785 q 432 916 432 862 m 506 916 q 523 876 506 892 q 563 859 539 859 q 603 876 587 859 q 620 916 620 892 q 603 957 620 940 q 563 974 587 974 q 523 957 539 974 q 506 916 506 940 z "},"Ű":{"ha":1003,"x_min":127,"x_max":1063,"o":"m 265 994 l 469 994 l 357 454 l 329 321 q 326 290 326 304 q 369 192 326 231 q 494 154 412 154 q 616 182 568 154 q 691 264 665 210 q 745 451 718 319 l 859 994 l 1063 994 l 949 450 q 867 188 913 279 q 725 40 820 97 q 485 -17 630 -17 q 219 68 311 -17 q 127 287 127 153 q 132 347 127 315 q 155 471 134 369 l 265 994 m 821 1252 l 1018 1252 l 795 1050 l 684 1050 l 821 1252 m 551 1252 l 752 1252 l 524 1050 l 416 1050 l 551 1252 z "},"ű":{"ha":848,"x_min":98,"x_max":905,"o":"m 205 720 l 399 720 l 311 294 q 294 198 294 217 q 317 144 294 167 q 376 122 340 122 q 427 132 402 122 q 479 162 452 142 q 526 208 505 182 q 566 275 547 233 q 593 377 578 307 l 665 720 l 860 720 l 709 0 l 528 0 l 548 98 q 288 -17 429 -17 q 149 34 199 -17 q 98 170 98 85 q 121 319 98 208 l 205 720 m 709 1011 l 905 1011 l 682 810 l 571 810 l 709 1011 m 438 1011 l 640 1011 l 412 810 l 304 810 l 438 1011 z "},"Ź":{"ha":848,"x_min":35,"x_max":928,"o":"m 35 0 l 67 157 l 640 828 l 176 828 l 211 994 l 928 994 l 898 838 l 319 163 q 426 165 412 165 q 606 166 491 165 l 840 166 l 806 0 l 35 0 m 572 1255 l 780 1255 l 560 1052 l 431 1052 l 572 1255 z "},"ź":{"ha":694,"x_min":23,"x_max":720,"o":"m 23 0 l 51 132 l 446 568 l 123 568 l 155 720 l 720 720 l 696 604 l 298 157 l 645 157 l 612 0 l 23 0 m 455 1015 l 663 1015 l 443 811 l 313 811 l 455 1015 z "},"Ż":{"ha":848,"x_min":35,"x_max":928,"o":"m 35 0 l 67 157 l 640 828 l 176 828 l 211 994 l 928 994 l 898 838 l 319 163 q 426 165 412 165 q 606 166 491 165 l 840 166 l 806 0 l 35 0 m 509 1228 l 704 1228 l 667 1050 l 472 1050 l 509 1228 z "},"ż":{"ha":694,"x_min":23,"x_max":720,"o":"m 23 0 l 51 132 l 446 568 l 123 568 l 155 720 l 720 720 l 696 604 l 298 157 l 645 157 l 612 0 l 23 0 m 371 1010 l 566 1010 l 528 832 l 334 832 l 371 1010 z "},"Γ":{"ha":847,"x_min":60,"x_max":979,"o":"m 979 994 l 944 828 l 438 828 l 264 0 l 60 0 l 269 994 l 979 994 z "},"Θ":{"ha":1080,"x_min":121,"x_max":1089,"o":"m 121 390 q 186 685 121 532 q 379 924 251 838 q 677 1011 507 1011 q 974 898 859 1011 q 1089 593 1089 785 q 936 169 1089 355 q 529 -17 782 -17 q 227 103 332 -17 q 121 390 121 223 m 323 394 q 386 222 323 291 q 551 153 449 153 q 725 221 646 153 q 845 397 804 288 q 885 589 885 505 q 825 770 885 700 q 661 840 764 840 q 418 702 513 840 q 323 394 323 564 m 393 414 l 427 580 l 817 580 l 782 414 l 393 414 z "},"Φ":{"ha":1142,"x_min":123,"x_max":1156,"o":"m 647 1019 l 849 1019 l 822 889 q 1060 781 964 876 q 1156 553 1156 685 q 1029 272 1156 399 q 657 121 903 144 l 622 -40 l 420 -40 l 457 129 q 219 238 315 142 q 123 466 123 333 q 250 747 123 620 q 622 897 377 874 l 647 1019 m 694 298 q 887 392 820 320 q 954 559 954 465 q 785 720 954 697 l 694 298 m 585 720 q 392 626 459 698 q 326 459 326 553 q 495 298 326 321 l 585 720 z "},"α":{"ha":861,"x_min":84,"x_max":919,"o":"m 712 720 l 919 720 l 762 372 q 758 252 758 323 q 772 0 758 155 l 585 0 q 574 89 575 41 q 351 -17 478 -17 q 157 58 229 -17 q 84 281 84 132 q 184 599 84 460 q 446 737 283 737 q 661 621 581 737 l 712 720 m 273 308 q 310 171 273 216 q 411 127 347 127 q 551 216 498 127 q 603 428 603 304 q 565 550 603 509 q 471 592 528 592 q 329 499 384 592 q 273 308 273 407 z "},"δ":{"ha":848,"x_min":85,"x_max":911,"o":"m 290 994 l 911 994 l 875 828 l 528 828 q 667 681 602 739 q 801 518 774 585 q 828 391 828 452 q 721 110 828 237 q 420 -17 613 -17 q 173 75 260 -17 q 85 317 85 168 q 164 557 85 453 q 401 701 242 661 q 262 866 340 764 l 290 994 m 271 290 q 314 172 271 216 q 417 129 356 129 q 573 219 509 129 q 638 410 638 309 q 598 525 638 479 q 490 570 559 570 q 330 477 389 570 q 271 290 271 385 z "},"ε":{"ha":665,"x_min":60,"x_max":712,"o":"m 712 630 l 570 525 q 433 583 507 583 q 373 565 394 583 q 352 522 352 547 q 393 463 352 485 q 505 439 435 440 l 473 289 q 433 290 446 290 q 301 261 347 290 q 255 193 255 233 q 279 151 255 165 q 332 137 302 137 q 521 215 397 137 l 639 86 q 317 -17 504 -17 q 124 43 188 -17 q 60 178 60 102 q 115 302 60 249 q 258 381 171 355 q 158 530 158 442 q 231 677 158 618 q 435 737 303 737 q 712 630 615 737 z "},"σ":{"ha":922,"x_min":84,"x_max":996,"o":"m 84 299 q 198 618 88 500 q 491 737 307 737 q 618 720 545 737 l 996 720 l 964 554 l 806 554 q 832 415 832 494 q 720 111 832 238 q 418 -17 608 -17 q 241 23 316 -17 q 130 124 165 64 q 84 299 95 184 m 639 438 q 601 547 639 503 q 494 591 562 591 q 337 499 394 591 q 279 302 279 407 q 319 182 279 231 q 427 134 359 134 q 575 221 512 134 q 639 438 639 308 z "},"τ":{"ha":568,"x_min":109,"x_max":648,"o":"m 146 720 l 648 720 l 611 554 l 457 554 l 340 0 l 149 0 l 263 554 l 109 554 l 146 720 z "},"φ":{"ha":977,"x_min":84,"x_max":962,"o":"m 468 737 l 429 559 q 320 480 358 541 q 282 340 282 418 q 387 156 282 224 l 447 439 q 548 679 486 621 q 707 737 609 737 q 893 654 823 737 q 962 448 962 572 q 859 141 962 273 q 541 -12 755 9 l 486 -275 l 294 -275 l 352 -8 q 161 112 239 20 q 84 339 84 205 q 187 611 84 498 q 468 737 290 724 m 574 145 q 721 266 666 165 q 775 475 775 367 q 719 576 775 576 q 673 552 688 576 q 642 452 658 528 l 574 145 z "},"‗":{"ha":767,"x_min":-13,"x_max":779,"o":"m -13 -275 l -13 -151 l 779 -151 l 779 -275 l -13 -275 m -13 -523 l -13 -399 l 779 -399 l 779 -523 l -13 -523 z "},"‼":{"ha":839,"x_min":85,"x_max":867,"o":"m 283 253 l 176 253 l 237 760 l 286 994 l 490 994 l 438 743 l 283 253 m 125 188 l 317 188 l 278 0 l 85 0 l 125 188 m 660 253 l 553 253 l 614 760 l 663 994 l 867 994 l 814 743 l 660 253 m 501 188 l 694 188 l 654 0 l 462 0 l 501 188 z "},"ⁿ":{"ha":550,"x_min":82,"x_max":597,"o":"m 184 799 l 321 799 l 311 755 q 386 795 357 785 q 465 809 425 809 q 562 775 526 809 q 597 688 597 741 q 583 600 597 663 l 525 348 l 382 348 l 440 604 q 452 668 452 659 q 440 696 452 686 q 406 707 429 707 q 348 686 380 707 q 298 632 315 665 q 267 533 285 608 l 226 348 l 82 348 l 184 799 z "},"₧":{"ha":1533,"x_min":14,"x_max":1511,"o":"m 200 994 l 429 994 q 637 921 550 994 q 728 724 724 847 l 798 724 l 831 895 l 1010 895 l 977 724 l 1151 724 q 1262 743 1205 743 q 1441 678 1373 743 q 1511 510 1509 614 l 1333 510 q 1310 584 1333 559 q 1255 610 1287 610 q 1202 590 1223 610 q 1182 543 1182 570 q 1208 491 1182 515 q 1284 450 1228 473 q 1463 229 1463 372 q 1384 55 1463 128 q 1177 -18 1304 -18 q 1058 6 1108 -18 q 983 66 1020 24 l 968 -12 q 881 -18 921 -18 q 747 21 801 -18 q 692 138 692 60 q 705 230 692 171 l 774 592 l 715 592 q 640 465 685 511 q 508 377 583 404 q 311 351 433 351 l 279 351 l 213 0 l 14 0 l 200 994 m 311 518 l 340 518 q 484 570 431 518 q 538 700 538 621 q 502 794 538 759 q 399 829 465 829 q 370 827 389 829 l 311 518 m 954 592 l 891 262 q 881 182 881 211 q 895 139 881 151 q 954 125 909 126 q 944 193 944 167 q 946 230 944 205 l 1121 230 q 1120 212 1120 218 q 1143 145 1120 171 q 1200 120 1166 120 q 1262 145 1236 120 q 1289 201 1289 170 q 1268 254 1289 229 q 1173 317 1246 278 q 1074 378 1099 357 q 1030 437 1048 400 q 1012 522 1012 475 q 1022 592 1012 551 l 954 592 z "},"←":{"ha":1389,"x_min":54,"x_max":1335,"o":"m 334 594 l 385 594 q 325 482 345 514 q 253 385 305 450 l 1335 385 l 1335 316 l 253 316 q 387 106 323 243 l 334 106 q 184 255 247 204 q 54 338 121 305 l 54 368 q 178 445 113 393 q 334 594 244 496 z "},"↑":{"ha":694,"x_min":104,"x_max":591,"o":"m 104 628 q 253 784 202 718 q 330 908 304 850 l 361 908 q 443 778 393 841 q 591 627 494 715 l 591 575 q 382 709 455 639 l 382 -291 l 313 -291 l 313 709 q 216 637 248 657 q 104 576 184 616 l 104 628 z "},"→":{"ha":1389,"x_min":54,"x_max":1335,"o":"m 1055 594 q 1211 445 1145 496 q 1335 368 1276 393 l 1335 338 q 1204 255 1267 305 q 1054 106 1141 204 l 1002 106 q 1135 316 1065 243 l 54 316 l 54 385 l 1135 385 q 1063 482 1084 450 q 1003 594 1043 514 l 1055 594 z "},"↓":{"ha":694,"x_min":104,"x_max":591,"o":"m 104 -11 l 104 41 q 216 -20 184 1 q 313 -92 248 -40 l 313 908 l 382 908 l 382 -92 q 591 42 455 -22 l 591 -10 q 443 -161 494 -98 q 361 -291 393 -224 l 330 -291 q 253 -167 304 -233 q 104 -11 202 -101 z "},"↔":{"ha":1389,"x_min":54,"x_max":1335,"o":"m 1335 366 l 1335 336 q 1209 257 1271 307 q 1059 107 1147 208 l 1005 107 q 1137 318 1052 224 l 252 318 q 383 107 336 224 l 329 107 q 179 257 241 208 q 54 336 117 307 l 54 366 q 179 445 117 396 q 329 595 241 494 l 383 595 q 252 385 336 479 l 1137 385 q 1005 595 1052 479 l 1059 595 q 1209 445 1147 494 q 1335 366 1271 396 z "},"↕":{"ha":694,"x_min":103,"x_max":591,"o":"m 332 992 l 362 992 q 441 866 392 928 q 591 716 490 804 l 591 662 q 380 794 475 709 l 380 -92 q 591 40 475 -6 l 591 -14 q 441 -164 490 -102 q 362 -290 392 -226 l 332 -290 q 253 -164 302 -226 q 103 -14 203 -102 l 103 40 q 314 -92 219 -6 l 314 794 q 103 662 219 709 l 103 716 q 253 866 203 804 q 332 992 302 928 z "},"↨":{"ha":694,"x_min":103,"x_max":591,"o":"m 332 992 l 362 992 q 441 866 392 928 q 591 716 490 804 l 591 662 q 380 794 475 709 l 380 -92 q 591 40 475 -6 l 591 -14 q 441 -164 490 -102 q 362 -290 392 -226 l 332 -290 q 253 -164 302 -226 q 103 -14 203 -102 l 103 40 q 314 -92 219 -6 l 314 794 q 103 662 219 709 l 103 716 q 253 866 203 804 q 332 992 302 928 m 104 -354 l 591 -354 l 591 -420 l 104 -420 l 104 -354 z "},"∟":{"ha":1360,"x_min":245,"x_max":1114,"o":"m 245 867 l 313 867 l 313 68 l 1114 68 l 1114 0 l 245 0 l 245 867 z "},"∩":{"ha":1003,"x_min":144,"x_max":948,"o":"m 284 0 l 144 0 l 144 406 q 149 626 144 578 q 181 767 157 711 q 257 877 205 823 q 385 965 309 931 q 547 998 461 998 q 703 966 629 998 q 833 880 777 935 q 913 764 888 825 q 945 610 937 703 q 948 406 948 573 l 948 0 l 809 0 l 809 411 q 806 593 809 554 q 782 711 800 664 q 736 781 769 745 q 652 839 703 816 q 546 861 600 861 q 438 837 492 861 q 350 773 384 812 q 303 687 317 734 q 286 576 290 640 q 284 411 284 541 l 284 0 z "},"≡":{"ha":810,"x_min":112,"x_max":807,"o":"m 112 703 l 112 879 l 807 879 l 807 703 l 112 703 m 112 403 l 112 578 l 807 578 l 807 403 l 112 403 m 112 102 l 112 277 l 807 277 l 807 102 l 112 102 z "},"⌂":{"ha":839,"x_min":106,"x_max":732,"o":"m 106 0 l 106 430 l 419 782 l 732 430 l 732 0 l 106 0 m 161 55 l 677 55 l 677 407 l 419 696 l 161 407 l 161 55 z "},"⌐":{"ha":811,"x_min":112,"x_max":807,"o":"m 287 255 l 112 255 l 112 728 l 807 728 l 807 554 l 287 554 l 287 255 z "},"⌠":{"ha":839,"x_min":370,"x_max":662,"o":"m 469 -349 l 370 -349 l 370 879 q 431 1103 370 1027 q 568 1178 492 1178 q 638 1156 614 1178 q 662 1104 662 1134 q 645 1059 662 1077 q 602 1042 627 1042 q 564 1052 582 1042 q 535 1083 551 1059 q 504 1108 519 1108 q 483 1100 492 1108 q 473 1082 476 1095 q 469 987 469 1059 l 469 -349 z "},"⌡":{"ha":839,"x_min":177,"x_max":469,"o":"m 370 1178 l 469 1178 l 469 -50 q 408 -274 469 -199 q 271 -349 347 -349 q 201 -327 225 -349 q 177 -275 177 -305 q 194 -231 177 -248 q 236 -213 212 -213 q 276 -224 257 -213 q 304 -255 288 -231 q 335 -279 319 -279 q 356 -271 347 -279 q 366 -252 363 -267 q 370 -159 370 -231 l 370 1178 z "},"─":{"ha":984,"x_min":-16,"x_max":999,"o":"m 999 362 l -16 362 l -16 481 l 999 481 l 999 362 z "},"│":{"ha":868,"x_min":310,"x_max":429,"o":"m 310 -421 l 310 1264 l 429 1264 l 429 -421 l 310 -421 z "},"┌":{"ha":984,"x_min":433,"x_max":1000,"o":"m 1000 481 l 1000 362 l 551 362 l 551 -421 l 433 -421 l 433 481 l 1000 481 z "},"┐":{"ha":984,"x_min":-16,"x_max":551,"o":"m 432 362 l -16 362 l -16 481 l 551 481 l 551 -421 l 432 -421 l 432 362 z "},"└":{"ha":984,"x_min":433,"x_max":1000,"o":"m 433 362 l 433 1264 l 551 1264 l 551 481 l 1000 481 l 1000 362 l 433 362 z "},"┘":{"ha":984,"x_min":-16,"x_max":551,"o":"m 551 362 l -16 362 l -16 481 l 432 481 l 432 1264 l 551 1264 l 551 362 z "},"├":{"ha":984,"x_min":433,"x_max":1000,"o":"m 433 -421 l 433 1264 l 551 1264 l 551 481 l 1000 481 l 1000 362 l 551 362 l 551 -421 l 433 -421 z "},"┤":{"ha":984,"x_min":-16,"x_max":551,"o":"m 432 -421 l 432 362 l -16 362 l -16 481 l 432 481 l 432 1264 l 551 1264 l 551 -421 l 432 -421 z "},"┬":{"ha":984,"x_min":-16,"x_max":999,"o":"m 432 362 l -16 362 l -16 481 l 999 481 l 999 362 l 551 362 l 551 -421 l 432 -421 l 432 362 z "},"┴":{"ha":984,"x_min":-16,"x_max":999,"o":"m 999 362 l -16 362 l -16 481 l 432 481 l 432 1264 l 551 1264 l 551 481 l 999 481 l 999 362 z "},"┼":{"ha":984,"x_min":-16,"x_max":999,"o":"m 432 362 l -16 362 l -16 481 l 432 481 l 432 1264 l 551 1264 l 551 481 l 999 481 l 999 362 l 551 362 l 551 -421 l 432 -421 l 432 362 z "},"═":{"ha":984,"x_min":-16,"x_max":999,"o":"m 999 491 l -16 491 l -16 610 l 999 610 l 999 491 m 999 233 l -16 233 l -16 352 l 999 352 l 999 233 z "},"║":{"ha":984,"x_min":304,"x_max":680,"o":"m 562 -421 l 562 1264 l 680 1264 l 680 -421 l 562 -421 m 304 -421 l 304 1264 l 422 1264 l 422 -421 l 304 -421 z "},"╒":{"ha":984,"x_min":433,"x_max":1000,"o":"m 433 -421 l 433 610 l 1000 610 l 1000 491 l 551 491 l 551 352 l 1000 352 l 1000 233 l 551 233 l 551 -421 l 433 -421 z "},"╓":{"ha":984,"x_min":304,"x_max":1000,"o":"m 304 -421 l 304 481 l 1000 481 l 1000 362 l 680 362 l 680 -421 l 562 -421 l 562 352 l 422 352 l 422 -421 l 304 -421 z "},"╔":{"ha":984,"x_min":304,"x_max":999,"o":"m 422 -421 l 304 -421 l 304 610 l 999 610 l 999 491 l 422 491 l 422 -421 m 680 233 l 680 -421 l 562 -421 l 562 352 l 999 352 l 999 233 l 680 233 z "},"╕":{"ha":984,"x_min":-16,"x_max":551,"o":"m 432 233 l -16 233 l -16 352 l 432 352 l 432 491 l -16 491 l -16 610 l 551 610 l 551 -421 l 432 -421 l 432 233 z "},"╖":{"ha":984,"x_min":-16,"x_max":680,"o":"m 303 -421 l 304 362 l -16 362 l -16 481 l 680 481 l 680 -421 l 561 -421 l 561 362 l 422 362 l 422 -421 l 303 -421 z "},"╗":{"ha":984,"x_min":-16,"x_max":680,"o":"m 561 -421 l 561 491 l -16 491 l -16 610 l 680 610 l 680 -421 l 561 -421 m 303 233 l -16 233 l -16 352 l 422 352 l 422 -421 l 303 -421 l 303 233 z "},"╘":{"ha":984,"x_min":433,"x_max":1000,"o":"m 433 233 l 433 1264 l 551 1264 l 551 610 l 1000 610 l 1000 491 l 551 491 l 551 352 l 1000 352 l 1000 233 l 433 233 z "},"╙":{"ha":984,"x_min":304,"x_max":1000,"o":"m 1000 362 l 304 362 l 304 1264 l 422 1264 l 422 481 l 562 481 l 562 1264 l 680 1264 l 680 481 l 1000 481 l 1000 362 z "},"╚":{"ha":984,"x_min":304,"x_max":999,"o":"m 422 1264 l 422 352 l 999 352 l 999 233 l 304 233 l 304 1264 l 422 1264 m 680 610 l 999 610 l 999 491 l 562 491 l 562 1264 l 680 1264 l 680 610 z "},"╛":{"ha":984,"x_min":-16,"x_max":551,"o":"m 551 233 l -16 233 l -16 352 l 432 352 l 432 491 l -16 491 l -16 610 l 432 610 l 432 1264 l 551 1264 l 551 233 z "},"╜":{"ha":984,"x_min":-16,"x_max":680,"o":"m 680 362 l -16 362 l -16 481 l 303 481 l 303 1264 l 422 1264 l 422 481 l 561 481 l 561 1264 l 680 1264 l 680 362 z "},"╝":{"ha":984,"x_min":-16,"x_max":680,"o":"m 561 1264 l 680 1264 l 680 233 l -16 233 l -16 352 l 561 352 l 561 1264 m 303 610 l 303 1264 l 422 1264 l 422 491 l -16 491 l -16 610 l 303 610 z "},"╞":{"ha":984,"x_min":433,"x_max":1000,"o":"m 433 -421 l 433 1264 l 551 1264 l 551 610 l 1000 610 l 1000 491 l 551 491 l 551 352 l 1000 352 l 1000 233 l 551 233 l 551 -421 l 433 -421 z "},"╟":{"ha":984,"x_min":304,"x_max":1000,"o":"m 562 -421 l 562 1264 l 680 1264 l 680 481 l 1000 481 l 1000 362 l 680 362 l 680 -421 l 562 -421 m 304 -421 l 304 1264 l 422 1264 l 422 -421 l 304 -421 z "},"╠":{"ha":984,"x_min":304,"x_max":1000,"o":"m 304 -421 l 304 1264 l 422 1264 l 422 -421 l 304 -421 m 562 491 l 562 1264 l 680 1264 l 680 610 l 1000 610 l 1000 491 l 562 491 m 562 -421 l 562 352 l 1000 352 l 1000 233 l 680 233 l 680 -421 l 562 -421 z "},"╡":{"ha":984,"x_min":-16,"x_max":551,"o":"m 432 233 l -16 233 l -16 352 l 433 352 l 432 491 l -16 491 l -16 610 l 432 610 l 432 1264 l 551 1264 l 551 -421 l 432 -421 l 432 233 z "},"╢":{"ha":984,"x_min":-16,"x_max":680,"o":"m 303 -421 l 304 362 l -16 362 l -16 481 l 303 481 l 303 1264 l 422 1264 l 422 -421 l 303 -421 m 561 -421 l 561 1264 l 680 1264 l 680 -421 l 561 -421 z "},"╣":{"ha":984,"x_min":-16,"x_max":680,"o":"m 561 -421 l 561 1264 l 680 1264 l 680 -421 l 561 -421 m 422 1264 l 422 491 l -16 491 l -16 610 l 303 610 l 303 1264 l 422 1264 m 303 233 l -16 233 l -16 352 l 422 352 l 422 -421 l 303 -421 l 303 233 z "},"╤":{"ha":984,"x_min":-16,"x_max":999,"o":"m 999 491 l -16 491 l -16 610 l 999 610 l 999 491 m 432 233 l -16 233 l -16 352 l 999 352 l 999 233 l 551 233 l 551 -421 l 432 -421 l 432 233 z "},"╥":{"ha":984,"x_min":-16,"x_max":999,"o":"m 303 -421 l 304 362 l -16 362 l -16 481 l 999 481 l 999 362 l 680 362 l 680 -421 l 561 -421 l 561 352 l 422 352 l 422 -421 l 303 -421 z "},"╦":{"ha":984,"x_min":-16,"x_max":999,"o":"m 999 491 l -16 491 l -16 610 l 999 610 l 999 491 m 303 233 l -16 233 l -16 352 l 422 352 l 422 -421 l 303 -421 l 303 233 m 561 -421 l 561 352 l 999 352 l 999 233 l 680 233 l 680 -421 l 561 -421 z "},"╧":{"ha":984,"x_min":-16,"x_max":999,"o":"m 999 491 l -16 491 l -16 610 l 432 610 l 432 1264 l 551 1264 l 551 610 l 999 610 l 999 491 m 999 233 l -16 233 l -16 352 l 999 352 l 999 233 z "},"╨":{"ha":984,"x_min":-16,"x_max":999,"o":"m 999 362 l -16 362 l -16 481 l 303 481 l 303 1264 l 422 1264 l 422 481 l 561 481 l 561 1264 l 680 1264 l 680 481 l 999 481 l 999 362 z "},"╩":{"ha":984,"x_min":-16,"x_max":999,"o":"m 422 491 l -16 491 l -16 610 l 303 610 l 303 1264 l 422 1264 l 422 491 m 999 491 l 561 491 l 561 1264 l 680 1264 l 680 610 l 999 610 l 999 491 m 999 233 l -16 233 l -16 352 l 999 352 l 999 233 z "},"╪":{"ha":984,"x_min":-16,"x_max":999,"o":"m 432 233 l -16 233 l -16 352 l 432 352 l 432 491 l -16 491 l -16 610 l 432 610 l 432 1264 l 551 1264 l 551 610 l 999 610 l 999 491 l 551 491 l 551 352 l 999 352 l 999 233 l 551 233 l 551 -421 l 432 -421 l 432 233 z "},"╫":{"ha":984,"x_min":-16,"x_max":999,"o":"m 303 -421 l 304 362 l -16 362 l -16 481 l 303 481 l 303 1264 l 422 1264 l 422 481 l 561 481 l 561 1264 l 680 1264 l 680 481 l 999 481 l 999 362 l 680 362 l 680 -421 l 561 -421 l 561 362 l 422 362 l 422 -421 l 303 -421 z "},"╬":{"ha":984,"x_min":-16,"x_max":999,"o":"m 680 610 l 999 610 l 999 491 l 562 491 l 562 1264 l 680 1264 l 680 610 m 303 610 l 303 1264 l 422 1264 l 422 491 l -16 491 l -16 610 l 303 610 m 303 233 l -16 233 l -16 352 l 422 352 l 422 -421 l 303 -421 l 303 233 m 680 233 l 680 -421 l 562 -421 l 562 352 l 999 352 l 999 233 l 680 233 z "},"▀":{"ha":984,"x_min":-16,"x_max":999,"o":"m 999 421 l -16 421 l -16 1264 l 999 1264 l 999 421 z "},"▄":{"ha":984,"x_min":-16,"x_max":999,"o":"m 999 -421 l -16 -421 l -16 421 l 999 421 l 999 -421 z "},"█":{"ha":984,"x_min":-16,"x_max":999,"o":"m -16 -421 l -16 1264 l 999 1264 l 999 -421 l -16 -421 z "},"▌":{"ha":984,"x_min":-16,"x_max":492,"o":"m -16 -421 l -16 1264 l 492 1264 l 492 -421 l -16 -421 z "},"▐":{"ha":984,"x_min":492,"x_max":1000,"o":"m 492 -421 l 492 1264 l 1000 1264 l 1000 -421 l 492 -421 z "},"░":{"ha":984,"x_min":69,"x_max":999,"o":"m 69 1264 l 154 1264 l 154 1179 l 69 1179 l 69 1264 m 407 1264 l 492 1264 l 492 1179 l 407 1179 l 407 1264 m 745 1264 l 830 1264 l 830 1179 l 745 1179 l 745 1264 m 238 1095 l 323 1095 l 323 1010 l 238 1010 l 238 1095 m 576 1095 l 661 1095 l 661 1010 l 576 1010 l 576 1095 m 914 1095 l 999 1095 l 999 1010 l 914 1010 l 914 1095 m 745 926 l 830 926 l 830 842 l 745 842 l 745 926 m 407 926 l 492 926 l 492 842 l 407 842 l 407 926 m 69 926 l 154 926 l 154 842 l 69 842 l 69 926 m 914 757 l 999 757 l 999 673 l 914 673 l 914 757 m 576 757 l 661 757 l 661 673 l 576 673 l 576 757 m 238 757 l 323 757 l 323 673 l 238 673 l 238 757 m 69 588 l 154 588 l 154 503 l 69 503 l 69 588 m 407 588 l 492 588 l 492 503 l 407 503 l 407 588 m 745 588 l 830 588 l 830 503 l 745 503 l 745 588 m 914 419 l 999 419 l 999 334 l 914 334 l 914 419 m 576 419 l 661 419 l 661 334 l 576 334 l 576 419 m 238 419 l 323 419 l 323 334 l 238 334 l 238 419 m 69 250 l 154 250 l 154 165 l 69 165 l 69 250 m 407 250 l 492 250 l 492 165 l 407 165 l 407 250 m 745 250 l 830 250 l 830 165 l 745 165 l 745 250 m 238 81 l 323 81 l 323 -3 l 238 -3 l 238 81 m 576 81 l 661 81 l 661 -3 l 576 -3 l 576 81 m 914 81 l 999 81 l 999 -3 l 914 -3 l 914 81 m 745 -88 l 830 -88 l 830 -173 l 745 -173 l 745 -88 m 407 -88 l 492 -88 l 492 -173 l 407 -173 l 407 -88 m 69 -88 l 154 -88 l 154 -173 l 69 -173 l 69 -88 m 238 -257 l 323 -257 l 323 -342 l 238 -342 l 238 -257 m 576 -257 l 661 -257 l 661 -342 l 576 -342 l 576 -257 m 914 -257 l 999 -257 l 999 -342 l 914 -342 l 914 -257 z "},"▒":{"ha":984,"x_min":-15,"x_max":999,"o":"m 70 1264 l 154 1264 l 154 1179 l 70 1179 l 70 1264 m 239 1264 l 323 1264 l 323 1179 l 239 1179 l 239 1264 m 408 1264 l 492 1264 l 492 1179 l 408 1179 l 408 1264 m 576 1264 l 661 1264 l 661 1179 l 576 1179 l 576 1264 m 746 1264 l 830 1264 l 830 1179 l 746 1179 l 746 1264 m 915 1264 l 999 1264 l 999 1179 l 915 1179 l 915 1264 m -15 1095 l 70 1095 l 70 1010 l -15 1010 l -15 1095 m 154 1095 l 239 1095 l 239 1010 l 154 1010 l 154 1095 m 323 1095 l 408 1095 l 408 1010 l 323 1010 l 323 1095 m 492 1095 l 576 1095 l 576 1010 l 492 1010 l 492 1095 m 661 1095 l 746 1095 l 746 1010 l 661 1010 l 661 1095 m 830 1095 l 915 1095 l 915 1010 l 830 1010 l 830 1095 m 70 926 l 154 926 l 154 842 l 70 842 l 70 926 m 239 926 l 323 926 l 323 842 l 239 842 l 239 926 m 408 926 l 492 926 l 492 842 l 408 842 l 408 926 m 576 926 l 661 926 l 661 842 l 576 842 l 576 926 m 746 926 l 830 926 l 830 842 l 746 842 l 746 926 m 915 926 l 999 926 l 999 842 l 915 842 l 915 926 m -15 757 l 70 757 l 70 673 l -15 673 l -15 757 m 154 757 l 239 757 l 239 673 l 154 673 l 154 757 m 323 757 l 408 757 l 408 673 l 323 673 l 323 757 m 492 757 l 576 757 l 576 673 l 492 673 l 492 757 m 661 757 l 746 757 l 746 673 l 661 673 l 661 757 m 830 757 l 915 757 l 915 673 l 830 673 l 830 757 m 70 588 l 154 588 l 154 503 l 70 503 l 70 588 m 239 588 l 323 588 l 323 503 l 239 503 l 239 588 m 408 588 l 492 588 l 492 503 l 408 503 l 408 588 m 576 588 l 661 588 l 661 503 l 576 503 l 576 588 m 746 588 l 830 588 l 830 503 l 746 503 l 746 588 m 915 588 l 999 588 l 999 503 l 915 503 l 915 588 m -15 419 l 70 419 l 70 334 l -15 334 l -15 419 m 323 419 l 408 419 l 408 334 l 323 334 l 323 419 m 492 419 l 576 419 l 576 334 l 492 334 l 492 419 m 661 419 l 746 419 l 746 334 l 661 334 l 661 419 m 830 419 l 915 419 l 915 334 l 830 334 l 830 419 m 154 419 l 239 419 l 239 334 l 154 334 l 154 419 m 915 250 l 999 250 l 999 165 l 915 165 l 915 250 m 746 250 l 830 250 l 830 165 l 746 165 l 746 250 m 576 250 l 661 250 l 661 165 l 576 165 l 576 250 m 408 250 l 492 250 l 492 165 l 408 165 l 408 250 m 239 250 l 323 250 l 323 165 l 239 165 l 239 250 m 70 250 l 154 250 l 154 165 l 70 165 l 70 250 m -15 81 l 70 81 l 70 -3 l -15 -3 l -15 81 m 154 81 l 239 81 l 239 -3 l 154 -3 l 154 81 m 323 81 l 408 81 l 408 -3 l 323 -3 l 323 81 m 492 81 l 576 81 l 576 -3 l 492 -3 l 492 81 m 661 81 l 746 81 l 746 -3 l 661 -3 l 661 81 m 830 81 l 915 81 l 915 -3 l 830 -3 l 830 81 m 915 -88 l 999 -88 l 999 -173 l 915 -173 l 915 -88 m 746 -88 l 830 -88 l 830 -173 l 746 -173 l 746 -88 m 576 -88 l 661 -88 l 661 -173 l 576 -173 l 576 -88 m 408 -88 l 492 -88 l 492 -173 l 408 -173 l 408 -88 m 239 -88 l 323 -88 l 323 -173 l 239 -173 l 239 -88 m 70 -88 l 154 -88 l 154 -173 l 70 -173 l 70 -88 m -15 -257 l 70 -257 l 70 -342 l -15 -342 l -15 -257 m 154 -257 l 239 -257 l 239 -342 l 154 -342 l 154 -257 m 323 -257 l 408 -257 l 408 -342 l 323 -342 l 323 -257 m 492 -257 l 576 -257 l 576 -342 l 492 -342 l 492 -257 m 661 -257 l 746 -257 l 746 -342 l 661 -342 l 661 -257 m 830 -257 l 915 -257 l 915 -342 l 830 -342 l 830 -257 z "},"▓":{"ha":1013,"x_min":-1,"x_max":1013,"o":"m 1013 1010 l 1013 757 l 929 757 l 929 673 l 1013 673 l 1013 419 l 929 419 l 929 334 l 1013 334 l 1013 81 l 929 81 l 929 -3 l 1013 -3 l 1013 -257 l 929 -257 l 929 -342 l 1013 -342 l 1013 -426 l -1 -426 l -1 -173 l 84 -173 l 84 -88 l -1 -88 l -1 165 l 84 165 l 84 250 l -1 250 l -1 503 l 84 503 l 84 588 l -1 588 l -1 842 l 84 842 l 84 926 l -1 926 l -1 1179 l 84 1179 l 84 1264 l 168 1264 l 168 1179 l 253 1179 l 253 1264 l 337 1264 l 337 1179 l 422 1179 l 422 1264 l 507 1264 l 507 1179 l 591 1179 l 591 1264 l 675 1264 l 675 1179 l 760 1179 l 760 1264 l 844 1264 l 844 1179 l 929 1179 l 929 1264 l 1013 1264 l 1013 1095 l 929 1095 l 929 1010 l 1013 1010 m 84 1095 l 84 1010 l 168 1010 l 168 1095 l 84 1095 m 253 1095 l 253 1010 l 337 1010 l 337 1095 l 253 1095 m 422 1095 l 422 1010 l 507 1010 l 507 1095 l 422 1095 m 591 1095 l 591 1010 l 675 1010 l 675 1095 l 591 1095 m 760 1095 l 760 1010 l 844 1010 l 844 1095 l 760 1095 m 929 926 l 844 926 l 844 842 l 929 842 l 929 926 m 760 926 l 675 926 l 675 842 l 760 842 l 760 926 m 591 926 l 507 926 l 507 842 l 591 842 l 591 926 m 422 926 l 337 926 l 337 842 l 422 842 l 422 926 m 253 926 l 168 926 l 168 842 l 253 842 l 253 926 m 84 757 l 84 673 l 168 673 l 168 757 l 84 757 m 253 757 l 253 673 l 337 673 l 337 757 l 253 757 m 422 757 l 422 673 l 507 673 l 507 757 l 422 757 m 591 757 l 591 673 l 675 673 l 675 757 l 591 757 m 760 757 l 760 673 l 844 673 l 844 757 l 760 757 m 253 588 l 168 588 l 168 503 l 253 503 l 253 588 m 337 588 l 337 503 l 422 503 l 422 588 l 337 588 m 507 588 l 507 503 l 591 503 l 591 588 l 507 588 m 675 588 l 675 503 l 760 503 l 760 588 l 675 588 m 844 588 l 844 503 l 929 503 l 929 588 l 844 588 m 84 419 l 84 334 l 168 334 l 168 419 l 84 419 m 422 419 l 422 334 l 507 334 l 507 419 l 422 419 m 337 334 l 337 419 l 253 419 l 253 334 l 337 334 m 591 419 l 591 334 l 675 334 l 675 419 l 591 419 m 760 419 l 760 334 l 844 334 l 844 419 l 760 419 m 929 165 l 929 250 l 844 250 l 844 165 l 929 165 m 760 165 l 760 250 l 675 250 l 675 165 l 760 165 m 591 165 l 591 250 l 507 250 l 507 165 l 591 165 m 422 165 l 422 250 l 337 250 l 337 165 l 422 165 m 253 165 l 253 250 l 168 250 l 168 165 l 253 165 m 84 81 l 84 -3 l 168 -3 l 168 81 l 84 81 m 253 81 l 253 -3 l 337 -3 l 337 81 l 253 81 m 422 81 l 422 -3 l 507 -3 l 507 81 l 422 81 m 591 81 l 591 -3 l 675 -3 l 675 81 l 591 81 m 760 81 l 760 -3 l 844 -3 l 844 81 l 760 81 m 929 -173 l 929 -88 l 844 -88 l 844 -173 l 929 -173 m 760 -173 l 760 -88 l 675 -88 l 675 -173 l 760 -173 m 591 -173 l 591 -88 l 507 -88 l 507 -173 l 591 -173 m 422 -173 l 422 -88 l 337 -88 l 337 -173 l 422 -173 m 253 -173 l 253 -88 l 168 -88 l 168 -173 l 253 -173 m 84 -257 l 84 -342 l 168 -342 l 168 -257 l 84 -257 m 253 -257 l 253 -342 l 337 -342 l 337 -257 l 253 -257 m 422 -257 l 422 -342 l 507 -342 l 507 -257 l 422 -257 m 591 -257 l 591 -342 l 675 -342 l 675 -257 l 591 -257 m 760 -257 l 760 -342 l 844 -342 l 844 -257 l 760 -257 z "},"■":{"ha":839,"x_min":99,"x_max":739,"o":"m 99 640 l 739 640 l 739 0 l 99 0 l 99 640 z "},"▬":{"ha":1389,"x_min":0,"x_max":1388,"o":"m 0 477 l 1388 477 l 1388 215 l 0 215 l 0 477 z "},"▲":{"ha":1375,"x_min":206,"x_max":1169,"o":"m 206 0 l 688 962 l 1169 0 l 206 0 z "},"►":{"ha":1375,"x_min":195,"x_max":1179,"o":"m 195 961 l 1179 470 l 195 -21 l 195 961 z "},"▼":{"ha":1375,"x_min":206,"x_max":1169,"o":"m 1169 941 l 688 -21 l 206 941 l 1169 941 z "},"◄":{"ha":1375,"x_min":195,"x_max":1179,"o":"m 1179 961 l 1179 -21 l 195 470 l 1179 961 z "},"○":{"ha":839,"x_min":121,"x_max":718,"o":"m 419 690 q 566 652 494 690 q 678 541 638 613 q 718 392 718 469 q 631 180 718 268 q 420 93 543 93 q 208 180 296 93 q 121 392 121 268 q 161 542 121 470 q 273 652 201 613 q 419 690 345 690 m 420 639 q 244 567 317 639 q 172 392 172 494 q 245 217 172 290 q 420 144 317 144 q 594 217 522 144 q 667 392 667 290 q 633 515 667 456 q 541 607 600 575 q 420 639 482 639 z "},"◘":{"ha":839,"x_min":87,"x_max":751,"o":"m 87 0 l 87 665 l 751 665 l 751 0 l 87 0 m 419 469 q 322 429 362 469 q 282 332 282 389 q 322 236 282 276 q 419 195 363 195 q 516 236 476 195 q 556 332 556 276 q 516 429 556 389 q 419 469 476 469 z "},"◙":{"ha":839,"x_min":28,"x_max":812,"o":"m 28 0 l 28 783 l 812 783 l 812 0 l 28 0 m 420 690 q 273 652 345 690 q 161 541 201 613 q 121 391 121 469 q 209 180 121 268 q 420 93 296 93 q 631 180 544 93 q 719 391 719 268 q 679 541 719 469 q 567 652 639 613 q 420 690 496 690 m 420 639 q 542 607 482 639 q 634 516 601 575 q 667 391 667 456 q 595 217 667 289 q 420 144 523 144 q 245 217 317 144 q 173 391 173 289 q 206 516 173 456 q 299 607 239 575 q 420 639 358 639 z "},"☺":{"ha":1418,"x_min":277,"x_max":1141,"o":"m 1141 351 q 1015 46 1141 172 q 709 -81 888 -81 q 404 46 530 -81 q 277 351 277 172 q 404 657 277 531 q 709 784 530 784 q 1015 657 888 784 q 1141 351 1141 531 m 1079 351 q 971 613 1079 505 q 709 721 863 721 q 448 613 556 721 q 340 351 340 505 q 448 91 340 199 q 709 -18 556 -18 q 971 91 863 -18 q 1079 351 1079 199 m 598 441 q 582 402 598 418 q 543 386 566 386 q 505 402 521 386 q 488 441 488 418 q 505 480 488 464 q 543 496 521 496 q 582 480 566 496 q 598 441 598 464 m 930 441 q 914 402 930 418 q 875 386 898 386 q 836 402 852 386 q 820 441 820 418 q 836 480 820 464 q 875 496 852 496 q 914 480 898 496 q 930 441 930 464 m 510 212 l 552 237 q 709 139 606 139 q 866 237 813 139 l 909 212 q 825 114 875 148 q 709 80 775 80 q 593 114 643 80 q 510 212 544 148 z "},"☻":{"ha":1461,"x_min":298,"x_max":1163,"o":"m 1163 351 q 1037 46 1163 172 q 731 -81 910 -81 q 425 46 552 -81 q 298 351 298 172 q 425 657 298 531 q 731 784 552 784 q 1037 657 910 784 q 1163 351 1163 531 m 620 441 q 604 480 620 464 q 565 496 588 496 q 526 480 543 496 q 510 441 510 464 q 526 402 510 418 q 565 386 543 386 q 604 402 588 386 q 620 441 620 418 m 951 441 q 936 480 951 464 q 897 496 920 496 q 858 480 874 496 q 842 441 842 464 q 858 402 842 418 q 897 386 874 386 q 936 402 920 386 q 951 441 951 418 m 532 212 q 615 114 566 148 q 731 80 665 80 q 847 114 797 80 q 930 212 897 148 l 888 237 q 731 139 835 139 q 574 237 627 139 l 532 212 z "},"☼":{"ha":1273,"x_min":11,"x_max":1263,"o":"m 612 1099 l 663 1099 l 663 871 q 786 845 732 866 q 900 775 840 823 l 1097 968 l 1132 932 l 938 738 q 1008 623 987 673 q 1035 495 1034 558 l 1263 495 l 1263 448 l 1036 448 q 939 213 1023 320 l 1132 16 l 1093 -18 l 901 173 q 785 105 835 124 q 663 77 736 85 l 663 -151 l 612 -151 l 612 77 q 484 109 536 87 q 378 171 432 130 l 178 -18 l 144 17 l 337 211 q 269 323 292 268 q 239 451 246 379 l 11 451 l 11 498 l 239 498 q 267 624 245 570 q 336 734 290 677 l 144 929 l 176 968 l 374 777 q 496 845 443 824 q 612 871 549 865 l 612 1099 m 983 474 q 881 720 983 618 q 635 821 779 821 q 390 720 492 821 q 288 474 288 618 q 390 228 288 330 q 635 126 492 126 q 881 228 779 126 q 983 474 983 330 z "},"♀":{"ha":1042,"x_min":165,"x_max":876,"o":"m 540 313 l 540 40 l 851 40 l 851 0 l 540 0 l 540 -298 l 500 -298 l 500 0 l 188 0 l 188 40 l 500 40 l 500 313 q 347 357 430 313 q 215 487 264 401 q 165 667 165 572 q 213 844 165 759 q 344 975 260 928 q 521 1022 428 1022 q 697 975 613 1022 q 829 843 782 928 q 876 667 876 759 q 778 422 876 525 q 540 313 681 319 m 520 984 q 364 943 440 984 q 245 825 288 902 q 202 666 202 749 q 295 440 202 534 q 520 347 389 347 q 746 440 652 347 q 839 666 839 534 q 796 825 839 749 q 677 943 753 902 q 520 984 601 984 z "},"♂":{"ha":1042,"x_min":75,"x_max":960,"o":"m 825 1099 l 849 1088 l 960 636 l 921 626 l 825 1020 l 582 499 q 734 362 682 448 q 785 178 785 276 q 739 1 785 85 q 607 -131 692 -83 q 430 -178 523 -178 q 253 -131 338 -178 q 122 1 169 -83 q 75 178 75 85 q 179 429 75 325 q 432 532 283 532 q 545 514 485 532 l 789 1037 l 425 857 l 408 893 l 825 1099 m 430 496 q 274 455 350 496 q 155 337 197 414 q 112 178 112 260 q 205 -48 112 45 q 430 -141 298 -141 q 655 -48 562 -141 q 749 178 749 45 q 706 337 749 260 q 587 455 663 414 q 430 496 511 496 z "},"♠":{"ha":738,"x_min":39,"x_max":699,"o":"m 370 835 q 424 704 387 762 q 554 561 460 646 q 673 431 648 476 q 699 338 699 385 q 655 230 699 273 q 549 186 612 186 q 377 315 445 186 q 403 157 378 216 q 485 65 429 98 q 633 25 541 31 l 638 0 l 100 0 l 106 25 q 299 98 231 25 q 366 315 368 171 q 290 219 335 251 q 188 186 245 186 q 83 231 127 186 q 39 336 39 275 q 62 426 39 386 q 167 543 92 481 q 315 699 262 622 q 370 835 353 755 z "},"♣":{"ha":911,"x_min":37,"x_max":873,"o":"m 745 0 l 170 0 l 175 23 q 323 70 287 47 q 413 172 378 104 q 448 315 448 240 q 448 347 448 326 q 347 224 406 262 q 226 185 288 185 q 92 240 147 185 q 37 375 37 295 q 87 508 37 454 q 201 562 138 562 q 312 527 242 562 q 275 598 283 574 q 267 650 267 623 q 320 781 267 728 q 454 835 374 835 q 588 781 534 835 q 643 654 643 728 q 596 527 643 593 q 665 557 653 554 q 706 563 683 563 q 824 510 774 563 q 873 378 873 456 q 819 241 873 296 q 688 186 764 186 q 600 207 645 186 q 522 262 555 227 q 463 347 498 287 q 495 176 465 239 q 588 72 526 113 q 739 23 630 44 l 745 0 z "},"♥":{"ha":825,"x_min":43,"x_max":782,"o":"m 414 -16 q 354 134 393 64 q 203 352 315 204 q 102 490 121 460 q 57 577 71 537 q 43 657 43 616 q 93 783 43 732 q 217 834 143 834 q 347 781 292 834 q 414 664 388 742 q 491 793 439 751 q 607 835 543 835 q 731 784 680 835 q 782 664 782 734 q 752 537 782 603 q 637 363 722 471 q 480 142 526 223 q 414 -16 435 62 z "},"♦":{"ha":709,"x_min":43,"x_max":666,"o":"m 353 835 q 509 606 414 732 q 666 410 604 479 q 502 205 616 357 q 354 -16 410 81 q 233 166 325 39 q 43 410 170 254 q 220 632 112 488 q 353 835 300 739 z "},"♪":{"ha":694,"x_min":25,"x_max":669,"o":"m 330 924 l 355 924 q 509 915 472 924 q 604 863 563 901 q 652 782 634 834 q 669 661 669 730 l 669 591 l 602 591 l 602 621 q 583 699 602 667 q 526 748 564 731 q 416 770 476 770 l 397 770 l 397 203 q 375 76 397 121 q 300 2 353 30 q 185 -25 248 -25 q 68 17 111 -25 q 25 126 25 58 q 77 246 25 197 q 212 294 128 294 q 330 263 264 294 l 330 924 z "},"♫":{"ha":1042,"x_min":58,"x_max":902,"o":"m 362 862 l 902 1030 l 902 279 q 881 152 902 195 q 808 81 859 109 q 692 54 757 54 q 574 96 618 54 q 530 205 530 138 q 583 322 530 273 q 718 372 635 372 q 765 367 745 372 q 833 342 786 362 l 833 833 l 429 708 l 429 141 q 408 13 429 59 q 333 -60 386 -33 q 218 -87 280 -87 q 101 -45 144 -87 q 58 64 58 -3 q 109 183 58 135 q 244 232 161 232 q 362 201 297 232 l 362 862 z "},"Ĳ":{"ha":1086,"x_min":48,"x_max":1152,"o":"m 48 0 l 256 994 l 460 994 l 253 0 l 48 0 m 951 994 l 1152 994 l 1027 392 q 895 68 977 153 q 645 -17 814 -17 q 431 49 502 -17 q 359 228 359 115 q 363 281 359 252 l 552 301 q 548 252 548 271 q 575 179 548 204 q 659 154 602 154 q 769 200 737 154 q 827 399 793 235 l 951 994 z "},"ĳ":{"ha":772,"x_min":64,"x_max":840,"o":"m 272 994 l 467 994 l 430 818 l 235 818 l 272 994 m 215 720 l 410 720 l 259 0 l 64 0 l 215 720 m 644 994 l 840 994 l 803 818 l 608 818 l 644 994 m 587 720 l 783 720 l 654 111 q 562 -206 600 -151 q 374 -292 503 -292 q 228 -271 294 -292 l 258 -110 q 337 -121 305 -121 q 400 -91 376 -121 q 463 123 424 -60 l 587 720 z "},"ŉ":{"ha":984,"x_min":56,"x_max":951,"o":"m 141 994 l 337 994 l 304 839 q 215 648 277 704 q 56 590 154 592 l 75 680 q 151 719 124 691 q 191 806 177 747 l 101 806 l 141 994 m 338 720 l 523 720 l 504 627 q 633 712 573 686 q 760 737 693 737 q 900 686 848 737 q 951 551 951 635 q 928 408 951 513 l 844 0 l 649 0 l 734 409 q 753 518 753 500 q 731 577 753 555 q 670 598 709 598 q 575 562 627 598 q 493 467 523 526 q 444 296 471 425 l 382 0 l 188 0 l 338 720 z "},"′":{"ha":333,"x_min":210,"x_max":457,"o":"m 210 641 l 214 826 l 250 994 l 457 994 l 421 826 l 351 641 l 210 641 z "},"″":{"ha":665,"x_min":210,"x_max":704,"o":"m 210 641 l 214 826 l 250 994 l 457 994 l 421 826 l 351 641 l 210 641 m 457 641 l 460 826 l 496 994 l 704 994 l 668 826 l 597 641 l 457 641 z "},"℅":{"ha":1230,"x_min":96,"x_max":1243,"o":"m 414 689 l 545 667 q 450 535 513 581 q 302 489 387 489 q 152 546 208 489 q 96 703 96 603 q 130 856 96 783 q 232 970 163 928 q 380 1011 300 1011 q 522 965 469 1011 q 581 844 574 919 l 452 831 q 427 892 448 872 q 372 911 406 911 q 268 842 307 911 q 229 687 229 773 q 251 619 229 643 q 304 595 273 595 q 367 618 337 595 q 414 689 397 642 m 295 -43 l 139 -43 l 968 1011 l 1124 1011 l 295 -43 m 725 207 q 803 428 725 346 q 1008 511 882 511 q 1181 450 1119 511 q 1243 286 1243 389 q 1162 72 1243 156 q 958 -12 1080 -12 q 788 49 850 -12 q 725 207 725 110 m 1109 303 q 1081 380 1109 351 q 1009 409 1053 409 q 899 345 938 409 q 861 209 861 281 q 890 124 861 156 q 963 93 919 93 q 1056 140 1018 93 q 1109 303 1109 207 z "},"ℓ":{"ha":717,"x_min":66,"x_max":753,"o":"m 73 277 l 66 446 q 185 489 127 467 q 274 809 222 700 q 398 965 326 918 q 544 1011 470 1011 q 693 952 633 1011 q 753 808 753 893 q 658 583 753 686 q 357 386 564 480 q 326 194 326 252 q 342 145 326 163 q 386 128 358 128 q 609 211 469 128 l 570 36 q 470 -5 513 6 q 376 -17 427 -17 q 203 45 267 -17 q 139 203 139 108 q 149 302 139 235 l 73 277 m 401 589 q 549 704 507 649 q 591 806 591 759 q 578 846 591 831 q 548 861 566 861 q 497 840 523 861 q 450 761 471 818 q 401 589 435 720 z "},"□":{"ha":839,"x_min":99,"x_max":739,"o":"m 99 640 l 739 640 l 739 0 l 99 0 l 99 640 m 151 589 l 151 52 l 688 52 l 688 589 l 151 589 z "},"▪":{"ha":492,"x_min":62,"x_max":431,"o":"m 431 643 l 431 275 l 62 275 l 62 643 l 431 643 z "},"▫":{"ha":492,"x_min":62,"x_max":431,"o":"m 431 643 l 431 275 l 62 275 l 62 643 l 431 643 m 379 591 l 114 591 l 114 326 l 379 326 l 379 591 z "},"●":{"ha":839,"x_min":121,"x_max":718,"o":"m 420 690 q 566 652 494 690 q 678 541 638 613 q 718 392 718 469 q 631 180 718 268 q 420 93 543 93 q 208 180 296 93 q 121 392 121 268 q 161 542 121 470 q 273 652 201 613 q 420 690 345 690 z "},"◦":{"ha":492,"x_min":76,"x_max":416,"o":"m 246 629 q 367 579 317 629 q 416 459 416 530 q 367 339 416 389 q 246 289 317 289 q 126 339 176 289 q 76 459 76 389 q 125 579 76 530 q 246 629 175 629 m 246 578 q 162 543 197 578 q 127 459 127 508 q 162 375 127 410 q 246 340 197 340 q 330 375 295 340 q 365 459 365 410 q 330 543 365 508 q 246 578 296 578 z "},"Ā":{"ha":1003,"x_min":-16,"x_max":935,"o":"m 708 220 l 314 220 l 195 0 l -16 0 l 547 994 l 774 994 l 935 0 l 741 0 l 708 220 m 683 385 l 625 785 l 385 385 l 683 385 m 483 1213 l 917 1213 l 890 1082 l 456 1082 l 483 1213 z "},"ā":{"ha":772,"x_min":62,"x_max":749,"o":"m 330 516 l 140 532 q 254 683 173 629 q 469 737 335 737 q 674 681 608 737 q 741 545 741 625 q 735 475 741 512 q 694 283 729 439 q 666 102 666 154 q 682 0 666 56 l 493 0 q 479 81 481 39 q 380 8 436 34 q 269 -17 325 -17 q 121 42 179 -17 q 62 193 62 100 q 126 357 62 296 q 355 432 191 419 q 541 460 494 444 q 553 525 553 500 q 528 577 553 556 q 454 598 503 598 q 371 577 401 598 q 330 516 341 555 m 515 336 q 469 327 498 331 q 277 275 322 309 q 245 210 245 251 q 270 152 245 176 q 334 129 294 129 q 417 150 378 129 q 476 205 456 172 q 510 310 495 239 l 515 336 m 315 968 l 749 968 l 722 837 l 288 837 l 315 968 z "},"Ĉ":{"ha":1003,"x_min":132,"x_max":1036,"o":"m 777 358 l 983 327 q 802 71 923 159 q 519 -18 682 -18 q 234 92 337 -18 q 132 411 132 202 q 200 721 132 581 q 391 937 269 862 q 657 1011 513 1011 q 918 925 819 1011 q 1036 689 1018 838 l 840 670 q 777 796 823 757 q 653 835 730 835 q 495 783 568 835 q 377 622 421 732 q 333 404 333 513 q 390 219 333 284 q 533 154 448 154 q 679 205 612 154 q 777 358 745 257 m 715 1204 l 595 1084 l 435 1084 l 637 1288 l 819 1288 l 901 1084 l 767 1084 l 715 1204 z "},"ĉ":{"ha":772,"x_min":83,"x_max":784,"o":"m 544 271 l 733 241 q 595 49 686 115 q 382 -17 503 -17 q 164 65 245 -17 q 83 291 83 147 q 132 513 83 408 q 279 677 181 617 q 495 737 378 737 q 699 671 623 737 q 784 496 774 604 l 599 476 q 562 565 592 536 q 483 593 532 593 q 378 551 427 593 q 303 426 329 509 q 277 269 277 342 q 308 170 277 205 q 386 136 339 136 q 476 170 433 136 q 544 271 519 203 m 559 932 l 439 812 l 279 812 l 481 1016 l 663 1016 l 745 812 l 611 812 l 559 932 z "},"Ċ":{"ha":1003,"x_min":132,"x_max":1036,"o":"m 777 358 l 983 327 q 802 71 923 159 q 519 -18 682 -18 q 234 92 337 -18 q 132 411 132 202 q 200 721 132 581 q 391 937 269 862 q 657 1011 513 1011 q 918 925 819 1011 q 1036 689 1018 838 l 840 670 q 777 796 823 757 q 653 835 730 835 q 495 783 568 835 q 377 622 421 732 q 333 404 333 513 q 390 219 333 284 q 533 154 448 154 q 679 205 612 154 q 777 358 745 257 m 622 1262 l 817 1262 l 779 1084 l 585 1084 l 622 1262 z "},"ċ":{"ha":772,"x_min":83,"x_max":784,"o":"m 544 271 l 733 241 q 595 49 686 115 q 382 -17 503 -17 q 164 65 245 -17 q 83 291 83 147 q 132 513 83 408 q 279 677 181 617 q 495 737 378 737 q 699 671 623 737 q 784 496 774 604 l 599 476 q 562 565 592 536 q 483 593 532 593 q 378 551 427 593 q 303 426 329 509 q 277 269 277 342 q 308 170 277 205 q 386 136 339 136 q 476 170 433 136 q 544 271 519 203 m 446 1010 l 641 1010 l 604 832 l 409 832 l 446 1010 z "},"Ē":{"ha":926,"x_min":57,"x_max":1002,"o":"m 57 0 l 264 994 l 1002 994 l 967 828 l 435 828 l 387 602 l 902 602 l 867 436 l 353 436 l 290 166 l 869 166 l 833 0 l 57 0 m 458 1213 l 892 1213 l 865 1082 l 431 1082 l 458 1213 z "},"ē":{"ha":772,"x_min":81,"x_max":770,"o":"m 757 300 l 269 300 q 268 282 268 288 q 309 166 268 210 q 409 122 350 122 q 560 222 506 122 l 734 193 q 598 36 684 88 q 408 -17 513 -17 q 172 75 262 -17 q 81 318 81 167 q 163 581 81 466 q 482 737 275 737 q 692 655 614 737 q 770 427 770 574 q 757 300 770 356 m 593 418 q 593 438 593 431 q 557 558 593 518 q 461 598 522 598 q 353 553 401 598 q 288 418 305 507 l 593 418 m 323 968 l 758 968 l 730 837 l 296 837 l 323 968 z "},"Ĕ":{"ha":926,"x_min":57,"x_max":1002,"o":"m 57 0 l 264 994 l 1002 994 l 967 828 l 435 828 l 387 602 l 902 602 l 867 436 l 353 436 l 290 166 l 869 166 l 833 0 l 57 0 m 464 1274 l 558 1274 q 600 1198 574 1219 q 666 1176 626 1176 q 800 1274 747 1176 l 889 1274 q 799 1129 861 1181 q 660 1078 736 1078 q 529 1127 581 1078 q 464 1274 477 1176 z "},"ĕ":{"ha":772,"x_min":81,"x_max":770,"o":"m 757 300 l 269 300 q 268 282 268 288 q 309 166 268 210 q 409 122 350 122 q 560 222 506 122 l 734 193 q 598 36 684 88 q 408 -17 513 -17 q 172 75 262 -17 q 81 318 81 167 q 163 581 81 466 q 482 737 275 737 q 692 655 614 737 q 770 427 770 574 q 757 300 770 356 m 593 418 q 593 438 593 431 q 557 558 593 518 q 461 598 522 598 q 353 553 401 598 q 288 418 305 507 l 593 418 m 315 1009 l 409 1009 q 451 932 425 954 q 517 911 477 911 q 650 1009 597 911 l 740 1009 q 650 864 712 916 q 511 812 587 812 q 380 862 431 812 q 315 1009 328 911 z "},"Ė":{"ha":926,"x_min":57,"x_max":1002,"o":"m 57 0 l 264 994 l 1002 994 l 967 828 l 435 828 l 387 602 l 902 602 l 867 436 l 353 436 l 290 166 l 869 166 l 833 0 l 57 0 m 583 1262 l 778 1262 l 741 1084 l 546 1084 l 583 1262 z "},"ė":{"ha":772,"x_min":81,"x_max":770,"o":"m 757 300 l 269 300 q 268 282 268 288 q 309 166 268 210 q 409 122 350 122 q 560 222 506 122 l 734 193 q 598 36 684 88 q 408 -17 513 -17 q 172 75 262 -17 q 81 318 81 167 q 163 581 81 466 q 482 737 275 737 q 692 655 614 737 q 770 427 770 574 q 757 300 770 356 m 593 418 q 593 438 593 431 q 557 558 593 518 q 461 598 522 598 q 353 553 401 598 q 288 418 305 507 l 593 418 m 435 1010 l 630 1010 l 593 832 l 398 832 l 435 1010 z "},"Ĝ":{"ha":1080,"x_min":123,"x_max":1091,"o":"m 610 531 l 1055 531 l 966 104 q 773 18 887 54 q 540 -17 659 -17 q 257 66 355 -17 q 123 397 123 180 q 180 675 123 542 q 377 923 250 835 q 677 1011 505 1011 q 953 931 849 1011 q 1091 698 1057 851 l 901 676 q 820 803 876 760 q 679 846 764 846 q 497 794 580 846 q 368 635 414 743 q 321 399 321 527 q 378 214 321 274 q 545 154 435 154 q 680 173 610 154 q 799 217 749 191 l 829 365 l 576 365 l 610 531 m 753 1204 l 634 1084 l 474 1084 l 675 1288 l 857 1288 l 940 1084 l 806 1084 l 753 1204 z "},"ĝ":{"ha":848,"x_min":43,"x_max":865,"o":"m 45 -38 l 251 -68 q 261 -115 251 -99 q 294 -142 271 -131 q 356 -153 317 -153 q 455 -129 418 -153 q 500 -68 483 -110 q 528 47 511 -41 l 535 81 q 326 -3 434 -3 q 153 72 220 -3 q 85 290 85 146 q 131 523 85 417 q 260 683 177 629 q 431 737 344 737 q 562 699 503 737 q 655 593 622 661 l 682 720 l 865 720 l 740 120 q 688 -86 709 -24 q 640 -184 667 -148 q 572 -246 613 -221 q 474 -281 530 -271 q 352 -292 418 -292 q 121 -240 199 -292 q 43 -66 43 -188 q 45 -38 43 -54 m 275 310 q 312 185 275 228 q 404 142 349 142 q 503 180 455 142 q 576 290 551 219 q 602 428 602 361 q 560 551 602 505 q 465 598 519 598 q 369 557 412 598 q 296 429 325 515 q 275 310 275 363 m 551 932 l 431 812 l 271 812 l 473 1016 l 654 1016 l 737 812 l 603 812 l 551 932 z "},"Ġ":{"ha":1080,"x_min":123,"x_max":1091,"o":"m 610 531 l 1055 531 l 966 104 q 773 18 887 54 q 540 -17 659 -17 q 257 66 355 -17 q 123 397 123 180 q 180 675 123 542 q 377 923 250 835 q 677 1011 505 1011 q 953 931 849 1011 q 1091 698 1057 851 l 901 676 q 820 803 876 760 q 679 846 764 846 q 497 794 580 846 q 368 635 414 743 q 321 399 321 527 q 378 214 321 274 q 545 154 435 154 q 680 173 610 154 q 799 217 749 191 l 829 365 l 576 365 l 610 531 m 631 1262 l 825 1262 l 788 1084 l 593 1084 l 631 1262 z "},"ġ":{"ha":848,"x_min":43,"x_max":865,"o":"m 45 -38 l 251 -68 q 261 -115 251 -99 q 294 -142 271 -131 q 356 -153 317 -153 q 455 -129 418 -153 q 500 -68 483 -110 q 528 47 511 -41 l 535 81 q 326 -3 434 -3 q 153 72 220 -3 q 85 290 85 146 q 131 523 85 417 q 260 683 177 629 q 431 737 344 737 q 562 699 503 737 q 655 593 622 661 l 682 720 l 865 720 l 740 120 q 688 -86 709 -24 q 640 -184 667 -148 q 572 -246 613 -221 q 474 -281 530 -271 q 352 -292 418 -292 q 121 -240 199 -292 q 43 -66 43 -188 q 45 -38 43 -54 m 275 310 q 312 185 275 228 q 404 142 349 142 q 503 180 455 142 q 576 290 551 219 q 602 428 602 361 q 560 551 602 505 q 465 598 519 598 q 369 557 412 598 q 296 429 325 515 q 275 310 275 363 m 457 1010 l 652 1010 l 614 832 l 420 832 l 457 1010 z "},"Ģ":{"ha":1080,"x_min":123,"x_max":1091,"o":"m 610 531 l 1055 531 l 966 104 q 773 18 887 54 q 540 -17 659 -17 q 257 66 355 -17 q 123 397 123 180 q 180 675 123 542 q 377 923 250 835 q 677 1011 505 1011 q 953 931 849 1011 q 1091 698 1057 851 l 901 676 q 820 803 876 760 q 679 846 764 846 q 497 794 580 846 q 368 635 414 743 q 321 399 321 527 q 378 214 321 274 q 545 154 435 154 q 680 173 610 154 q 799 217 749 191 l 829 365 l 576 365 l 610 531 m 421 -74 l 630 -74 l 610 -173 q 366 -380 569 -368 l 387 -275 q 479 -198 469 -264 l 395 -198 l 421 -74 z "},"ģ":{"ha":848,"x_min":43,"x_max":865,"o":"m 609 806 l 401 806 l 421 905 q 665 1113 461 1100 l 643 1007 q 551 930 561 997 l 635 930 l 609 806 m 45 -38 l 251 -68 q 359 -153 251 -153 q 449 -133 417 -153 q 497 -77 481 -112 q 528 47 512 -42 l 535 81 q 326 -3 435 -3 q 154 70 223 -3 q 85 293 85 143 q 125 510 85 404 q 251 676 166 615 q 431 737 335 737 q 569 695 512 737 q 655 593 626 652 l 682 720 l 865 720 l 740 120 q 669 -134 702 -59 q 563 -251 636 -210 q 353 -292 489 -292 q 178 -270 241 -292 q 79 -197 115 -248 q 43 -66 43 -147 q 45 -38 43 -54 m 275 310 q 311 186 275 231 q 404 142 347 142 q 546 230 490 142 q 602 427 602 318 q 563 548 602 498 q 465 598 524 598 q 327 499 379 598 q 275 310 275 401 z "},"Ĥ":{"ha":1003,"x_min":60,"x_max":1062,"o":"m 743 444 l 358 444 l 265 0 l 60 0 l 269 994 l 473 994 l 393 610 l 777 610 l 858 994 l 1062 994 l 854 0 l 650 0 l 743 444 m 711 1204 l 591 1084 l 431 1084 l 633 1288 l 814 1288 l 897 1084 l 763 1084 l 711 1204 z "},"ĥ":{"ha":848,"x_min":58,"x_max":834,"o":"m 253 0 l 58 0 l 267 994 l 461 994 l 387 640 q 509 714 452 692 q 631 737 566 737 q 770 687 719 737 q 821 555 821 637 q 802 421 821 512 l 713 0 l 519 0 l 609 429 q 623 519 623 499 q 601 576 623 555 q 540 598 578 598 q 446 564 491 598 q 357 454 388 519 q 313 286 340 418 l 253 0 m 648 1174 l 528 1053 l 368 1053 l 570 1257 l 751 1257 l 834 1053 l 700 1053 l 648 1174 z "},"Ħ":{"ha":1003,"x_min":60,"x_max":1136,"o":"m 216 742 l 116 742 l 142 862 l 241 862 l 269 994 l 473 994 l 445 862 l 830 862 l 858 994 l 1062 994 l 1034 862 l 1136 862 l 1110 742 l 1009 742 l 854 0 l 650 0 l 743 444 l 358 444 l 265 0 l 60 0 l 216 742 m 420 742 l 393 610 l 777 610 l 805 742 l 420 742 z "},"ħ":{"ha":848,"x_min":58,"x_max":821,"o":"m 420 799 l 387 640 q 631 737 505 737 q 774 683 727 737 q 821 555 821 629 q 802 421 821 512 l 713 0 l 519 0 l 609 429 q 623 523 623 498 q 602 575 623 553 q 541 598 581 598 q 435 555 488 598 q 361 463 382 513 q 313 286 340 414 l 253 0 l 58 0 l 225 799 l 142 799 l 168 919 l 250 919 l 267 994 l 461 994 l 446 919 l 651 919 l 625 799 l 420 799 z "},"Ĩ":{"ha":386,"x_min":48,"x_max":621,"o":"m 48 0 l 256 994 l 460 994 l 253 0 l 48 0 m 240 1084 l 155 1084 q 198 1200 173 1166 q 289 1247 235 1247 q 415 1214 324 1247 q 488 1195 468 1195 q 514 1205 503 1195 q 534 1248 525 1215 l 621 1248 q 570 1125 608 1164 q 484 1085 532 1085 q 387 1112 454 1085 q 301 1139 319 1139 q 266 1127 281 1139 q 240 1084 251 1116 z "},"ĩ":{"ha":386,"x_min":56,"x_max":568,"o":"m 206 720 l 401 720 l 250 0 l 56 0 l 206 720 m 186 823 l 101 823 q 144 939 119 905 q 235 986 181 986 q 361 953 271 986 q 434 934 414 934 q 460 944 450 934 q 481 987 471 954 l 568 987 q 516 864 555 903 q 431 824 478 824 q 333 851 400 824 q 248 878 266 878 q 212 866 227 878 q 186 823 197 854 z "},"Ī":{"ha":386,"x_min":48,"x_max":615,"o":"m 48 0 l 256 994 l 460 994 l 253 0 l 48 0 m 181 1213 l 615 1213 l 588 1082 l 154 1082 l 181 1213 z "},"ī":{"ha":386,"x_min":56,"x_max":562,"o":"m 206 720 l 401 720 l 250 0 l 56 0 l 206 720 m 128 968 l 562 968 l 535 837 l 101 837 l 128 968 z "},"Ĭ":{"ha":386,"x_min":48,"x_max":626,"o":"m 48 0 l 256 994 l 460 994 l 253 0 l 48 0 m 201 1274 l 295 1274 q 337 1198 311 1219 q 403 1176 363 1176 q 536 1274 484 1176 l 626 1274 q 536 1129 598 1181 q 397 1078 473 1078 q 266 1127 317 1078 q 201 1274 214 1176 z "},"ĭ":{"ha":386,"x_min":56,"x_max":568,"o":"m 206 720 l 401 720 l 250 0 l 56 0 l 206 720 m 143 1009 l 237 1009 q 279 932 253 954 q 345 911 305 911 q 479 1009 426 911 l 568 1009 q 478 864 541 916 q 339 812 416 812 q 208 862 260 812 q 143 1009 157 911 z "},"Į":{"ha":386,"x_min":-37,"x_max":460,"o":"m 48 0 l 256 994 l 460 994 l 253 0 l 48 0 m 220 -146 l 197 -259 q 88 -286 134 -286 q -16 -248 16 -286 q -37 -186 -37 -223 q 7 -75 -37 -133 q 87 0 40 -33 l 201 0 q 149 -49 172 -19 q 119 -121 119 -90 q 161 -159 119 -159 q 190 -154 173 -159 l 220 -146 z "},"į":{"ha":386,"x_min":-29,"x_max":458,"o":"m 263 994 l 458 994 l 421 818 l 227 818 l 263 994 m 206 720 l 401 720 l 250 0 l 56 0 l 206 720 m 228 -146 l 204 -259 q 96 -286 141 -286 q -8 -248 24 -286 q -29 -186 -29 -223 q 15 -75 -29 -133 q 95 0 47 -33 l 208 0 q 157 -49 179 -19 q 127 -121 127 -90 q 169 -159 127 -159 q 197 -154 180 -159 l 228 -146 z "},"Ĵ":{"ha":772,"x_min":40,"x_max":954,"o":"m 632 994 l 833 994 l 707 392 q 576 68 657 153 q 326 -17 494 -17 q 111 49 182 -17 q 40 228 40 115 q 43 281 40 252 l 233 301 q 229 252 229 271 q 256 179 229 204 q 339 154 283 154 q 450 200 418 154 q 507 399 473 235 l 632 994 m 767 1204 l 648 1084 l 488 1084 l 689 1288 l 871 1288 l 954 1084 l 819 1084 l 767 1204 z "},"ĵ":{"ha":386,"x_min":-152,"x_max":536,"o":"m 349 932 l 230 812 l 69 812 l 271 1016 l 453 1016 l 536 812 l 401 812 l 349 932 m 208 720 l 403 720 l 275 111 q 217 -129 243 -39 q 132 -255 190 -218 q -5 -292 75 -292 q -152 -271 -86 -292 l -121 -110 q -43 -121 -75 -121 q 22 -89 -1 -121 q 83 123 45 -56 l 208 720 z "},"Ķ":{"ha":1003,"x_min":55,"x_max":1113,"o":"m 55 0 l 262 994 l 467 994 l 379 572 l 839 994 l 1113 994 l 667 604 l 994 0 l 763 0 l 517 473 l 324 304 l 260 0 l 55 0 m 401 -74 l 610 -74 l 589 -173 q 345 -380 549 -368 l 367 -275 q 458 -198 449 -264 l 375 -198 l 401 -74 z "},"ķ":{"ha":772,"x_min":52,"x_max":853,"o":"m 52 0 l 260 994 l 455 994 l 347 477 l 600 720 l 853 720 l 564 458 l 718 0 l 523 0 l 424 333 l 292 216 l 247 0 l 52 0 m 265 -74 l 474 -74 l 454 -173 q 210 -380 413 -368 l 231 -275 q 323 -198 313 -264 l 239 -198 l 265 -74 z "},"ĸ":{"ha":772,"x_min":56,"x_max":857,"o":"m 56 0 l 209 720 l 404 720 l 350 477 l 604 720 l 857 720 l 567 458 l 721 0 l 526 0 l 427 333 l 296 216 l 250 0 l 56 0 z "},"Ļ":{"ha":848,"x_min":62,"x_max":808,"o":"m 62 0 l 271 994 l 475 994 l 302 166 l 808 166 l 773 0 l 62 0 m 313 -74 l 522 -74 l 501 -173 q 257 -380 460 -368 l 279 -275 q 370 -198 361 -264 l 287 -198 l 313 -74 z "},"ļ":{"ha":386,"x_min":-21,"x_max":456,"o":"m 54 0 l 262 994 l 456 994 l 249 0 l 54 0 m 35 -74 l 243 -74 l 223 -173 q -21 -380 182 -368 l 1 -275 q 92 -198 83 -264 l 9 -198 l 35 -74 z "},"Ņ":{"ha":1003,"x_min":62,"x_max":1059,"o":"m 852 0 l 661 0 l 393 668 l 253 0 l 62 0 l 270 994 l 461 994 l 730 329 l 869 994 l 1059 994 l 852 0 m 347 -74 l 555 -74 l 535 -173 q 291 -380 494 -368 l 313 -275 q 404 -198 395 -264 l 321 -198 l 347 -74 z "},"ņ":{"ha":848,"x_min":58,"x_max":821,"o":"m 209 720 l 393 720 l 374 627 q 504 712 444 686 q 630 737 564 737 q 770 686 719 737 q 821 551 821 635 q 799 408 821 513 l 714 0 l 519 0 l 605 409 q 624 518 624 500 q 602 577 624 555 q 541 598 580 598 q 446 562 498 598 q 363 467 393 526 q 315 296 342 425 l 253 0 l 58 0 l 209 720 m 265 -74 l 474 -74 l 454 -173 q 210 -380 413 -368 l 231 -275 q 323 -198 313 -264 l 239 -198 l 265 -74 z "},"Ŋ":{"ha":1004,"x_min":67,"x_max":1021,"o":"m 271 994 l 473 994 l 445 853 q 751 1011 596 1011 q 944 933 867 1011 q 1021 699 1021 855 q 996 429 1021 572 q 916 174 970 287 q 793 21 862 60 q 638 -18 724 -18 q 427 45 516 -18 l 528 186 q 614 148 574 148 q 700 195 661 148 q 778 402 739 241 q 818 683 818 562 q 775 800 818 762 q 670 838 733 838 q 532 793 598 838 q 433 687 467 749 q 376 507 399 625 l 271 0 l 67 0 l 271 994 z "},"ŋ":{"ha":848,"x_min":56,"x_max":819,"o":"m 797 408 l 722 54 q 668 -156 692 -92 q 591 -256 644 -219 q 452 -292 539 -292 q 296 -268 368 -292 l 363 -112 q 423 -121 394 -121 q 485 -89 465 -121 q 536 96 505 -56 l 602 409 q 621 523 621 502 q 598 577 621 556 q 538 598 576 598 q 435 556 490 598 q 358 464 380 515 q 312 296 336 412 l 250 0 l 56 0 l 206 720 l 391 720 l 372 627 q 627 737 496 737 q 770 683 722 737 q 819 558 819 628 q 797 408 819 514 z "},"Ō":{"ha":1080,"x_min":121,"x_max":1089,"o":"m 121 390 q 148 576 121 478 q 253 803 182 707 q 432 955 324 899 q 677 1011 540 1011 q 976 897 862 1011 q 1089 593 1089 782 q 1015 288 1089 435 q 814 62 941 141 q 528 -18 688 -18 q 294 45 389 -18 q 161 202 200 109 q 121 390 121 295 m 323 394 q 386 222 323 292 q 550 153 448 153 q 709 208 633 153 q 835 373 785 262 q 885 589 885 484 q 822 773 885 707 q 661 840 759 840 q 417 701 511 840 q 323 394 323 561 m 534 1213 l 968 1213 l 941 1082 l 507 1082 l 534 1213 z "},"ō":{"ha":848,"x_min":84,"x_max":832,"o":"m 84 299 q 197 618 84 499 q 494 737 310 737 q 743 649 653 737 q 832 413 832 562 q 720 111 832 238 q 420 -17 608 -17 q 240 24 319 -17 q 123 139 161 64 q 84 299 84 214 m 639 438 q 598 549 639 507 q 494 591 558 591 q 382 552 431 591 q 307 438 334 513 q 279 302 279 364 q 321 179 279 224 q 427 134 363 134 q 562 202 507 134 q 639 438 639 299 m 351 968 l 785 968 l 758 837 l 323 837 l 351 968 z "},"Ŏ":{"ha":1080,"x_min":121,"x_max":1089,"o":"m 121 390 q 148 576 121 478 q 253 803 182 707 q 432 955 324 899 q 677 1011 540 1011 q 976 897 862 1011 q 1089 593 1089 782 q 1015 288 1089 435 q 814 62 941 141 q 528 -18 688 -18 q 294 45 389 -18 q 161 202 200 109 q 121 390 121 295 m 323 394 q 386 222 323 292 q 550 153 448 153 q 709 208 633 153 q 835 373 785 262 q 885 589 885 484 q 822 773 885 707 q 661 840 759 840 q 417 701 511 840 q 323 394 323 561 m 532 1274 l 627 1274 q 668 1198 642 1219 q 734 1176 694 1176 q 868 1274 815 1176 l 958 1274 q 867 1129 930 1181 q 728 1078 805 1078 q 597 1127 649 1078 q 532 1274 546 1176 z "},"ŏ":{"ha":848,"x_min":84,"x_max":832,"o":"m 84 299 q 197 618 84 499 q 494 737 310 737 q 743 649 653 737 q 832 413 832 562 q 720 111 832 238 q 420 -17 608 -17 q 240 24 319 -17 q 123 139 161 64 q 84 299 84 214 m 639 438 q 598 549 639 507 q 494 591 558 591 q 382 552 431 591 q 307 438 334 513 q 279 302 279 364 q 321 179 279 224 q 427 134 363 134 q 562 202 507 134 q 639 438 639 299 m 367 1009 l 461 1009 q 503 932 477 954 q 569 911 529 911 q 703 1009 650 911 l 792 1009 q 702 864 764 916 q 563 812 640 812 q 432 862 484 812 q 367 1009 380 911 z "},"Ŗ":{"ha":1003,"x_min":61,"x_max":1029,"o":"m 266 0 l 61 0 l 269 994 l 711 994 q 888 971 825 994 q 990 885 951 947 q 1029 734 1029 823 q 954 525 1029 607 q 724 422 878 442 q 798 330 763 387 q 950 0 866 213 l 730 0 q 627 262 704 84 q 537 392 585 359 q 435 412 508 412 l 352 412 l 266 0 m 383 561 l 492 561 q 710 581 656 561 q 795 642 764 600 q 825 730 825 684 q 781 812 825 785 q 664 828 754 828 l 439 828 l 383 561 m 387 -74 l 596 -74 l 576 -173 q 332 -380 535 -368 l 353 -275 q 445 -198 435 -264 l 361 -198 l 387 -74 z "},"ŗ":{"ha":541,"x_min":-28,"x_max":659,"o":"m 195 720 l 377 720 l 348 581 q 568 737 450 737 q 659 716 610 737 l 584 557 q 528 566 557 566 q 426 528 477 566 q 345 427 374 490 q 287 226 315 363 l 239 0 l 45 0 l 195 720 m 28 -74 l 237 -74 l 216 -173 q -28 -380 176 -368 l -6 -275 q 85 -198 76 -264 l 2 -198 l 28 -74 z "},"Ŝ":{"ha":926,"x_min":85,"x_max":939,"o":"m 88 322 l 283 332 q 315 207 287 239 q 480 154 359 154 q 625 190 581 154 q 670 277 670 226 q 633 351 670 321 q 492 424 608 374 q 323 508 376 474 q 239 595 270 541 q 209 720 209 648 q 300 928 209 846 q 563 1011 391 1011 q 834 929 738 1011 q 939 711 930 847 l 743 702 q 692 811 736 773 q 562 849 648 849 q 440 819 477 849 q 404 744 404 789 q 437 673 404 701 q 585 595 471 645 q 803 475 756 522 q 873 301 873 408 q 769 76 873 170 q 479 -17 665 -17 q 257 26 351 -17 q 124 146 163 69 q 88 322 85 222 m 679 1204 l 559 1084 l 399 1084 l 601 1288 l 783 1288 l 865 1084 l 731 1084 l 679 1204 z "},"ŝ":{"ha":772,"x_min":31,"x_max":766,"o":"m 31 201 l 219 231 q 281 147 244 172 q 383 122 319 122 q 490 152 450 122 q 517 201 517 172 q 503 237 517 221 q 422 273 488 252 q 204 366 246 332 q 138 504 138 418 q 202 651 138 589 q 466 737 291 737 q 676 686 605 737 q 766 549 747 635 l 587 517 q 541 576 572 557 q 436 603 497 603 q 348 583 375 603 q 321 536 321 562 q 349 491 321 509 q 458 453 366 480 q 648 372 600 412 q 716 236 716 315 q 630 58 716 134 q 387 -17 544 -17 q 146 40 231 -17 q 31 201 61 98 m 555 932 l 435 812 l 275 812 l 477 1016 l 659 1016 l 741 812 l 607 812 l 555 932 z "},"Ŧ":{"ha":848,"x_min":139,"x_max":985,"o":"m 368 395 l 139 395 l 164 515 l 393 515 l 458 828 l 167 828 l 202 994 l 985 994 l 950 828 l 663 828 l 597 515 l 826 515 l 801 395 l 572 395 l 490 0 l 286 0 l 368 395 z "},"ŧ":{"ha":463,"x_min":30,"x_max":543,"o":"m 167 422 l 199 576 l 104 576 l 134 720 l 229 720 l 253 836 l 476 970 l 424 720 l 543 720 l 513 576 l 393 576 l 361 422 l 498 422 l 473 302 l 336 302 q 313 180 313 191 q 376 133 313 133 q 444 138 396 133 l 413 -7 q 312 -17 363 -17 q 113 132 113 -17 q 142 302 113 168 l 30 302 l 56 422 l 167 422 z "},"Ũ":{"ha":1003,"x_min":127,"x_max":1063,"o":"m 265 994 l 469 994 l 357 454 l 329 321 q 326 290 326 304 q 369 192 326 231 q 494 154 412 154 q 616 182 568 154 q 691 264 665 210 q 745 451 718 319 l 859 994 l 1063 994 l 949 450 q 867 188 913 279 q 725 40 820 97 q 485 -17 630 -17 q 219 68 311 -17 q 127 287 127 153 q 132 347 127 315 q 155 471 134 369 l 265 994 m 543 1084 l 457 1084 q 500 1200 475 1166 q 591 1247 537 1247 q 718 1214 627 1247 q 790 1195 770 1195 q 817 1205 806 1195 q 837 1248 827 1215 l 924 1248 q 872 1125 911 1164 q 787 1085 834 1085 q 689 1112 756 1085 q 604 1139 622 1139 q 568 1127 583 1139 q 543 1084 553 1116 z "},"ũ":{"ha":848,"x_min":98,"x_max":860,"o":"m 205 720 l 399 720 l 311 294 q 294 198 294 217 q 317 144 294 167 q 376 122 340 122 q 427 132 402 122 q 479 162 452 142 q 526 208 505 182 q 566 275 547 233 q 593 377 578 307 l 665 720 l 860 720 l 709 0 l 528 0 l 548 98 q 288 -17 429 -17 q 149 34 199 -17 q 98 170 98 85 q 121 319 98 208 l 205 720 m 418 823 l 332 823 q 376 939 351 905 q 467 986 412 986 q 593 953 502 986 q 665 934 646 934 q 692 944 681 934 q 712 987 703 954 l 799 987 q 748 864 786 903 q 662 824 709 824 q 564 851 631 824 q 479 878 497 878 q 444 866 458 878 q 418 823 429 854 z "},"Ū":{"ha":1003,"x_min":127,"x_max":1063,"o":"m 265 994 l 469 994 l 357 454 l 329 321 q 326 290 326 304 q 369 192 326 231 q 494 154 412 154 q 616 182 568 154 q 691 264 665 210 q 745 451 718 319 l 859 994 l 1063 994 l 949 450 q 867 188 913 279 q 725 40 820 97 q 485 -17 630 -17 q 219 68 311 -17 q 127 287 127 153 q 132 347 127 315 q 155 471 134 369 l 265 994 m 488 1213 l 922 1213 l 895 1082 l 460 1082 l 488 1213 z "},"ū":{"ha":848,"x_min":98,"x_max":860,"o":"m 205 720 l 399 720 l 311 294 q 294 198 294 217 q 317 144 294 167 q 376 122 340 122 q 427 132 402 122 q 479 162 452 142 q 526 208 505 182 q 566 275 547 233 q 593 377 578 307 l 665 720 l 860 720 l 709 0 l 528 0 l 548 98 q 288 -17 429 -17 q 149 34 199 -17 q 98 170 98 85 q 121 319 98 208 l 205 720 m 370 968 l 804 968 l 777 837 l 342 837 l 370 968 z "},"Ŭ":{"ha":1003,"x_min":127,"x_max":1063,"o":"m 265 994 l 469 994 l 357 454 l 329 321 q 326 290 326 304 q 369 192 326 231 q 494 154 412 154 q 616 182 568 154 q 691 264 665 210 q 745 451 718 319 l 859 994 l 1063 994 l 949 450 q 867 188 913 279 q 725 40 820 97 q 485 -17 630 -17 q 219 68 311 -17 q 127 287 127 153 q 132 347 127 315 q 155 471 134 369 l 265 994 m 496 1274 l 590 1274 q 632 1198 606 1219 q 698 1176 658 1176 q 831 1274 779 1176 l 921 1274 q 831 1129 893 1181 q 692 1078 768 1078 q 561 1127 612 1078 q 496 1274 509 1176 z "},"ŭ":{"ha":848,"x_min":98,"x_max":860,"o":"m 205 720 l 399 720 l 311 294 q 294 198 294 217 q 317 144 294 167 q 376 122 340 122 q 427 132 402 122 q 479 162 452 142 q 526 208 505 182 q 566 275 547 233 q 593 377 578 307 l 665 720 l 860 720 l 709 0 l 528 0 l 548 98 q 288 -17 429 -17 q 149 34 199 -17 q 98 170 98 85 q 121 319 98 208 l 205 720 m 363 1009 l 457 1009 q 499 932 473 954 q 565 911 525 911 q 699 1009 646 911 l 788 1009 q 698 864 760 916 q 559 812 635 812 q 428 862 479 812 q 363 1009 376 911 z "},"Ų":{"ha":1003,"x_min":127,"x_max":1063,"o":"m 265 994 l 469 994 l 357 454 l 329 321 q 326 290 326 304 q 369 192 326 231 q 494 154 412 154 q 616 182 568 154 q 691 264 665 210 q 745 451 718 319 l 859 994 l 1063 994 l 949 450 q 867 188 913 279 q 725 40 820 97 q 485 -17 630 -17 q 219 68 311 -17 q 127 287 127 153 q 132 347 127 315 q 155 471 134 369 l 265 994 m 629 -146 l 605 -259 q 496 -286 542 -286 q 393 -248 425 -286 q 372 -186 372 -223 q 416 -75 372 -133 q 496 0 448 -33 l 609 0 q 557 -49 580 -19 q 528 -121 528 -90 q 570 -159 528 -159 q 598 -154 581 -159 l 629 -146 z "},"ų":{"ha":848,"x_min":98,"x_max":860,"o":"m 205 720 l 399 720 l 311 294 q 294 198 294 217 q 317 144 294 167 q 376 122 340 122 q 427 132 402 122 q 479 162 452 142 q 526 208 505 182 q 566 275 547 233 q 593 377 578 307 l 665 720 l 860 720 l 709 0 l 528 0 l 548 98 q 288 -17 429 -17 q 149 34 199 -17 q 98 170 98 85 q 121 319 98 208 l 205 720 m 692 -146 l 669 -259 q 560 -286 606 -286 q 456 -248 488 -286 q 435 -186 435 -223 q 479 -75 435 -133 q 559 0 512 -33 l 673 0 q 621 -49 644 -19 q 591 -121 591 -90 q 633 -159 591 -159 q 662 -154 645 -159 l 692 -146 z "},"Ŵ":{"ha":1311,"x_min":163,"x_max":1483,"o":"m 1002 0 l 795 0 l 773 727 l 411 0 l 200 0 l 163 994 l 363 994 l 372 298 l 713 994 l 935 994 l 958 306 l 1285 994 l 1483 994 l 1002 0 m 869 1204 l 749 1084 l 589 1084 l 791 1288 l 972 1288 l 1055 1084 l 921 1084 l 869 1204 z "},"ŵ":{"ha":1080,"x_min":100,"x_max":1167,"o":"m 808 0 l 625 0 l 590 458 l 370 0 l 190 0 l 100 720 l 273 720 l 323 237 l 547 720 l 724 720 l 749 237 l 972 720 l 1167 720 l 808 0 m 667 932 l 547 812 l 387 812 l 589 1016 l 770 1016 l 853 812 l 719 812 l 667 932 z "},"Ŷ":{"ha":926,"x_min":159,"x_max":1090,"o":"m 557 0 l 353 0 l 433 387 l 159 994 l 377 994 l 500 713 q 559 568 545 612 q 618 661 585 612 l 712 793 l 852 994 l 1090 994 l 634 368 l 557 0 m 676 1204 l 557 1084 l 397 1084 l 598 1288 l 780 1288 l 863 1084 l 728 1084 l 676 1204 z "},"ŷ":{"ha":772,"x_min":9,"x_max":862,"o":"m 116 720 l 310 720 l 359 361 q 379 168 377 223 q 484 401 417 278 l 656 720 l 862 720 l 417 -71 q 331 -208 362 -169 q 255 -270 299 -248 q 148 -292 210 -292 q 9 -271 86 -292 l 26 -125 q 94 -136 61 -136 q 241 0 184 -136 l 116 720 m 546 932 l 427 812 l 267 812 l 468 1016 l 650 1016 l 732 812 l 598 812 l 546 932 z "},"ſ":{"ha":386,"x_min":54,"x_max":633,"o":"m 249 0 l 54 0 l 220 794 q 260 924 239 885 q 329 987 281 964 q 445 1011 376 1011 q 633 979 534 1011 l 596 840 q 482 863 526 863 q 436 846 449 863 q 410 771 422 829 l 249 0 z "},"Ǻ":{"ha":1003,"x_min":-16,"x_max":935,"o":"m 708 207 l 314 207 l 195 -13 l -16 -13 l 547 981 l 774 981 l 935 -13 l 741 -13 l 708 207 m 683 372 l 625 772 l 385 372 l 683 372 m 530 1055 q 568 1148 530 1109 q 661 1186 606 1186 q 753 1148 715 1186 q 791 1055 791 1109 q 753 963 791 1001 q 661 924 715 924 q 568 963 606 924 q 530 1055 530 1001 m 604 1055 q 620 1015 604 1031 q 661 998 637 998 q 701 1015 684 998 q 718 1055 718 1031 q 701 1096 718 1079 q 661 1113 684 1113 q 620 1096 637 1113 q 604 1055 604 1079 m 727 1390 l 935 1390 l 715 1186 l 585 1186 l 727 1390 z "},"ǻ":{"ha":772,"x_min":62,"x_max":817,"o":"m 330 516 l 140 532 q 254 683 173 629 q 469 737 335 737 q 674 681 608 737 q 741 545 741 625 q 735 475 741 512 q 694 283 729 439 q 666 102 666 154 q 682 0 666 56 l 493 0 q 479 81 481 39 q 380 8 436 34 q 269 -17 325 -17 q 121 42 179 -17 q 62 193 62 100 q 126 357 62 296 q 355 432 191 419 q 541 460 494 444 q 553 525 553 500 q 528 577 553 556 q 454 598 503 598 q 371 577 401 598 q 330 516 341 555 m 515 336 q 469 327 498 331 q 277 275 322 309 q 245 210 245 251 q 270 152 245 176 q 334 129 294 129 q 417 150 378 129 q 476 205 456 172 q 510 310 495 239 l 515 336 m 365 916 q 403 1009 365 970 q 496 1047 441 1047 q 588 1009 550 1047 q 627 916 627 970 q 588 824 627 862 q 496 785 550 785 q 403 824 441 785 q 365 916 365 862 m 439 916 q 455 876 439 892 q 496 859 472 859 q 536 876 519 859 q 553 916 553 892 q 536 957 553 940 q 496 974 519 974 q 455 957 472 974 q 439 916 439 940 m 610 1287 l 817 1287 l 597 1084 l 468 1084 l 610 1287 z "},"Ǽ":{"ha":1389,"x_min":-45,"x_max":1471,"o":"m 638 249 l 307 249 l 165 0 l -45 0 l 533 994 l 1471 994 l 1436 828 l 949 828 l 902 601 l 1370 601 l 1335 435 l 867 435 l 811 166 l 1337 166 l 1302 0 l 586 0 l 638 249 m 673 415 l 759 828 l 637 828 l 403 415 l 673 415 m 953 1287 l 1160 1287 l 941 1084 l 811 1084 l 953 1287 z "},"ǽ":{"ha":1235,"x_min":43,"x_max":1202,"o":"m 1190 298 l 693 298 q 739 174 696 220 q 843 129 782 129 q 993 222 941 129 l 1168 195 q 836 -17 1051 -17 q 567 151 644 -17 q 269 -17 442 -17 q 104 42 165 -17 q 43 194 43 100 q 82 328 43 275 q 180 402 121 382 q 350 433 239 423 q 534 462 494 446 q 540 500 540 484 q 513 573 540 549 q 431 598 487 598 q 352 578 380 598 q 309 514 323 559 l 122 533 q 230 680 148 623 q 446 737 313 737 q 603 709 544 737 q 671 647 645 688 q 910 737 764 737 q 1122 655 1042 737 q 1202 429 1202 573 q 1190 298 1202 363 m 1025 417 q 1026 439 1026 431 q 990 557 1026 517 q 895 598 954 598 q 780 552 831 598 q 709 417 728 506 l 1025 417 m 509 340 q 255 277 315 319 q 218 212 218 252 q 243 155 218 178 q 311 131 269 131 q 424 179 374 131 q 509 340 490 241 m 783 1015 l 990 1015 l 770 811 l 641 811 l 783 1015 z "},"Ǿ":{"ha":1080,"x_min":108,"x_max":1093,"o":"m 210 117 q 116 387 116 230 q 187 699 116 545 q 385 931 258 852 q 671 1011 512 1011 q 904 951 810 1011 l 999 1065 l 1093 987 l 995 870 q 1084 592 1084 762 q 1007 283 1084 431 q 805 60 931 136 q 526 -17 680 -17 q 303 37 392 -17 l 203 -83 l 108 -5 l 210 117 m 343 277 l 781 803 q 655 840 728 840 q 492 784 570 840 q 366 618 413 728 q 319 401 319 508 q 343 277 319 336 m 858 705 l 425 184 q 548 147 482 147 q 704 201 628 147 q 832 367 781 256 q 884 592 884 478 q 858 705 884 647 m 799 1287 l 1006 1287 l 787 1084 l 657 1084 l 799 1287 z "},"ǿ":{"ha":848,"x_min":73,"x_max":839,"o":"m 680 696 l 764 793 l 839 730 l 756 633 q 830 412 830 549 q 718 111 830 238 q 419 -17 606 -17 q 233 26 313 -17 l 146 -73 l 73 -7 l 156 88 q 82 308 82 176 q 168 583 82 463 q 492 737 277 737 q 680 696 604 737 m 574 573 q 489 596 537 596 q 413 579 447 596 q 347 524 379 562 q 294 433 315 486 q 264 288 264 358 q 274 225 264 256 l 574 573 m 635 494 l 336 146 q 420 125 373 125 q 535 165 484 125 q 617 283 587 205 q 647 428 647 361 q 635 494 647 459 m 589 1015 l 797 1015 l 577 811 l 448 811 l 589 1015 z "},"·":{"ha":463,"x_min":209,"x_max":440,"o":"m 248 720 l 440 720 l 401 532 l 209 532 l 248 720 z "},"Ẁ":{"ha":1311,"x_min":163,"x_max":1483,"o":"m 1002 0 l 795 0 l 773 727 l 411 0 l 200 0 l 163 994 l 363 994 l 372 298 l 713 994 l 935 994 l 958 306 l 1285 994 l 1483 994 l 1002 0 m 703 1286 l 890 1286 l 977 1084 l 846 1084 l 703 1286 z "},"ẁ":{"ha":1080,"x_min":100,"x_max":1167,"o":"m 808 0 l 625 0 l 590 458 l 370 0 l 190 0 l 100 720 l 273 720 l 323 237 l 547 720 l 724 720 l 749 237 l 972 720 l 1167 720 l 808 0 m 495 1017 l 682 1017 l 769 814 l 637 814 l 495 1017 z "},"Ẃ":{"ha":1311,"x_min":163,"x_max":1483,"o":"m 1002 0 l 795 0 l 773 727 l 411 0 l 200 0 l 163 994 l 363 994 l 372 298 l 713 994 l 935 994 l 958 306 l 1285 994 l 1483 994 l 1002 0 m 914 1287 l 1122 1287 l 902 1084 l 772 1084 l 914 1287 z "},"ẃ":{"ha":1080,"x_min":100,"x_max":1167,"o":"m 808 0 l 625 0 l 590 458 l 370 0 l 190 0 l 100 720 l 273 720 l 323 237 l 547 720 l 724 720 l 749 237 l 972 720 l 1167 720 l 808 0 m 705 1015 l 913 1015 l 693 811 l 564 811 l 705 1015 z "},"Ẅ":{"ha":1311,"x_min":163,"x_max":1483,"o":"m 1002 0 l 795 0 l 773 727 l 411 0 l 200 0 l 163 994 l 363 994 l 372 298 l 713 994 l 935 994 l 958 306 l 1285 994 l 1483 994 l 1002 0 m 664 1250 l 831 1250 l 796 1084 l 629 1084 l 664 1250 m 949 1250 l 1116 1250 l 1082 1084 l 915 1084 l 949 1250 z "},"ẅ":{"ha":1080,"x_min":100,"x_max":1167,"o":"m 808 0 l 625 0 l 590 458 l 370 0 l 190 0 l 100 720 l 273 720 l 323 237 l 547 720 l 724 720 l 749 237 l 972 720 l 1167 720 l 808 0 m 461 996 l 628 996 l 593 829 l 427 829 l 461 996 m 747 996 l 913 996 l 879 829 l 712 829 l 747 996 z "},"Ỳ":{"ha":926,"x_min":159,"x_max":1090,"o":"m 557 0 l 353 0 l 433 387 l 159 994 l 377 994 l 500 713 q 559 568 545 612 q 618 661 585 612 l 712 793 l 852 994 l 1090 994 l 634 368 l 557 0 m 456 1286 l 643 1286 l 730 1084 l 598 1084 l 456 1286 z "},"ỳ":{"ha":772,"x_min":9,"x_max":862,"o":"m 116 720 l 310 720 l 359 361 q 379 168 377 223 q 484 401 417 278 l 656 720 l 862 720 l 417 -71 q 331 -208 362 -169 q 255 -270 299 -248 q 148 -292 210 -292 q 9 -271 86 -292 l 26 -125 q 94 -136 61 -136 q 241 0 184 -136 l 116 720 m 340 1017 l 528 1017 l 614 814 l 483 814 l 340 1017 z "},"‛":{"ha":386,"x_min":208,"x_max":452,"o":"m 452 994 l 411 806 l 321 806 q 315 755 315 778 q 384 680 315 690 l 365 590 q 208 741 208 593 q 222 839 208 775 l 256 994 l 452 994 z "},"‾":{"ha":463,"x_min":102,"x_max":646,"o":"m 130 968 l 646 968 l 618 837 l 102 837 l 130 968 z "},"₤":{"ha":772,"x_min":28,"x_max":848,"o":"m 397 630 l 587 630 l 560 504 l 409 504 q 411 431 411 462 l 545 431 l 518 305 l 386 305 q 267 152 357 232 q 367 172 315 172 q 434 165 393 172 q 526 154 492 154 q 681 190 602 154 l 739 24 q 557 -17 644 -17 q 407 5 490 -17 q 248 33 307 33 q 49 -25 156 33 l 28 151 q 205 305 141 198 l 61 305 l 87 431 l 241 431 q 235 504 241 453 l 103 504 l 130 630 l 217 630 q 214 682 214 652 q 306 914 214 817 q 553 1011 398 1011 q 764 935 687 1011 q 848 743 841 859 l 673 726 q 547 861 654 861 q 436 806 479 861 q 393 677 393 752 q 397 630 393 656 z "},"℮":{"ha":833,"x_min":61,"x_max":779,"o":"m 218 360 l 218 109 q 420 26 299 26 q 688 193 593 26 l 736 164 q 598 22 668 67 q 420 -23 528 -23 q 162 84 262 -23 q 61 360 61 192 q 161 635 61 527 q 420 743 260 743 q 669 646 566 743 q 779 360 772 549 l 218 360 m 622 410 l 622 612 q 418 694 538 694 q 218 611 300 694 l 218 410 l 622 410 z "},"⅛":{"ha":1158,"x_min":118,"x_max":1156,"o":"m 236 -41 l 118 -41 l 1028 1006 l 1146 1006 l 236 -41 m 159 774 l 185 879 q 419 1006 339 936 l 503 1006 l 374 493 l 241 493 l 325 827 q 159 774 239 787 m 1078 244 q 1129 140 1129 195 q 1073 20 1129 77 q 911 -37 1017 -37 q 776 7 823 -37 q 730 110 730 50 q 834 257 730 199 q 790 341 790 292 q 842 441 790 398 q 982 485 895 485 q 1109 449 1063 485 q 1156 355 1156 412 q 1078 244 1156 293 m 911 334 q 964 292 911 292 q 1013 310 992 292 q 1034 349 1034 327 q 981 392 1034 392 q 932 375 953 392 q 911 334 911 359 m 861 107 q 918 58 861 58 q 981 88 960 58 q 1002 152 1002 118 q 985 186 1002 173 q 944 199 969 199 q 884 172 907 199 q 861 107 861 144 z "},"⅜":{"ha":1158,"x_min":106,"x_max":1157,"o":"m 236 -41 l 118 -41 l 1029 1006 l 1146 1006 l 236 -41 m 106 640 l 233 652 q 298 583 241 583 q 358 603 336 583 q 380 652 380 623 q 312 708 380 708 q 282 705 301 708 l 308 806 q 329 805 318 805 q 411 868 411 805 q 360 910 411 910 q 290 842 310 910 l 168 862 q 369 1006 218 1006 q 498 966 454 1006 q 542 869 542 925 q 462 753 542 800 q 513 654 513 709 q 455 541 513 596 q 298 485 397 485 q 106 640 130 485 m 1078 244 q 1129 140 1129 195 q 1068 17 1129 70 q 911 -37 1006 -37 q 777 7 823 -37 q 730 110 730 50 q 834 257 730 202 q 790 341 790 292 q 842 441 790 398 q 982 485 895 485 q 1110 448 1063 485 q 1157 355 1157 412 q 1078 244 1157 293 m 912 334 q 964 292 912 292 q 1013 310 992 292 q 1034 349 1034 327 q 981 392 1034 392 q 933 376 954 392 q 912 334 912 359 m 861 107 q 918 58 861 58 q 981 88 959 58 q 1002 153 1002 118 q 986 186 1002 173 q 944 199 970 199 q 884 172 907 199 q 861 107 861 144 z "},"⅝":{"ha":1158,"x_min":115,"x_max":1157,"o":"m 236 -41 l 118 -41 l 1029 1006 l 1147 1006 l 236 -41 m 115 652 l 244 663 q 243 644 243 650 q 300 583 243 583 q 371 616 342 583 q 400 696 400 648 q 339 757 400 757 q 258 721 296 757 l 149 728 l 244 998 l 556 998 l 530 890 l 334 890 l 321 841 q 370 846 345 846 q 485 805 440 846 q 530 697 530 764 q 463 549 530 614 q 297 485 396 485 q 161 533 206 485 q 115 652 116 582 m 1078 244 q 1129 140 1129 195 q 1068 17 1129 70 q 911 -37 1006 -37 q 779 5 827 -37 q 730 110 730 47 q 835 257 730 199 q 790 341 790 292 q 842 441 790 398 q 982 485 895 485 q 1109 449 1062 485 q 1157 355 1157 412 q 1078 244 1157 293 m 912 334 q 964 292 912 292 q 1013 310 993 292 q 1034 349 1034 327 q 981 392 1034 392 q 932 375 953 392 q 912 334 912 359 m 861 107 q 918 58 861 58 q 981 88 959 58 q 1002 153 1002 118 q 986 186 1002 173 q 944 199 970 199 q 884 172 907 199 q 861 107 861 144 z "},"⅞":{"ha":1158,"x_min":77,"x_max":1157,"o":"m 195 -41 l 77 -41 l 987 1006 l 1105 1006 l 195 -41 m 147 890 l 174 998 l 578 998 l 557 913 q 397 734 475 859 q 290 493 318 609 l 163 493 q 387 890 210 705 l 147 890 m 1078 244 q 1129 140 1129 196 q 1068 16 1129 69 q 911 -37 1006 -37 q 777 7 823 -37 q 730 110 730 50 q 835 257 730 201 q 790 341 790 292 q 843 441 790 398 q 982 485 895 485 q 1109 449 1062 485 q 1157 355 1157 412 q 1078 244 1157 293 m 912 334 q 964 292 912 292 q 1014 310 994 292 q 1034 349 1034 328 q 981 392 1034 392 q 932 375 953 392 q 912 334 912 359 m 861 107 q 918 58 861 58 q 980 88 958 58 q 1002 152 1002 118 q 986 186 1002 174 q 944 199 969 199 q 884 172 907 199 q 861 107 861 144 z "},"΄":{"ha":463,"x_min":255,"x_max":604,"o":"m 397 1015 l 604 1015 l 385 811 l 255 811 l 397 1015 z "},"΅":{"ha":463,"x_min":-14,"x_max":720,"o":"m 319 1015 l 519 1015 l 345 811 l 218 811 l 319 1015 m 21 977 l 184 977 l 149 811 l -14 811 l 21 977 m 557 977 l 720 977 l 685 811 l 522 811 l 557 977 z "},"Ά":{"ha":1003,"x_min":-13,"x_max":938,"o":"m 711 220 l 317 220 l 197 0 l -13 0 l 549 994 l 777 994 l 938 0 l 744 0 l 711 220 m 686 385 l 628 785 l 409 385 l 686 385 m 253 994 l 498 994 l 251 819 l 102 819 l 253 994 z "},"Έ":{"ha":1186,"x_min":78,"x_max":1262,"o":"m 317 0 l 526 994 l 1262 994 l 1227 828 l 695 828 l 648 602 l 1162 602 l 1128 436 l 613 436 l 557 166 l 1129 166 l 1094 0 l 317 0 m 229 994 l 475 994 l 227 819 l 78 819 l 229 994 z "},"Ή":{"ha":1258,"x_min":78,"x_max":1319,"o":"m 1000 444 l 615 444 l 522 0 l 317 0 l 526 994 l 730 994 l 650 610 l 1035 610 l 1115 994 l 1319 994 l 1112 0 l 907 0 l 1000 444 m 229 994 l 475 994 l 227 819 l 78 819 l 229 994 z "},"Ί":{"ha":657,"x_min":78,"x_max":730,"o":"m 317 0 l 526 994 l 730 994 l 522 0 l 317 0 m 229 994 l 475 994 l 227 819 l 78 819 l 229 994 z "},"Ό":{"ha":1173,"x_min":70,"x_max":1179,"o":"m 212 390 q 271 673 212 524 q 459 917 331 822 q 768 1011 587 1011 q 1067 895 956 1011 q 1179 593 1179 779 q 1026 169 1179 355 q 619 -17 872 -17 q 319 101 427 -17 q 212 390 212 220 m 414 394 q 477 222 414 291 q 641 153 539 153 q 816 221 736 153 q 935 397 895 288 q 975 589 975 505 q 918 767 975 694 q 751 840 861 840 q 512 706 610 840 q 414 394 414 571 m 221 994 l 467 994 l 219 819 l 70 819 l 221 994 z "},"Ύ":{"ha":1292,"x_min":90,"x_max":1456,"o":"m 923 0 l 719 0 l 800 387 l 526 994 l 743 994 l 867 713 q 925 568 911 612 q 1039 738 964 637 q 1078 793 1058 764 l 1219 994 l 1456 994 l 1000 368 l 923 0 m 241 994 l 486 994 l 239 819 l 90 819 l 241 994 z "},"Ώ":{"ha":1177,"x_min":70,"x_max":1175,"o":"m 104 0 l 139 161 l 367 161 q 237 474 237 281 q 303 733 237 603 q 490 937 369 863 q 768 1011 612 1011 q 1062 898 949 1011 q 1175 593 1175 784 q 937 161 1175 344 l 1144 161 l 1110 0 l 650 0 l 680 140 q 898 322 827 174 q 970 604 970 469 q 910 774 970 708 q 747 840 851 840 q 512 701 597 840 q 426 394 426 562 q 577 140 426 216 l 547 0 l 104 0 m 221 994 l 467 994 l 219 819 l 70 819 l 221 994 z "},"ΐ":{"ha":386,"x_min":-22,"x_max":712,"o":"m 311 1015 l 511 1015 l 336 811 l 210 811 l 311 1015 m 13 977 l 176 977 l 141 811 l -22 811 l 13 977 m 549 977 l 712 977 l 677 811 l 513 811 l 549 977 z "},"Α":{"ha":1003,"x_min":-16,"x_max":935,"o":"m 708 220 l 314 220 l 195 0 l -16 0 l 547 994 l 774 994 l 935 0 l 741 0 l 708 220 m 683 385 l 625 785 l 385 385 l 683 385 z "},"Β":{"ha":1003,"x_min":56,"x_max":986,"o":"m 56 0 l 264 994 l 604 994 q 758 987 714 994 q 882 947 831 977 q 960 865 933 916 q 986 753 986 814 q 940 609 986 670 q 798 517 894 549 q 917 443 874 496 q 960 321 960 389 q 909 151 960 231 q 769 35 859 71 q 524 0 680 0 l 56 0 m 384 593 l 540 593 q 691 608 645 593 q 760 656 737 623 q 783 729 783 690 q 762 791 783 767 q 700 824 740 816 q 592 828 677 828 l 433 828 l 384 593 m 294 160 l 491 160 q 657 176 615 160 q 725 229 700 192 q 751 306 751 265 q 714 388 751 355 q 592 420 677 420 l 348 420 l 294 160 z "},"Δ":{"ha":932,"x_min":-54,"x_max":897,"o":"m 897 0 l -54 0 l 509 994 l 736 994 l 897 0 m 680 166 l 587 785 l 248 166 l 680 166 z "},"Ε":{"ha":926,"x_min":57,"x_max":1002,"o":"m 57 0 l 264 994 l 1002 994 l 967 828 l 435 828 l 387 602 l 902 602 l 867 436 l 353 436 l 290 166 l 869 166 l 833 0 l 57 0 z "},"Ζ":{"ha":848,"x_min":35,"x_max":928,"o":"m 35 0 l 67 157 l 640 828 l 176 828 l 211 994 l 928 994 l 898 838 l 319 163 q 426 165 412 165 q 606 166 491 165 l 840 166 l 806 0 l 35 0 z "},"Η":{"ha":1003,"x_min":60,"x_max":1062,"o":"m 743 444 l 358 444 l 265 0 l 60 0 l 269 994 l 473 994 l 393 610 l 777 610 l 858 994 l 1062 994 l 854 0 l 650 0 l 743 444 z "},"Ι":{"ha":386,"x_min":48,"x_max":460,"o":"m 48 0 l 256 994 l 460 994 l 253 0 l 48 0 z "},"Κ":{"ha":1003,"x_min":55,"x_max":1113,"o":"m 55 0 l 262 994 l 467 994 l 379 572 l 839 994 l 1113 994 l 667 604 l 994 0 l 763 0 l 517 473 l 324 304 l 260 0 l 55 0 z "},"Λ":{"ha":926,"x_min":-54,"x_max":891,"o":"m 494 994 l 713 994 l 891 0 l 687 0 l 561 752 l 149 0 l -54 0 l 494 994 z "},"Μ":{"ha":1157,"x_min":56,"x_max":1220,"o":"m 629 0 l 435 0 l 399 831 l 241 0 l 56 0 l 264 994 l 555 994 l 586 298 l 925 994 l 1220 994 l 1012 0 l 825 0 l 1021 825 l 629 0 z "},"Ν":{"ha":1003,"x_min":62,"x_max":1059,"o":"m 852 0 l 661 0 l 393 668 l 253 0 l 62 0 l 270 994 l 461 994 l 730 329 l 869 994 l 1059 994 l 852 0 z "},"Ξ":{"ha":913,"x_min":16,"x_max":989,"o":"m 268 994 l 989 994 l 953 828 l 232 828 l 268 994 m 201 602 l 890 602 l 854 436 l 164 436 l 201 602 m 52 166 l 855 166 l 819 0 l 16 0 l 52 166 z "},"Ο":{"ha":1080,"x_min":121,"x_max":1089,"o":"m 121 390 q 148 576 121 478 q 253 803 182 707 q 432 955 324 899 q 677 1011 540 1011 q 976 897 862 1011 q 1089 593 1089 782 q 1015 288 1089 435 q 814 62 941 141 q 528 -18 688 -18 q 294 45 389 -18 q 161 202 200 109 q 121 390 121 295 m 323 394 q 386 222 323 292 q 550 153 448 153 q 709 208 633 153 q 835 373 785 262 q 885 589 885 484 q 822 773 885 707 q 661 840 759 840 q 417 701 511 840 q 323 394 323 561 z "},"Π":{"ha":997,"x_min":62,"x_max":1063,"o":"m 825 828 l 441 828 l 267 0 l 62 0 l 270 994 l 1063 994 l 856 0 l 651 0 l 825 828 z "},"Ρ":{"ha":926,"x_min":56,"x_max":975,"o":"m 261 0 l 56 0 l 264 994 l 669 994 q 839 969 777 994 q 939 885 902 943 q 975 745 975 826 q 946 598 975 669 q 874 484 917 527 q 783 419 832 441 q 652 386 734 397 q 471 379 604 379 l 340 379 l 261 0 m 374 544 l 437 544 q 654 564 600 544 q 739 629 708 585 q 770 728 770 674 q 754 787 770 764 q 710 820 739 810 q 581 831 681 831 l 435 831 l 374 544 z "},"Σ":{"ha":820,"x_min":26,"x_max":943,"o":"m 239 994 l 943 994 l 907 828 l 430 828 l 674 499 l 333 166 l 766 166 l 730 0 l 26 0 l 65 184 l 414 523 l 199 811 l 239 994 z "},"Τ":{"ha":848,"x_min":167,"x_max":985,"o":"m 490 0 l 285 0 l 458 828 l 167 828 l 201 994 l 985 994 l 950 828 l 663 828 l 490 0 z "},"Υ":{"ha":926,"x_min":159,"x_max":1090,"o":"m 557 0 l 353 0 l 433 387 l 159 994 l 377 994 l 500 713 q 559 568 545 612 q 618 661 585 612 l 712 793 l 852 994 l 1090 994 l 634 368 l 557 0 z "},"Χ":{"ha":926,"x_min":-42,"x_max":1088,"o":"m 222 0 l -42 0 l 397 503 l 150 994 l 363 994 l 460 808 q 527 670 465 798 q 536 652 531 663 q 675 817 618 753 l 831 994 l 1088 994 l 633 471 l 878 0 l 648 0 l 573 150 q 496 320 515 269 q 359 155 469 280 l 222 0 z "},"Ψ":{"ha":1151,"x_min":157,"x_max":1227,"o":"m 234 994 l 435 994 l 376 716 q 359 601 359 634 q 393 506 359 552 q 516 451 427 460 l 631 994 l 831 994 l 717 451 q 873 499 819 458 q 958 678 928 540 l 1025 994 l 1227 994 l 1160 678 q 990 373 1115 461 q 682 286 865 286 l 621 0 l 421 0 l 481 286 q 157 595 157 326 q 172 706 157 637 l 234 994 z "},"Ω":{"ha":1084,"x_min":12,"x_max":1082,"o":"m 12 0 l 47 161 l 275 161 q 145 474 145 281 q 290 847 145 683 q 675 1011 435 1011 q 969 898 857 1011 q 1082 593 1082 784 q 845 161 1082 344 l 1052 161 l 1018 0 l 557 0 l 587 140 q 806 322 734 174 q 878 604 878 469 q 818 774 878 708 q 655 840 759 840 q 419 701 505 840 q 333 394 333 562 q 485 140 333 216 l 454 0 l 12 0 z "},"Ϊ":{"ha":386,"x_min":48,"x_max":614,"o":"m 48 0 l 256 994 l 460 994 l 253 0 l 48 0 m 162 1217 l 329 1217 l 294 1050 l 127 1050 l 162 1217 m 448 1217 l 614 1217 l 580 1050 l 413 1050 l 448 1217 z "},"Ϋ":{"ha":926,"x_min":159,"x_max":1090,"o":"m 557 0 l 353 0 l 433 387 l 159 994 l 377 994 l 500 713 q 559 568 545 612 q 618 661 585 612 l 712 793 l 852 994 l 1090 994 l 634 368 l 557 0 m 431 1217 l 598 1217 l 564 1050 l 397 1050 l 431 1217 m 717 1217 l 884 1217 l 849 1050 l 682 1050 l 717 1217 z "},"ά":{"ha":861,"x_min":84,"x_max":919,"o":"m 712 720 l 919 720 l 762 372 q 758 252 758 323 q 772 0 758 155 l 585 0 q 574 89 575 41 q 351 -17 478 -17 q 157 58 229 -17 q 84 281 84 132 q 184 599 84 460 q 446 737 283 737 q 661 621 581 737 l 712 720 m 273 308 q 310 171 273 216 q 411 127 347 127 q 551 216 498 127 q 603 428 603 304 q 565 550 603 509 q 471 592 528 592 q 329 499 384 592 q 273 308 273 407 m 582 1015 l 789 1015 l 570 811 l 440 811 l 582 1015 z "},"έ":{"ha":665,"x_min":60,"x_max":712,"o":"m 712 630 l 570 525 q 433 583 507 583 q 373 565 394 583 q 352 522 352 547 q 393 463 352 485 q 505 439 435 440 l 473 289 q 433 290 446 290 q 301 261 347 290 q 255 193 255 233 q 279 151 255 165 q 332 137 302 137 q 521 215 397 137 l 639 86 q 317 -17 504 -17 q 124 43 188 -17 q 60 178 60 102 q 115 302 60 249 q 258 381 171 355 q 158 530 158 442 q 231 677 158 618 q 435 737 303 737 q 712 630 615 737 m 476 1015 l 684 1015 l 464 811 l 334 811 l 476 1015 z "},"ή":{"ha":848,"x_min":57,"x_max":820,"o":"m 208 720 l 392 720 l 373 627 q 629 737 498 737 q 770 685 720 737 q 820 551 820 633 q 798 408 820 513 l 656 -275 l 461 -275 l 604 409 q 623 518 623 501 q 539 598 623 598 q 436 556 491 598 q 359 464 381 515 q 313 296 338 412 l 252 0 l 57 0 l 208 720 m 587 1015 l 794 1015 l 574 811 l 445 811 l 587 1015 z "},"ί":{"ha":386,"x_min":56,"x_max":563,"o":"m 355 1015 l 563 1015 l 343 811 l 214 811 l 355 1015 z "},"ΰ":{"ha":821,"x_min":102,"x_max":907,"o":"m 196 720 l 389 720 l 300 301 q 290 226 290 252 q 321 154 290 180 q 404 128 352 128 q 500 164 454 128 q 573 329 546 199 l 655 720 l 850 720 l 773 357 q 770 339 772 353 q 649 73 737 163 q 399 -17 561 -17 q 173 55 244 -17 q 102 225 102 127 q 116 334 102 276 l 121 357 l 196 720 m 506 1015 l 706 1015 l 531 811 l 404 811 l 506 1015 m 208 977 l 371 977 l 336 811 l 172 811 l 208 977 m 743 977 l 907 977 l 871 811 l 708 811 l 743 977 z "},"β":{"ha":862,"x_min":-8,"x_max":852,"o":"m 263 94 l 184 -275 l -8 -275 l 180 603 q 324 919 228 827 q 572 1011 420 1011 q 780 942 707 1011 q 852 778 852 872 q 801 632 852 696 q 669 537 750 568 q 821 304 821 467 q 729 78 821 172 q 497 -17 637 -17 q 263 94 348 -17 m 454 627 q 483 627 475 627 q 623 672 578 627 q 668 770 668 718 q 641 831 668 806 q 572 857 614 857 q 477 826 519 857 q 414 748 435 796 q 374 608 393 700 l 330 410 q 316 298 316 342 q 360 171 316 214 q 467 127 404 127 q 583 175 528 127 q 638 317 638 222 q 444 479 638 479 q 420 479 435 479 l 454 627 z "},"γ":{"ha":772,"x_min":107,"x_max":862,"o":"m 419 0 l 361 -275 l 193 -275 l 252 0 l 107 720 l 298 720 l 349 406 q 374 237 372 269 q 399 283 382 252 l 473 416 l 652 720 l 862 720 l 419 0 z "},"ζ":{"ha":683,"x_min":73,"x_max":838,"o":"m 338 994 l 838 994 l 811 863 q 390 557 507 699 q 273 296 273 414 q 303 208 273 237 q 416 144 332 178 q 544 60 505 108 q 583 -57 583 12 q 509 -222 583 -151 q 271 -292 435 -292 q 233 -292 260 -292 l 312 -131 q 410 -77 410 -128 q 395 -43 410 -60 q 309 -5 380 -27 q 169 58 217 25 q 97 144 121 90 q 73 264 73 197 q 184 569 73 416 q 490 828 296 722 l 304 828 l 338 994 z "},"η":{"ha":848,"x_min":57,"x_max":820,"o":"m 208 720 l 392 720 l 373 627 q 629 737 498 737 q 770 685 720 737 q 820 551 820 633 q 798 408 820 513 l 656 -275 l 461 -275 l 604 409 q 623 518 623 501 q 539 598 623 598 q 436 556 491 598 q 359 464 381 515 q 313 296 338 412 l 252 0 l 57 0 l 208 720 z "},"θ":{"ha":774,"x_min":101,"x_max":805,"o":"m 101 328 q 218 789 101 568 q 529 1011 336 1011 q 730 927 654 1011 q 805 663 805 842 q 690 205 805 427 q 378 -17 574 -17 q 177 75 254 -17 q 101 328 101 166 m 337 580 l 603 580 q 615 711 615 665 q 520 853 615 853 q 337 580 405 853 m 304 414 q 292 283 292 336 q 316 181 292 220 q 385 141 339 141 q 570 414 507 141 l 304 414 z "},"ι":{"ha":386,"x_min":56,"x_max":401,"o":"m 206 720 l 401 720 l 250 0 l 56 0 l 206 720 z "},"κ":{"ha":786,"x_min":57,"x_max":863,"o":"m 210 720 l 405 720 l 354 485 l 606 720 l 863 720 l 496 400 l 741 0 l 526 0 l 366 286 l 299 227 l 251 0 l 57 0 l 210 720 z "},"λ":{"ha":772,"x_min":-18,"x_max":737,"o":"m 419 711 l 365 994 l 538 994 l 737 0 l 554 0 l 494 314 q 469 484 477 405 q 372 304 430 401 l 193 0 l -18 0 l 419 711 z "},"μ":{"ha":838,"x_min":-5,"x_max":857,"o":"m 205 720 l 399 720 l 330 387 l 326 365 q 309 252 309 296 q 341 162 309 195 q 420 128 374 128 q 515 170 473 128 q 585 343 557 212 l 665 720 l 857 720 l 706 0 l 532 0 l 547 67 q 469 0 500 18 q 401 -17 439 -17 q 264 77 313 -17 l 189 -275 l -5 -275 l 205 720 z "},"ν":{"ha":772,"x_min":104,"x_max":859,"o":"m 416 0 l 248 0 l 104 720 l 295 720 l 346 406 q 371 237 367 279 q 418 325 376 248 q 469 416 460 401 l 648 720 l 859 720 l 416 0 z "},"ξ":{"ha":625,"x_min":76,"x_max":720,"o":"m 720 1011 l 690 839 q 629 843 667 839 q 581 845 609 845 q 416 768 416 845 q 461 714 416 728 q 645 700 507 700 l 613 526 q 355 449 442 526 q 269 282 269 372 q 294 204 269 233 q 392 140 319 176 q 566 -72 566 56 q 484 -225 566 -159 q 224 -292 401 -292 l 283 -118 q 317 -121 304 -121 q 382 -73 382 -121 q 366 -34 382 -48 q 280 14 349 -19 q 114 137 151 74 q 76 281 76 199 q 162 495 76 410 q 355 608 248 581 q 222 783 222 656 q 313 952 222 893 q 597 1011 404 1011 l 720 1011 z "},"ο":{"ha":848,"x_min":84,"x_max":832,"o":"m 84 299 q 197 618 84 499 q 494 737 310 737 q 743 649 653 737 q 832 413 832 562 q 720 111 832 238 q 420 -17 608 -17 q 240 24 319 -17 q 123 139 161 64 q 84 299 84 214 m 639 438 q 598 549 639 507 q 494 591 558 591 q 382 552 431 591 q 307 438 334 513 q 279 302 279 364 q 321 179 279 224 q 427 134 363 134 q 562 202 507 134 q 639 438 639 299 z "},"ρ":{"ha":841,"x_min":-20,"x_max":827,"o":"m -20 -275 l 113 328 q 194 557 146 476 q 318 687 241 637 q 503 737 395 737 q 742 647 657 737 q 827 418 827 556 q 713 107 827 231 q 441 -17 599 -17 q 246 51 338 -17 l 174 -275 l -20 -275 m 303 271 q 341 170 303 207 q 428 132 378 132 q 578 225 515 132 q 640 430 640 319 q 602 538 640 495 q 500 582 563 582 q 355 486 408 582 q 303 271 303 390 z "},"ς":{"ha":739,"x_min":86,"x_max":819,"o":"m 819 693 l 750 541 q 569 576 658 576 q 358 496 442 576 q 274 323 274 416 q 306 233 274 271 q 429 136 337 194 q 574 18 535 68 q 613 -92 613 -32 q 540 -233 613 -174 q 299 -292 467 -292 q 149 -275 231 -292 l 220 -117 q 340 -127 288 -127 q 435 -77 435 -127 q 422 -43 435 -56 q 366 -9 409 -31 q 217 79 274 34 q 123 193 161 125 q 86 332 86 262 q 226 614 86 491 q 581 737 366 737 q 819 693 714 737 z "},"υ":{"ha":821,"x_min":102,"x_max":850,"o":"m 196 720 l 389 720 l 300 301 q 290 226 290 252 q 321 154 290 180 q 404 128 352 128 q 500 164 454 128 q 573 329 546 199 l 655 720 l 850 720 l 773 357 q 770 339 772 353 q 649 73 737 163 q 399 -17 561 -17 q 173 55 244 -17 q 102 225 102 127 q 116 334 102 276 l 121 357 l 196 720 z "},"χ":{"ha":802,"x_min":-111,"x_max":895,"o":"m 427 391 l 656 720 l 895 720 l 517 212 l 664 -275 l 468 -275 l 376 79 l 119 -275 l -111 -275 l 284 250 l 136 720 l 333 720 l 427 391 z "},"ψ":{"ha":1074,"x_min":104,"x_max":1102,"o":"m 197 720 l 395 720 l 323 396 q 304 260 304 305 q 333 174 304 199 q 429 138 361 149 l 557 720 l 749 720 l 623 138 q 750 180 699 142 q 837 381 801 219 l 912 720 l 1102 720 l 1021 340 q 942 127 990 199 q 826 25 895 55 q 590 -16 758 -5 l 533 -275 l 341 -275 l 396 -16 q 176 58 248 -9 q 104 235 104 126 q 121 361 104 300 q 125 377 123 369 l 197 720 z "},"ω":{"ha":1159,"x_min":89,"x_max":1147,"o":"m 255 720 l 448 720 q 276 262 276 429 q 303 170 276 205 q 370 135 330 135 q 511 342 465 135 l 555 543 l 749 543 l 709 351 q 690 227 690 258 q 718 158 690 180 q 777 135 746 135 q 903 244 854 135 q 951 510 951 354 q 930 720 951 595 l 1124 720 q 1147 499 1147 597 q 1049 126 1147 270 q 789 -17 951 -17 q 576 157 594 -17 q 343 -17 507 -17 q 158 72 227 -17 q 89 300 89 160 q 139 526 89 411 q 255 720 189 642 z "},"ϊ":{"ha":386,"x_min":56,"x_max":570,"o":"m 206 720 l 401 720 l 250 0 l 56 0 l 206 720 m 117 996 l 284 996 l 250 829 l 83 829 l 117 996 m 403 996 l 570 996 l 535 829 l 368 829 l 403 996 z "},"ϋ":{"ha":821,"x_min":102,"x_max":850,"o":"m 196 720 l 389 720 l 300 301 q 290 226 290 252 q 321 154 290 180 q 404 128 352 128 q 500 164 454 128 q 573 329 546 199 l 655 720 l 850 720 l 773 357 q 770 339 772 353 q 649 73 737 163 q 399 -17 561 -17 q 173 55 244 -17 q 102 225 102 127 q 116 334 102 276 l 121 357 l 196 720 m 336 996 l 503 996 l 469 829 l 302 829 l 336 996 m 622 996 l 789 996 l 754 829 l 587 829 l 622 996 z "},"ό":{"ha":848,"x_min":84,"x_max":832,"o":"m 84 299 q 197 618 84 499 q 494 737 310 737 q 743 649 653 737 q 832 413 832 562 q 720 111 832 238 q 420 -17 608 -17 q 240 24 319 -17 q 123 139 161 64 q 84 299 84 214 m 639 438 q 598 549 639 507 q 494 591 558 591 q 382 552 431 591 q 307 438 334 513 q 279 302 279 364 q 321 179 279 224 q 427 134 363 134 q 562 202 507 134 q 639 438 639 299 m 591 1015 l 798 1015 l 578 811 l 449 811 l 591 1015 z "},"ύ":{"ha":821,"x_min":102,"x_max":850,"o":"m 196 720 l 389 720 l 300 301 q 290 226 290 252 q 321 154 290 180 q 404 128 352 128 q 500 164 454 128 q 573 329 546 199 l 655 720 l 850 720 l 773 357 q 770 339 772 353 q 649 73 737 163 q 399 -17 561 -17 q 173 55 244 -17 q 102 225 102 127 q 116 334 102 276 l 121 357 l 196 720 m 574 1015 l 782 1015 l 562 811 l 433 811 l 574 1015 z "},"ώ":{"ha":1159,"x_min":89,"x_max":1147,"o":"m 255 720 l 448 720 q 276 262 276 429 q 303 170 276 205 q 370 135 330 135 q 511 342 465 135 l 555 543 l 749 543 l 709 351 q 690 227 690 258 q 718 158 690 180 q 777 135 746 135 q 903 244 854 135 q 951 510 951 354 q 930 720 951 595 l 1124 720 q 1147 499 1147 597 q 1049 126 1147 270 q 789 -17 951 -17 q 576 157 594 -17 q 343 -17 507 -17 q 158 72 227 -17 q 89 300 89 160 q 139 526 89 411 q 255 720 189 642 m 702 1015 l 909 1015 l 690 811 l 560 811 l 702 1015 z "},"Ё":{"ha":926,"x_min":57,"x_max":1002,"o":"m 440 1217 l 607 1217 l 572 1050 l 406 1050 l 440 1217 m 726 1217 l 892 1217 l 858 1050 l 691 1050 l 726 1217 z "},"Ђ":{"ha":1230,"x_min":179,"x_max":1214,"o":"m 214 994 l 1004 994 l 968 823 l 673 823 l 627 604 q 883 668 743 668 q 1119 582 1023 668 q 1214 352 1214 496 q 1104 93 1214 195 q 836 -9 995 -9 q 683 13 760 -9 l 718 179 q 823 166 778 166 q 963 218 911 166 q 1015 355 1015 271 q 970 452 1015 418 q 860 486 925 486 q 586 406 724 486 l 498 0 l 295 0 l 471 823 l 179 823 l 214 994 z "},"Ѓ":{"ha":852,"x_min":62,"x_max":1004,"o":"m 274 994 l 1004 994 l 970 828 l 441 828 l 264 0 l 62 0 l 274 994 m 608 1257 l 816 1257 l 596 1053 l 467 1053 l 608 1257 z "},"Є":{"ha":998,"x_min":121,"x_max":1026,"o":"m 355 579 l 676 579 l 640 410 l 325 410 q 382 216 325 281 q 526 151 439 151 q 769 357 699 151 l 972 325 q 812 86 934 190 q 510 -17 690 -17 q 223 97 326 -17 q 121 409 121 211 q 270 840 121 669 q 650 1011 419 1011 q 1026 686 972 1011 l 830 666 q 641 835 803 835 q 474 774 552 835 q 355 579 397 713 z "},"Ѕ":{"ha":926,"x_min":85,"x_max":939,"o":"m 88 322 l 283 332 q 315 207 287 239 q 480 154 359 154 q 625 190 581 154 q 670 277 670 226 q 633 351 670 321 q 492 424 608 374 q 323 508 376 474 q 239 595 270 541 q 209 720 209 648 q 300 928 209 846 q 563 1011 391 1011 q 834 929 738 1011 q 939 711 930 847 l 743 702 q 692 811 736 773 q 562 849 648 849 q 440 819 477 849 q 404 744 404 789 q 437 673 404 701 q 585 595 471 645 q 803 475 756 522 q 873 301 873 408 q 769 76 873 170 q 479 -17 665 -17 q 257 26 351 -17 q 124 146 163 69 q 88 322 85 222 z "},"І":{"ha":386,"x_min":48,"x_max":460,"o":"m 48 0 l 256 994 l 460 994 l 253 0 l 48 0 z "},"Ї":{"ha":386,"x_min":48,"x_max":614,"o":"m 48 0 l 256 994 l 460 994 l 253 0 l 48 0 m 162 1217 l 329 1217 l 294 1050 l 127 1050 l 162 1217 m 448 1217 l 614 1217 l 580 1050 l 413 1050 l 448 1217 z "},"Ј":{"ha":772,"x_min":40,"x_max":833,"o":"m 632 994 l 833 994 l 707 392 q 576 68 657 153 q 326 -17 494 -17 q 111 49 182 -17 q 40 228 40 115 q 43 281 40 252 l 233 301 q 229 252 229 271 q 256 179 229 204 q 339 154 283 154 q 450 200 418 154 q 507 399 473 235 l 632 994 z "},"Љ":{"ha":1520,"x_min":-30,"x_max":1491,"o":"m 938 616 l 1098 616 q 1326 591 1245 616 q 1449 500 1407 566 q 1491 338 1491 435 q 1392 95 1491 190 q 1087 0 1292 0 l 604 0 l 779 828 l 504 828 l 391 302 q 294 61 356 138 q 114 -17 232 -17 q -30 10 38 -17 l 8 182 q 79 163 54 163 q 189 308 161 163 q 193 325 191 316 l 334 994 l 1018 994 l 938 616 m 841 163 l 1044 163 q 1178 175 1134 163 q 1255 226 1222 186 q 1289 319 1289 265 q 1262 400 1289 367 q 1194 443 1236 433 q 1065 452 1152 452 l 904 452 l 841 163 z "},"Њ":{"ha":1447,"x_min":60,"x_max":1419,"o":"m 865 616 l 1026 616 q 1259 590 1179 616 q 1379 498 1339 564 q 1419 343 1419 433 q 1319 96 1419 191 q 1015 0 1219 0 l 532 0 l 625 452 l 358 452 l 265 0 l 60 0 l 269 994 l 473 994 l 393 616 l 660 616 l 740 994 l 944 994 l 865 616 m 769 163 l 973 163 q 1117 179 1072 163 q 1190 233 1162 195 q 1217 321 1217 270 q 1193 399 1217 366 q 1127 442 1168 431 q 994 452 1086 452 l 831 452 l 769 163 z "},"Ћ":{"ha":1185,"x_min":167,"x_max":1156,"o":"m 201 994 l 989 994 l 955 823 l 665 823 l 620 614 q 872 660 757 660 q 1086 600 1015 660 q 1156 440 1156 540 q 1136 304 1156 397 l 1070 0 l 869 0 l 929 281 q 941 382 941 338 q 903 465 941 437 q 789 492 865 492 q 585 444 686 492 l 490 0 l 287 0 l 463 823 l 167 823 l 201 994 z "},"Ќ":{"ha":854,"x_min":60,"x_max":974,"o":"m 273 994 l 475 994 l 386 572 q 475 596 444 572 q 574 736 507 621 q 684 906 646 859 q 772 973 723 952 q 920 994 821 994 l 974 994 l 929 845 l 896 845 q 839 833 859 845 q 793 773 819 821 q 664 573 712 625 q 559 507 616 522 q 694 328 661 475 q 698 313 696 320 l 787 0 l 577 0 l 494 308 q 470 373 492 313 q 355 432 443 431 l 262 0 l 60 0 l 273 994 m 610 1257 l 817 1257 l 597 1053 l 468 1053 l 610 1257 z "},"Ў":{"ha":941,"x_min":106,"x_max":1103,"o":"m 180 994 l 410 994 l 536 487 l 881 994 l 1103 994 l 495 157 q 364 18 418 52 q 236 -15 310 -15 q 106 0 156 -15 l 131 157 q 210 149 177 149 q 292 164 248 149 q 401 287 336 180 l 180 994 m 455 1249 l 549 1249 q 591 1173 565 1194 q 657 1151 617 1151 q 791 1249 738 1151 l 880 1249 q 790 1104 852 1156 q 651 1053 728 1053 q 520 1102 572 1053 q 455 1249 469 1151 z "},"Џ":{"ha":999,"x_min":60,"x_max":1061,"o":"m 537 0 l 479 -275 l 313 -275 l 371 0 l 60 0 l 272 994 l 475 994 l 298 166 l 681 166 l 858 994 l 1061 994 l 848 0 l 537 0 z "},"А":{"ha":1003,"x_min":-16,"x_max":935,"o":"m 708 220 l 314 220 l 195 0 l -16 0 l 547 994 l 774 994 l 935 0 l 741 0 l 708 220 m 683 385 l 625 785 l 385 385 l 683 385 z "},"Б":{"ha":983,"x_min":62,"x_max":985,"o":"m 444 828 l 400 616 l 561 616 q 792 591 715 616 q 912 496 870 565 q 954 335 954 427 q 851 95 954 189 q 549 0 749 0 l 62 0 l 276 994 l 985 994 l 947 828 l 444 828 m 303 163 l 507 163 q 640 175 595 163 q 717 226 684 186 q 750 319 750 265 q 724 400 750 367 q 655 443 698 433 q 527 452 613 452 l 366 452 l 303 163 z "}}}
